<svg xmlns="http://www.w3.org/2000/svg" width="89.056" height="123.292" viewBox="0 0 89.056 123.292"><g transform="translate(-3553 -8344)"><path d="M14.107,0H75.83A13.226,13.226,0,0,1,89.056,13.226v45.85H0V14.107A14.107,14.107,0,0,1,14.107,0Z" transform="translate(3553 8344)" fill="#004aad"/><path d="M43.149,65.08,34.97,57.107l-.254-.247H18.27a17.024,17.024,0,0,1-6.722-1.369,17.21,17.21,0,0,1-5.489-3.736A17.454,17.454,0,0,1,1,39.43V1.332L88.306,1V39.43a17.457,17.457,0,0,1-5.058,12.325,17.209,17.209,0,0,1-5.489,3.736,17.024,17.024,0,0,1-6.722,1.369H51.015l-.257.269Z" transform="translate(3552.874 8400.965)" fill="#fff"/><path d="M43,63.715l7.515-7.854h20.4A16.211,16.211,0,0,0,82.5,51.014a16.518,16.518,0,0,0,4.8-11.7V1.767L1.747,2.093V39.312a16.518,16.518,0,0,0,4.8,11.7,16.211,16.211,0,0,0,11.594,4.847h16.8L43,63.715m.043,2.494-8.808-8.588H18.144A18.228,18.228,0,0,1,0,39.312V.336L89.054,0V39.312a18.229,18.229,0,0,1-18.142,18.31H51.258Z" transform="translate(3553 8401.083)" fill="#004aad"/><path d="M16.26,37.631c3.868-4.84,12.687-16.57,12.687-23.158A14.474,14.474,0,1,0,0,14.474c0,6.589,8.818,18.318,12.687,23.158a2.277,2.277,0,0,0,3.573,0ZM14.474,9.649a4.825,4.825,0,1,1-4.825,4.825,4.825,4.825,0,0,1,4.825-4.825Z" transform="translate(3581.053 8409.058)" fill="#004aad"/><path d="M127.487,131.331a5.813,5.813,0,1,0-10.73-4.085h-7.614a5.792,5.792,0,0,0-1.865-3.182l3.8-6.579a5.808,5.808,0,1,0-.184-10.924l-3.759-6.5a5.825,5.825,0,1,0-1.988,1.052l3.837,6.636a5.843,5.843,0,0,0-1.744,3.174H99.674a5.813,5.813,0,1,0-9.542,5.452l-3.8,6.579a5.8,5.8,0,1,0,1.947,1.122l3.8-6.579a5.813,5.813,0,0,0,3.793-.012l3.786,6.548a5.811,5.811,0,1,0,9.51,5.459h7.566a5.817,5.817,0,0,0,10.752,1.84Zm-20.22-18.163a5.8,5.8,0,0,0,1.867,3.2l-3.8,6.579a5.815,5.815,0,0,0-3.712-.014l-3.8-6.577a5.828,5.828,0,0,0,1.843-3.183Zm0,0" transform="translate(3492.077 8259.898)" fill="#fff"/></g></svg>