<svg xmlns="http://www.w3.org/2000/svg" xmlns:xlink="http://www.w3.org/1999/xlink" width="400" zoomAndPan="magnify" viewBox="0 0 300 74.999997" height="100" preserveAspectRatio="xMidYMid meet" version="1.0"><defs><g/></defs><path fill="#004aad" d="M 80.796875 68 C 83.285156 63.667969 81.808594 58.128906 77.496094 55.628906 C 73.183594 53.128906 67.671875 54.613281 65.183594 58.945312 C 64.691406 59.804688 64.355469 60.707031 64.164062 61.628906 L 52.363281 61.628906 C 51.96875 59.742188 50.976562 57.988281 49.472656 56.667969 L 55.367188 46.40625 C 59.363281 47.78125 63.894531 46.175781 66.085938 42.363281 C 68.574219 38.03125 67.097656 32.492188 62.785156 29.992188 C 60.347656 28.578125 57.523438 28.4375 55.082031 29.367188 L 49.257812 19.226562 C 50.085938 18.550781 50.808594 17.710938 51.375 16.726562 C 53.867188 12.394531 52.386719 6.855469 48.078125 4.355469 C 43.765625 1.855469 38.253906 3.339844 35.765625 7.667969 C 33.277344 12 34.753906 17.542969 39.0625 20.042969 C 41.304688 21.34375 43.875 21.566406 46.175781 20.867188 L 52.121094 31.21875 C 51.488281 31.816406 50.929688 32.511719 50.476562 33.304688 C 49.949219 34.21875 49.601562 35.1875 49.417969 36.167969 L 37.6875 36.167969 C 37.214844 33.667969 35.703125 31.378906 33.335938 30.007812 C 29.027344 27.507812 23.515625 28.992188 21.027344 33.324219 C 18.835938 37.136719 19.714844 41.882812 22.898438 44.671875 L 17.003906 54.933594 C 13.007812 53.558594 8.476562 55.164062 6.285156 58.976562 C 3.796875 63.308594 5.273438 68.847656 9.585938 71.347656 C 13.898438 73.851562 19.410156 72.367188 21.898438 68.035156 C 24.089844 64.222656 23.207031 59.472656 20.023438 56.683594 L 25.917969 46.421875 C 27.859375 47.09375 29.929688 47.054688 31.796875 46.402344 L 37.664062 56.617188 C 36.914062 57.265625 36.257812 58.050781 35.734375 58.960938 C 33.246094 63.292969 34.722656 68.832031 39.035156 71.332031 C 43.34375 73.832031 48.855469 72.347656 51.34375 68.015625 C 51.875 67.097656 52.222656 66.121094 52.40625 65.132812 L 64.128906 65.132812 C 64.597656 67.640625 66.109375 69.9375 68.484375 71.316406 C 72.792969 73.816406 78.304688 72.332031 80.796875 68 Z M 49.457031 39.671875 C 49.847656 41.566406 50.839844 43.332031 52.347656 44.65625 L 46.453125 54.917969 C 44.554688 54.261719 42.53125 54.28125 40.699219 54.894531 L 34.804688 44.636719 C 35.515625 44.003906 36.136719 43.25 36.636719 42.378906 C 37.136719 41.515625 37.472656 40.597656 37.660156 39.671875 Z M 49.457031 39.671875 " fill-opacity="1" fill-rule="nonzero"/><g fill="#0054a6" fill-opacity="1"><g transform="translate(95.721404, 28.532245)"><g><path d="M 11.984375 0 L 11.984375 -17.972656 L 18.390625 -17.972656 L 18.390625 -22.742188 L 0.238281 -22.742188 L 0.238281 -17.972656 L 6.648438 -17.972656 L 6.648438 0 Z M 11.984375 0 "/></g></g></g><g fill="#0054a6" fill-opacity="1"><g transform="translate(115.840487, 28.532245)"><g><path d="M 17.316406 0 L 17.316406 -4.769531 L 7.125 -4.769531 L 7.125 -9 L 16.335938 -9 L 16.335938 -13.742188 L 7.125 -13.742188 L 7.125 -17.972656 L 17.316406 -17.972656 L 17.316406 -22.742188 L 1.789062 -22.742188 L 1.789062 0 Z M 17.316406 0 "/></g></g></g><g fill="#0054a6" fill-opacity="1"><g transform="translate(135.929769, 28.532245)"><g><path d="M 12.308594 0.507812 C 18.300781 0.507812 21.789062 -2.800781 22.386719 -7.71875 L 16.542969 -7.71875 C 16.183594 -5.335938 14.457031 -4.261719 12.191406 -4.261719 C 8.585938 -4.261719 6.585938 -7.0625 6.585938 -11.386719 C 6.585938 -15.679688 8.585938 -18.449219 12.191406 -18.449219 C 14.457031 -18.449219 16.214844 -17.378906 16.542969 -15.050781 L 22.386719 -15.050781 C 21.789062 -19.941406 18.300781 -23.21875 12.308594 -23.21875 C 4.53125 -23.21875 0.953125 -17.734375 0.953125 -11.386719 C 0.953125 -5.039062 4.53125 0.507812 12.308594 0.507812 Z M 12.308594 0.507812 "/></g></g></g><g fill="#0054a6" fill-opacity="1"><g transform="translate(160.638935, 28.532245)"><g><path d="M 7.125 0 L 7.125 -8.972656 L 15.769531 -8.972656 L 15.769531 0 L 21.101562 0 L 21.101562 -22.742188 L 15.769531 -22.742188 L 15.769531 -13.742188 L 7.125 -13.742188 L 7.125 -22.742188 L 1.789062 -22.742188 L 1.789062 0 Z M 7.125 0 "/></g></g></g><g fill="#0054a6" fill-opacity="1"><g transform="translate(189.168593, 28.532245)"><g><path d="M 4.410156 0 L 4.410156 -20.777344 L 15.441406 0 L 18.601562 0 L 18.601562 -22.742188 L 16.574219 -22.742188 L 16.574219 -1.878906 L 5.515625 -22.742188 L 2.355469 -22.742188 L 2.355469 0 Z M 4.410156 0 "/></g></g></g><g fill="#0054a6" fill-opacity="1"><g transform="translate(212.238524, 28.532245)"><g><path d="M 16.839844 0 L 16.839844 -1.847656 L 4.410156 -1.847656 L 4.410156 -10.492188 L 15.320312 -10.492188 L 15.320312 -12.339844 L 4.410156 -12.339844 L 4.410156 -20.894531 L 16.839844 -20.894531 L 16.839844 -22.742188 L 2.355469 -22.742188 L 2.355469 0 Z M 16.839844 0 "/></g></g></g><g fill="#0054a6" fill-opacity="1"><g transform="translate(232.476905, 28.532245)"><g><path d="M 3.011719 0 L 9.894531 -9.957031 L 16.839844 0 L 19.285156 0 L 11.296875 -11.476562 L 19.136719 -22.742188 L 16.664062 -22.742188 L 9.925781 -12.875 L 3.160156 -22.742188 L 0.714844 -22.742188 L 8.554688 -11.476562 L 0.566406 0 Z M 3.011719 0 "/></g></g></g><g fill="#0054a6" fill-opacity="1"><g transform="translate(254.444023, 28.532245)"><g><path d="M 10.253906 0.296875 C 15.828125 0.296875 18.359375 -2.863281 18.359375 -8.046875 L 18.359375 -22.742188 L 16.304688 -22.742188 L 16.304688 -8.046875 C 16.304688 -3.996094 14.515625 -1.550781 10.253906 -1.550781 C 5.992188 -1.550781 4.203125 -3.996094 4.203125 -8.046875 L 4.203125 -22.742188 L 2.144531 -22.742188 L 2.144531 -8.046875 C 2.144531 -2.863281 4.679688 0.296875 10.253906 0.296875 Z M 10.253906 0.296875 "/></g></g></g><g fill="#0054a6" fill-opacity="1"><g transform="translate(277.066867, 28.532245)"><g><path d="M 10.105469 0.296875 C 15.261719 0.296875 18.003906 -2.382812 18.003906 -6.347656 C 18.003906 -11.175781 13.980469 -12.070312 10.285156 -12.875 C 7.152344 -13.5625 4.234375 -14.21875 4.234375 -17.199219 C 4.234375 -19.671875 6.4375 -21.191406 9.539062 -21.191406 C 12.460938 -21.191406 14.664062 -20 15.292969 -16.75 L 17.257812 -16.75 C 16.542969 -21.191406 13.53125 -23.039062 9.566406 -23.039062 C 5.335938 -23.039062 2.175781 -20.714844 2.175781 -17.050781 C 2.175781 -12.667969 5.902344 -11.863281 9.480469 -11.089844 C 12.789062 -10.371094 15.945312 -9.6875 15.945312 -6.257812 C 15.945312 -3.308594 13.859375 -1.550781 10.253906 -1.550781 C 7.214844 -1.550781 4.023438 -2.710938 3.367188 -6.4375 L 1.28125 -6.4375 C 2.027344 -1.640625 5.8125 0.296875 10.105469 0.296875 Z M 10.105469 0.296875 "/></g></g></g><g fill="#69b3e3" fill-opacity="1"><g transform="translate(100.810616, 44.751476)"><g><path d="M 4.296875 -4.734375 L 2.5625 -4.734375 L 2.5625 0 L 1.84375 0 L 1.84375 -4.734375 L 0.109375 -4.734375 L 0.109375 -5.34375 L 4.296875 -5.34375 Z M 4.296875 -4.734375 "/></g></g></g><g fill="#69b3e3" fill-opacity="1"><g transform="translate(110.122513, 44.751476)"><g><path d="M 3.96875 -0.59375 L 3.96875 0 L 0.6875 0 L 0.6875 -5.34375 L 3.96875 -5.34375 L 3.96875 -4.75 L 1.40625 -4.75 L 1.40625 -2.984375 L 3.484375 -2.984375 L 3.484375 -2.40625 L 1.40625 -2.40625 L 1.40625 -0.59375 Z M 3.96875 -0.59375 "/></g></g></g><g fill="#69b3e3" fill-opacity="1"><g transform="translate(119.337533, 44.751476)"><g><path d="M 4.4375 -1.109375 C 4.46875 -1.109375 4.5 -1.085938 4.53125 -1.046875 L 4.828125 -0.75 C 4.609375 -0.488281 4.34375 -0.285156 4.03125 -0.140625 C 3.71875 -0.00390625 3.335938 0.0625 2.890625 0.0625 C 2.515625 0.0625 2.164062 -0.00390625 1.84375 -0.140625 C 1.53125 -0.273438 1.265625 -0.460938 1.046875 -0.703125 C 0.828125 -0.941406 0.65625 -1.226562 0.53125 -1.5625 C 0.414062 -1.894531 0.359375 -2.265625 0.359375 -2.671875 C 0.359375 -3.066406 0.421875 -3.429688 0.546875 -3.765625 C 0.671875 -4.109375 0.847656 -4.398438 1.078125 -4.640625 C 1.304688 -4.878906 1.582031 -5.066406 1.90625 -5.203125 C 2.226562 -5.335938 2.582031 -5.40625 2.96875 -5.40625 C 3.34375 -5.40625 3.675781 -5.34375 3.96875 -5.21875 C 4.257812 -5.09375 4.515625 -4.925781 4.734375 -4.71875 L 4.5 -4.390625 C 4.488281 -4.367188 4.46875 -4.347656 4.4375 -4.328125 C 4.414062 -4.304688 4.382812 -4.296875 4.34375 -4.296875 C 4.300781 -4.296875 4.25 -4.320312 4.1875 -4.375 C 4.125 -4.425781 4.039062 -4.476562 3.9375 -4.53125 C 3.832031 -4.59375 3.703125 -4.648438 3.546875 -4.703125 C 3.390625 -4.753906 3.195312 -4.78125 2.96875 -4.78125 C 2.6875 -4.78125 2.429688 -4.726562 2.203125 -4.625 C 1.972656 -4.53125 1.773438 -4.390625 1.609375 -4.203125 C 1.453125 -4.023438 1.328125 -3.804688 1.234375 -3.546875 C 1.140625 -3.285156 1.09375 -2.992188 1.09375 -2.671875 C 1.09375 -2.335938 1.140625 -2.039062 1.234375 -1.78125 C 1.328125 -1.519531 1.457031 -1.296875 1.625 -1.109375 C 1.789062 -0.929688 1.984375 -0.796875 2.203125 -0.703125 C 2.429688 -0.609375 2.675781 -0.5625 2.9375 -0.5625 C 3.09375 -0.5625 3.234375 -0.570312 3.359375 -0.59375 C 3.492188 -0.613281 3.613281 -0.640625 3.71875 -0.671875 C 3.832031 -0.710938 3.9375 -0.765625 4.03125 -0.828125 C 4.125 -0.890625 4.210938 -0.960938 4.296875 -1.046875 C 4.347656 -1.085938 4.394531 -1.109375 4.4375 -1.109375 Z M 4.4375 -1.109375 "/></g></g></g><g fill="#69b3e3" fill-opacity="1"><g transform="translate(129.227001, 44.751476)"><g><path d="M 5.015625 -5.34375 L 5.015625 0 L 4.28125 0 L 4.28125 -2.421875 L 1.40625 -2.421875 L 1.40625 0 L 0.6875 0 L 0.6875 -5.34375 L 1.40625 -5.34375 L 1.40625 -2.953125 L 4.28125 -2.953125 L 4.28125 -5.34375 Z M 5.015625 -5.34375 "/></g></g></g><g fill="#69b3e3" fill-opacity="1"><g transform="translate(139.828189, 44.751476)"><g><path d="M 5.015625 -5.34375 L 5.015625 0 L 4.640625 0 C 4.585938 0 4.539062 -0.0078125 4.5 -0.03125 C 4.46875 -0.0507812 4.429688 -0.0820312 4.390625 -0.125 L 1.296875 -4.15625 C 1.304688 -4.09375 1.3125 -4.03125 1.3125 -3.96875 C 1.3125 -3.914062 1.3125 -3.863281 1.3125 -3.8125 L 1.3125 0 L 0.6875 0 L 0.6875 -5.34375 L 1.046875 -5.34375 C 1.085938 -5.34375 1.117188 -5.335938 1.140625 -5.328125 C 1.160156 -5.328125 1.175781 -5.320312 1.1875 -5.3125 C 1.207031 -5.300781 1.226562 -5.285156 1.25 -5.265625 C 1.269531 -5.253906 1.285156 -5.238281 1.296875 -5.21875 L 4.390625 -1.203125 C 4.390625 -1.265625 4.382812 -1.320312 4.375 -1.375 C 4.375 -1.4375 4.375 -1.5 4.375 -1.5625 L 4.375 -5.34375 Z M 5.015625 -5.34375 "/></g></g></g><g fill="#69b3e3" fill-opacity="1"><g transform="translate(150.429377, 44.751476)"><g><path d="M 5.609375 -2.671875 C 5.609375 -2.265625 5.546875 -1.894531 5.421875 -1.5625 C 5.296875 -1.226562 5.117188 -0.941406 4.890625 -0.703125 C 4.660156 -0.460938 4.378906 -0.273438 4.046875 -0.140625 C 3.722656 -0.00390625 3.367188 0.0625 2.984375 0.0625 C 2.585938 0.0625 2.226562 -0.00390625 1.90625 -0.140625 C 1.582031 -0.273438 1.304688 -0.460938 1.078125 -0.703125 C 0.847656 -0.941406 0.664062 -1.226562 0.53125 -1.5625 C 0.40625 -1.894531 0.34375 -2.265625 0.34375 -2.671875 C 0.34375 -3.066406 0.40625 -3.429688 0.53125 -3.765625 C 0.664062 -4.097656 0.847656 -4.382812 1.078125 -4.625 C 1.304688 -4.875 1.582031 -5.066406 1.90625 -5.203125 C 2.226562 -5.335938 2.585938 -5.40625 2.984375 -5.40625 C 3.367188 -5.40625 3.722656 -5.335938 4.046875 -5.203125 C 4.378906 -5.066406 4.660156 -4.875 4.890625 -4.625 C 5.117188 -4.382812 5.296875 -4.097656 5.421875 -3.765625 C 5.546875 -3.429688 5.609375 -3.066406 5.609375 -2.671875 Z M 4.875 -2.671875 C 4.875 -2.992188 4.828125 -3.285156 4.734375 -3.546875 C 4.648438 -3.804688 4.523438 -4.023438 4.359375 -4.203125 C 4.191406 -4.390625 3.988281 -4.53125 3.75 -4.625 C 3.519531 -4.726562 3.265625 -4.78125 2.984375 -4.78125 C 2.691406 -4.78125 2.429688 -4.726562 2.203125 -4.625 C 1.972656 -4.53125 1.773438 -4.390625 1.609375 -4.203125 C 1.441406 -4.023438 1.3125 -3.804688 1.21875 -3.546875 C 1.132812 -3.285156 1.09375 -2.992188 1.09375 -2.671875 C 1.09375 -2.335938 1.132812 -2.039062 1.21875 -1.78125 C 1.3125 -1.519531 1.441406 -1.300781 1.609375 -1.125 C 1.773438 -0.945312 1.972656 -0.804688 2.203125 -0.703125 C 2.429688 -0.609375 2.691406 -0.5625 2.984375 -0.5625 C 3.265625 -0.5625 3.519531 -0.609375 3.75 -0.703125 C 3.988281 -0.804688 4.191406 -0.945312 4.359375 -1.125 C 4.523438 -1.300781 4.648438 -1.519531 4.734375 -1.78125 C 4.828125 -2.039062 4.875 -2.335938 4.875 -2.671875 Z M 4.875 -2.671875 "/></g></g></g><g fill="#69b3e3" fill-opacity="1"><g transform="translate(161.306304, 44.751476)"><g><path d="M 3.71875 -0.609375 L 3.71875 0 L 0.6875 0 L 0.6875 -5.34375 L 1.40625 -5.34375 L 1.40625 -0.609375 Z M 3.71875 -0.609375 "/></g></g></g><g fill="#69b3e3" fill-opacity="1"><g transform="translate(170.044361, 44.751476)"><g><path d="M 5.609375 -2.671875 C 5.609375 -2.265625 5.546875 -1.894531 5.421875 -1.5625 C 5.296875 -1.226562 5.117188 -0.941406 4.890625 -0.703125 C 4.660156 -0.460938 4.378906 -0.273438 4.046875 -0.140625 C 3.722656 -0.00390625 3.367188 0.0625 2.984375 0.0625 C 2.585938 0.0625 2.226562 -0.00390625 1.90625 -0.140625 C 1.582031 -0.273438 1.304688 -0.460938 1.078125 -0.703125 C 0.847656 -0.941406 0.664062 -1.226562 0.53125 -1.5625 C 0.40625 -1.894531 0.34375 -2.265625 0.34375 -2.671875 C 0.34375 -3.066406 0.40625 -3.429688 0.53125 -3.765625 C 0.664062 -4.097656 0.847656 -4.382812 1.078125 -4.625 C 1.304688 -4.875 1.582031 -5.066406 1.90625 -5.203125 C 2.226562 -5.335938 2.585938 -5.40625 2.984375 -5.40625 C 3.367188 -5.40625 3.722656 -5.335938 4.046875 -5.203125 C 4.378906 -5.066406 4.660156 -4.875 4.890625 -4.625 C 5.117188 -4.382812 5.296875 -4.097656 5.421875 -3.765625 C 5.546875 -3.429688 5.609375 -3.066406 5.609375 -2.671875 Z M 4.875 -2.671875 C 4.875 -2.992188 4.828125 -3.285156 4.734375 -3.546875 C 4.648438 -3.804688 4.523438 -4.023438 4.359375 -4.203125 C 4.191406 -4.390625 3.988281 -4.53125 3.75 -4.625 C 3.519531 -4.726562 3.265625 -4.78125 2.984375 -4.78125 C 2.691406 -4.78125 2.429688 -4.726562 2.203125 -4.625 C 1.972656 -4.53125 1.773438 -4.390625 1.609375 -4.203125 C 1.441406 -4.023438 1.3125 -3.804688 1.21875 -3.546875 C 1.132812 -3.285156 1.09375 -2.992188 1.09375 -2.671875 C 1.09375 -2.335938 1.132812 -2.039062 1.21875 -1.78125 C 1.3125 -1.519531 1.441406 -1.300781 1.609375 -1.125 C 1.773438 -0.945312 1.972656 -0.804688 2.203125 -0.703125 C 2.429688 -0.609375 2.691406 -0.5625 2.984375 -0.5625 C 3.265625 -0.5625 3.519531 -0.609375 3.75 -0.703125 C 3.988281 -0.804688 4.191406 -0.945312 4.359375 -1.125 C 4.523438 -1.300781 4.648438 -1.519531 4.734375 -1.78125 C 4.828125 -2.039062 4.875 -2.335938 4.875 -2.671875 Z M 4.875 -2.671875 "/></g></g></g><g fill="#69b3e3" fill-opacity="1"><g transform="translate(180.921288, 44.751476)"><g><path d="M 5.015625 -2.5625 L 5.015625 -0.515625 C 4.742188 -0.328125 4.457031 -0.179688 4.15625 -0.078125 C 3.851562 0.015625 3.519531 0.0625 3.15625 0.0625 C 2.726562 0.0625 2.34375 -0.00390625 2 -0.140625 C 1.65625 -0.273438 1.359375 -0.460938 1.109375 -0.703125 C 0.867188 -0.941406 0.679688 -1.226562 0.546875 -1.5625 C 0.410156 -1.894531 0.34375 -2.265625 0.34375 -2.671875 C 0.34375 -3.078125 0.40625 -3.445312 0.53125 -3.78125 C 0.664062 -4.113281 0.847656 -4.398438 1.078125 -4.640625 C 1.316406 -4.878906 1.601562 -5.066406 1.9375 -5.203125 C 2.28125 -5.335938 2.660156 -5.40625 3.078125 -5.40625 C 3.296875 -5.40625 3.492188 -5.390625 3.671875 -5.359375 C 3.847656 -5.328125 4.015625 -5.28125 4.171875 -5.21875 C 4.328125 -5.15625 4.46875 -5.082031 4.59375 -5 C 4.726562 -4.914062 4.851562 -4.820312 4.96875 -4.71875 L 4.765625 -4.390625 C 4.734375 -4.347656 4.691406 -4.316406 4.640625 -4.296875 C 4.585938 -4.285156 4.53125 -4.300781 4.46875 -4.34375 C 4.40625 -4.375 4.335938 -4.410156 4.265625 -4.453125 C 4.191406 -4.503906 4.097656 -4.550781 3.984375 -4.59375 C 3.867188 -4.644531 3.738281 -4.6875 3.59375 -4.71875 C 3.445312 -4.757812 3.269531 -4.78125 3.0625 -4.78125 C 2.757812 -4.78125 2.484375 -4.726562 2.234375 -4.625 C 1.992188 -4.53125 1.785156 -4.390625 1.609375 -4.203125 C 1.441406 -4.023438 1.3125 -3.804688 1.21875 -3.546875 C 1.132812 -3.285156 1.09375 -2.992188 1.09375 -2.671875 C 1.09375 -2.335938 1.140625 -2.035156 1.234375 -1.765625 C 1.328125 -1.503906 1.460938 -1.28125 1.640625 -1.09375 C 1.816406 -0.90625 2.03125 -0.765625 2.28125 -0.671875 C 2.539062 -0.578125 2.828125 -0.53125 3.140625 -0.53125 C 3.390625 -0.53125 3.609375 -0.554688 3.796875 -0.609375 C 3.992188 -0.660156 4.1875 -0.738281 4.375 -0.84375 L 4.375 -2.015625 L 3.53125 -2.015625 C 3.488281 -2.015625 3.453125 -2.023438 3.421875 -2.046875 C 3.390625 -2.078125 3.375 -2.113281 3.375 -2.15625 L 3.375 -2.5625 Z M 5.015625 -2.5625 "/></g></g></g><g fill="#69b3e3" fill-opacity="1"><g transform="translate(191.276549, 44.751476)"><g><path d="M 2.6875 -2.125 L 2.6875 0 L 1.96875 0 L 1.96875 -2.125 L 0 -5.34375 L 0.640625 -5.34375 C 0.703125 -5.34375 0.75 -5.328125 0.78125 -5.296875 C 0.820312 -5.265625 0.859375 -5.222656 0.890625 -5.171875 L 2.109375 -3.09375 C 2.160156 -3.007812 2.203125 -2.925781 2.234375 -2.84375 C 2.273438 -2.769531 2.304688 -2.695312 2.328125 -2.625 C 2.359375 -2.695312 2.390625 -2.769531 2.421875 -2.84375 C 2.460938 -2.925781 2.503906 -3.007812 2.546875 -3.09375 L 3.765625 -5.171875 C 3.785156 -5.210938 3.8125 -5.25 3.84375 -5.28125 C 3.882812 -5.320312 3.9375 -5.34375 4 -5.34375 L 4.640625 -5.34375 Z M 2.6875 -2.125 "/></g></g></g><g fill="#69b3e3" fill-opacity="1"><g transform="translate(200.838111, 44.751476)"><g/></g></g><g fill="#69b3e3" fill-opacity="1"><g transform="translate(207.657143, 44.751476)"><g><path d="M 3.40625 -4.5 C 3.382812 -4.46875 3.359375 -4.441406 3.328125 -4.421875 C 3.304688 -4.398438 3.28125 -4.390625 3.25 -4.390625 C 3.207031 -4.390625 3.15625 -4.410156 3.09375 -4.453125 C 3.039062 -4.492188 2.96875 -4.539062 2.875 -4.59375 C 2.789062 -4.644531 2.6875 -4.691406 2.5625 -4.734375 C 2.445312 -4.773438 2.304688 -4.796875 2.140625 -4.796875 C 1.972656 -4.796875 1.828125 -4.773438 1.703125 -4.734375 C 1.585938 -4.691406 1.488281 -4.632812 1.40625 -4.5625 C 1.320312 -4.488281 1.253906 -4.398438 1.203125 -4.296875 C 1.160156 -4.191406 1.140625 -4.082031 1.140625 -3.96875 C 1.140625 -3.820312 1.175781 -3.695312 1.25 -3.59375 C 1.332031 -3.5 1.429688 -3.414062 1.546875 -3.34375 C 1.671875 -3.269531 1.804688 -3.207031 1.953125 -3.15625 C 2.109375 -3.113281 2.265625 -3.0625 2.421875 -3 C 2.585938 -2.945312 2.742188 -2.882812 2.890625 -2.8125 C 3.046875 -2.75 3.179688 -2.664062 3.296875 -2.5625 C 3.421875 -2.457031 3.519531 -2.328125 3.59375 -2.171875 C 3.664062 -2.023438 3.703125 -1.84375 3.703125 -1.625 C 3.703125 -1.382812 3.660156 -1.160156 3.578125 -0.953125 C 3.503906 -0.753906 3.390625 -0.578125 3.234375 -0.421875 C 3.085938 -0.273438 2.898438 -0.15625 2.671875 -0.0625 C 2.453125 0.0195312 2.203125 0.0625 1.921875 0.0625 C 1.566406 0.0625 1.25 0 0.96875 -0.125 C 0.6875 -0.25 0.445312 -0.421875 0.25 -0.640625 L 0.453125 -0.984375 C 0.472656 -1.003906 0.492188 -1.023438 0.515625 -1.046875 C 0.546875 -1.066406 0.582031 -1.078125 0.625 -1.078125 C 0.65625 -1.078125 0.691406 -1.0625 0.734375 -1.03125 C 0.773438 -1.007812 0.820312 -0.976562 0.875 -0.9375 C 0.925781 -0.894531 0.984375 -0.847656 1.046875 -0.796875 C 1.117188 -0.753906 1.195312 -0.710938 1.28125 -0.671875 C 1.363281 -0.640625 1.457031 -0.609375 1.5625 -0.578125 C 1.675781 -0.554688 1.800781 -0.546875 1.9375 -0.546875 C 2.113281 -0.546875 2.265625 -0.566406 2.390625 -0.609375 C 2.523438 -0.660156 2.640625 -0.726562 2.734375 -0.8125 C 2.828125 -0.894531 2.898438 -0.992188 2.953125 -1.109375 C 3.003906 -1.234375 3.03125 -1.367188 3.03125 -1.515625 C 3.03125 -1.679688 2.992188 -1.8125 2.921875 -1.90625 C 2.847656 -2.007812 2.75 -2.097656 2.625 -2.171875 C 2.507812 -2.242188 2.375 -2.300781 2.21875 -2.34375 C 2.0625 -2.394531 1.90625 -2.445312 1.75 -2.5 C 1.59375 -2.550781 1.4375 -2.609375 1.28125 -2.671875 C 1.125 -2.742188 0.984375 -2.832031 0.859375 -2.9375 C 0.742188 -3.039062 0.648438 -3.171875 0.578125 -3.328125 C 0.503906 -3.492188 0.46875 -3.695312 0.46875 -3.9375 C 0.46875 -4.125 0.503906 -4.304688 0.578125 -4.484375 C 0.648438 -4.660156 0.753906 -4.816406 0.890625 -4.953125 C 1.035156 -5.085938 1.210938 -5.195312 1.421875 -5.28125 C 1.628906 -5.363281 1.863281 -5.40625 2.125 -5.40625 C 2.425781 -5.40625 2.695312 -5.351562 2.9375 -5.25 C 3.1875 -5.15625 3.40625 -5.019531 3.59375 -4.84375 Z M 3.40625 -4.5 "/></g></g></g><g fill="#69b3e3" fill-opacity="1"><g transform="translate(216.611322, 44.751476)"><g><path d="M 5.609375 -2.671875 C 5.609375 -2.265625 5.546875 -1.894531 5.421875 -1.5625 C 5.296875 -1.226562 5.117188 -0.941406 4.890625 -0.703125 C 4.660156 -0.460938 4.378906 -0.273438 4.046875 -0.140625 C 3.722656 -0.00390625 3.367188 0.0625 2.984375 0.0625 C 2.585938 0.0625 2.226562 -0.00390625 1.90625 -0.140625 C 1.582031 -0.273438 1.304688 -0.460938 1.078125 -0.703125 C 0.847656 -0.941406 0.664062 -1.226562 0.53125 -1.5625 C 0.40625 -1.894531 0.34375 -2.265625 0.34375 -2.671875 C 0.34375 -3.066406 0.40625 -3.429688 0.53125 -3.765625 C 0.664062 -4.097656 0.847656 -4.382812 1.078125 -4.625 C 1.304688 -4.875 1.582031 -5.066406 1.90625 -5.203125 C 2.226562 -5.335938 2.585938 -5.40625 2.984375 -5.40625 C 3.367188 -5.40625 3.722656 -5.335938 4.046875 -5.203125 C 4.378906 -5.066406 4.660156 -4.875 4.890625 -4.625 C 5.117188 -4.382812 5.296875 -4.097656 5.421875 -3.765625 C 5.546875 -3.429688 5.609375 -3.066406 5.609375 -2.671875 Z M 4.875 -2.671875 C 4.875 -2.992188 4.828125 -3.285156 4.734375 -3.546875 C 4.648438 -3.804688 4.523438 -4.023438 4.359375 -4.203125 C 4.191406 -4.390625 3.988281 -4.53125 3.75 -4.625 C 3.519531 -4.726562 3.265625 -4.78125 2.984375 -4.78125 C 2.691406 -4.78125 2.429688 -4.726562 2.203125 -4.625 C 1.972656 -4.53125 1.773438 -4.390625 1.609375 -4.203125 C 1.441406 -4.023438 1.3125 -3.804688 1.21875 -3.546875 C 1.132812 -3.285156 1.09375 -2.992188 1.09375 -2.671875 C 1.09375 -2.335938 1.132812 -2.039062 1.21875 -1.78125 C 1.3125 -1.519531 1.441406 -1.300781 1.609375 -1.125 C 1.773438 -0.945312 1.972656 -0.804688 2.203125 -0.703125 C 2.429688 -0.609375 2.691406 -0.5625 2.984375 -0.5625 C 3.265625 -0.5625 3.519531 -0.609375 3.75 -0.703125 C 3.988281 -0.804688 4.191406 -0.945312 4.359375 -1.125 C 4.523438 -1.300781 4.648438 -1.519531 4.734375 -1.78125 C 4.828125 -2.039062 4.875 -2.335938 4.875 -2.671875 Z M 4.875 -2.671875 "/></g></g></g><g fill="#69b3e3" fill-opacity="1"><g transform="translate(227.488254, 44.751476)"><g><path d="M 3.71875 -0.609375 L 3.71875 0 L 0.6875 0 L 0.6875 -5.34375 L 1.40625 -5.34375 L 1.40625 -0.609375 Z M 3.71875 -0.609375 "/></g></g></g><g fill="#69b3e3" fill-opacity="1"><g transform="translate(236.226315, 44.751476)"><g><path d="M 2.75 -0.578125 C 2.96875 -0.578125 3.160156 -0.613281 3.328125 -0.6875 C 3.503906 -0.757812 3.648438 -0.863281 3.765625 -1 C 3.890625 -1.132812 3.984375 -1.296875 4.046875 -1.484375 C 4.109375 -1.671875 4.140625 -1.875 4.140625 -2.09375 L 4.140625 -5.34375 L 4.859375 -5.34375 L 4.859375 -2.09375 C 4.859375 -1.78125 4.8125 -1.492188 4.71875 -1.234375 C 4.625 -0.972656 4.484375 -0.742188 4.296875 -0.546875 C 4.117188 -0.359375 3.894531 -0.207031 3.625 -0.09375 C 3.363281 0.0078125 3.070312 0.0625 2.75 0.0625 C 2.414062 0.0625 2.113281 0.0078125 1.84375 -0.09375 C 1.582031 -0.207031 1.359375 -0.359375 1.171875 -0.546875 C 0.992188 -0.742188 0.851562 -0.972656 0.75 -1.234375 C 0.65625 -1.492188 0.609375 -1.78125 0.609375 -2.09375 L 0.609375 -5.34375 L 1.328125 -5.34375 L 1.328125 -2.09375 C 1.328125 -1.875 1.359375 -1.671875 1.421875 -1.484375 C 1.492188 -1.296875 1.585938 -1.132812 1.703125 -1 C 1.828125 -0.863281 1.972656 -0.757812 2.140625 -0.6875 C 2.316406 -0.613281 2.519531 -0.578125 2.75 -0.578125 Z M 2.75 -0.578125 "/></g></g></g><g fill="#69b3e3" fill-opacity="1"><g transform="translate(246.618837, 44.751476)"><g><path d="M 4.296875 -4.734375 L 2.5625 -4.734375 L 2.5625 0 L 1.84375 0 L 1.84375 -4.734375 L 0.109375 -4.734375 L 0.109375 -5.34375 L 4.296875 -5.34375 Z M 4.296875 -4.734375 "/></g></g></g><g fill="#69b3e3" fill-opacity="1"><g transform="translate(255.930736, 44.751476)"><g><path d="M 1.40625 0 L 0.6875 0 L 0.6875 -5.34375 L 1.40625 -5.34375 Z M 1.40625 0 "/></g></g></g><g fill="#69b3e3" fill-opacity="1"><g transform="translate(262.928624, 44.751476)"><g><path d="M 5.609375 -2.671875 C 5.609375 -2.265625 5.546875 -1.894531 5.421875 -1.5625 C 5.296875 -1.226562 5.117188 -0.941406 4.890625 -0.703125 C 4.660156 -0.460938 4.378906 -0.273438 4.046875 -0.140625 C 3.722656 -0.00390625 3.367188 0.0625 2.984375 0.0625 C 2.585938 0.0625 2.226562 -0.00390625 1.90625 -0.140625 C 1.582031 -0.273438 1.304688 -0.460938 1.078125 -0.703125 C 0.847656 -0.941406 0.664062 -1.226562 0.53125 -1.5625 C 0.40625 -1.894531 0.34375 -2.265625 0.34375 -2.671875 C 0.34375 -3.066406 0.40625 -3.429688 0.53125 -3.765625 C 0.664062 -4.097656 0.847656 -4.382812 1.078125 -4.625 C 1.304688 -4.875 1.582031 -5.066406 1.90625 -5.203125 C 2.226562 -5.335938 2.585938 -5.40625 2.984375 -5.40625 C 3.367188 -5.40625 3.722656 -5.335938 4.046875 -5.203125 C 4.378906 -5.066406 4.660156 -4.875 4.890625 -4.625 C 5.117188 -4.382812 5.296875 -4.097656 5.421875 -3.765625 C 5.546875 -3.429688 5.609375 -3.066406 5.609375 -2.671875 Z M 4.875 -2.671875 C 4.875 -2.992188 4.828125 -3.285156 4.734375 -3.546875 C 4.648438 -3.804688 4.523438 -4.023438 4.359375 -4.203125 C 4.191406 -4.390625 3.988281 -4.53125 3.75 -4.625 C 3.519531 -4.726562 3.265625 -4.78125 2.984375 -4.78125 C 2.691406 -4.78125 2.429688 -4.726562 2.203125 -4.625 C 1.972656 -4.53125 1.773438 -4.390625 1.609375 -4.203125 C 1.441406 -4.023438 1.3125 -3.804688 1.21875 -3.546875 C 1.132812 -3.285156 1.09375 -2.992188 1.09375 -2.671875 C 1.09375 -2.335938 1.132812 -2.039062 1.21875 -1.78125 C 1.3125 -1.519531 1.441406 -1.300781 1.609375 -1.125 C 1.773438 -0.945312 1.972656 -0.804688 2.203125 -0.703125 C 2.429688 -0.609375 2.691406 -0.5625 2.984375 -0.5625 C 3.265625 -0.5625 3.519531 -0.609375 3.75 -0.703125 C 3.988281 -0.804688 4.191406 -0.945312 4.359375 -1.125 C 4.523438 -1.300781 4.648438 -1.519531 4.734375 -1.78125 C 4.828125 -2.039062 4.875 -2.335938 4.875 -2.671875 Z M 4.875 -2.671875 "/></g></g></g><g fill="#69b3e3" fill-opacity="1"><g transform="translate(273.805556, 44.751476)"><g><path d="M 5.015625 -5.34375 L 5.015625 0 L 4.640625 0 C 4.585938 0 4.539062 -0.0078125 4.5 -0.03125 C 4.46875 -0.0507812 4.429688 -0.0820312 4.390625 -0.125 L 1.296875 -4.15625 C 1.304688 -4.09375 1.3125 -4.03125 1.3125 -3.96875 C 1.3125 -3.914062 1.3125 -3.863281 1.3125 -3.8125 L 1.3125 0 L 0.6875 0 L 0.6875 -5.34375 L 1.046875 -5.34375 C 1.085938 -5.34375 1.117188 -5.335938 1.140625 -5.328125 C 1.160156 -5.328125 1.175781 -5.320312 1.1875 -5.3125 C 1.207031 -5.300781 1.226562 -5.285156 1.25 -5.265625 C 1.269531 -5.253906 1.285156 -5.238281 1.296875 -5.21875 L 4.390625 -1.203125 C 4.390625 -1.265625 4.382812 -1.320312 4.375 -1.375 C 4.375 -1.4375 4.375 -1.5 4.375 -1.5625 L 4.375 -5.34375 Z M 5.015625 -5.34375 "/></g></g></g><g fill="#69b3e3" fill-opacity="1"><g transform="translate(284.406746, 44.751476)"><g><path d="M 3.40625 -4.5 C 3.382812 -4.46875 3.359375 -4.441406 3.328125 -4.421875 C 3.304688 -4.398438 3.28125 -4.390625 3.25 -4.390625 C 3.207031 -4.390625 3.15625 -4.410156 3.09375 -4.453125 C 3.039062 -4.492188 2.96875 -4.539062 2.875 -4.59375 C 2.789062 -4.644531 2.6875 -4.691406 2.5625 -4.734375 C 2.445312 -4.773438 2.304688 -4.796875 2.140625 -4.796875 C 1.972656 -4.796875 1.828125 -4.773438 1.703125 -4.734375 C 1.585938 -4.691406 1.488281 -4.632812 1.40625 -4.5625 C 1.320312 -4.488281 1.253906 -4.398438 1.203125 -4.296875 C 1.160156 -4.191406 1.140625 -4.082031 1.140625 -3.96875 C 1.140625 -3.820312 1.175781 -3.695312 1.25 -3.59375 C 1.332031 -3.5 1.429688 -3.414062 1.546875 -3.34375 C 1.671875 -3.269531 1.804688 -3.207031 1.953125 -3.15625 C 2.109375 -3.113281 2.265625 -3.0625 2.421875 -3 C 2.585938 -2.945312 2.742188 -2.882812 2.890625 -2.8125 C 3.046875 -2.75 3.179688 -2.664062 3.296875 -2.5625 C 3.421875 -2.457031 3.519531 -2.328125 3.59375 -2.171875 C 3.664062 -2.023438 3.703125 -1.84375 3.703125 -1.625 C 3.703125 -1.382812 3.660156 -1.160156 3.578125 -0.953125 C 3.503906 -0.753906 3.390625 -0.578125 3.234375 -0.421875 C 3.085938 -0.273438 2.898438 -0.15625 2.671875 -0.0625 C 2.453125 0.0195312 2.203125 0.0625 1.921875 0.0625 C 1.566406 0.0625 1.25 0 0.96875 -0.125 C 0.6875 -0.25 0.445312 -0.421875 0.25 -0.640625 L 0.453125 -0.984375 C 0.472656 -1.003906 0.492188 -1.023438 0.515625 -1.046875 C 0.546875 -1.066406 0.582031 -1.078125 0.625 -1.078125 C 0.65625 -1.078125 0.691406 -1.0625 0.734375 -1.03125 C 0.773438 -1.007812 0.820312 -0.976562 0.875 -0.9375 C 0.925781 -0.894531 0.984375 -0.847656 1.046875 -0.796875 C 1.117188 -0.753906 1.195312 -0.710938 1.28125 -0.671875 C 1.363281 -0.640625 1.457031 -0.609375 1.5625 -0.578125 C 1.675781 -0.554688 1.800781 -0.546875 1.9375 -0.546875 C 2.113281 -0.546875 2.265625 -0.566406 2.390625 -0.609375 C 2.523438 -0.660156 2.640625 -0.726562 2.734375 -0.8125 C 2.828125 -0.894531 2.898438 -0.992188 2.953125 -1.109375 C 3.003906 -1.234375 3.03125 -1.367188 3.03125 -1.515625 C 3.03125 -1.679688 2.992188 -1.8125 2.921875 -1.90625 C 2.847656 -2.007812 2.75 -2.097656 2.625 -2.171875 C 2.507812 -2.242188 2.375 -2.300781 2.21875 -2.34375 C 2.0625 -2.394531 1.90625 -2.445312 1.75 -2.5 C 1.59375 -2.550781 1.4375 -2.609375 1.28125 -2.671875 C 1.125 -2.742188 0.984375 -2.832031 0.859375 -2.9375 C 0.742188 -3.039062 0.648438 -3.171875 0.578125 -3.328125 C 0.503906 -3.492188 0.46875 -3.695312 0.46875 -3.9375 C 0.46875 -4.125 0.503906 -4.304688 0.578125 -4.484375 C 0.648438 -4.660156 0.753906 -4.816406 0.890625 -4.953125 C 1.035156 -5.085938 1.210938 -5.195312 1.421875 -5.28125 C 1.628906 -5.363281 1.863281 -5.40625 2.125 -5.40625 C 2.425781 -5.40625 2.695312 -5.351562 2.9375 -5.25 C 3.1875 -5.15625 3.40625 -5.019531 3.59375 -4.84375 Z M 3.40625 -4.5 "/></g></g></g><g fill="#0054a6" fill-opacity="1"><g transform="translate(102.062367, 67.556565)"><g><path d="M 5.960938 0 C 5.054688 0 4.222656 -0.222656 3.457031 -0.664062 C 2.695312 -1.105469 2.089844 -1.707031 1.644531 -2.472656 C 1.199219 -3.234375 0.976562 -4.070312 0.976562 -4.972656 C 0.976562 -5.875 1.199219 -6.710938 1.644531 -7.476562 C 2.089844 -8.238281 2.695312 -8.84375 3.457031 -9.292969 C 4.222656 -9.742188 5.054688 -9.964844 5.960938 -9.964844 L 10.695312 -9.964844 L 10.695312 -3.917969 C 10.695312 -3.285156 10.824219 -2.792969 11.082031 -2.4375 C 11.34375 -2.082031 11.734375 -1.902344 12.257812 -1.902344 L 12.835938 -1.902344 L 12.835938 0 L 12.257812 0 C 11.574219 0 11.003906 -0.160156 10.550781 -0.484375 C 10.09375 -0.804688 9.761719 -1.269531 9.546875 -1.875 C 9.15625 -1.277344 8.648438 -0.8125 8.023438 -0.488281 C 7.398438 -0.164062 6.710938 0 5.960938 0 Z M 5.960938 -1.902344 C 6.484375 -1.902344 6.960938 -2.027344 7.390625 -2.277344 C 7.820312 -2.527344 8.15625 -2.886719 8.40625 -3.355469 C 8.65625 -3.820312 8.78125 -4.367188 8.78125 -4.984375 L 8.78125 -8.0625 L 5.960938 -8.0625 C 5.402344 -8.0625 4.886719 -7.921875 4.417969 -7.644531 C 3.953125 -7.367188 3.578125 -6.992188 3.300781 -6.523438 C 3.019531 -6.054688 2.878906 -5.542969 2.878906 -4.984375 C 2.878906 -4.425781 3.019531 -3.910156 3.300781 -3.445312 C 3.578125 -2.976562 3.953125 -2.601562 4.417969 -2.320312 C 4.886719 -2.042969 5.402344 -1.902344 5.960938 -1.902344 Z M 4.542969 -11.0625 C 4.234375 -11.0625 3.964844 -11.175781 3.738281 -11.402344 C 3.511719 -11.628906 3.398438 -11.898438 3.398438 -12.207031 C 3.398438 -12.527344 3.511719 -12.800781 3.738281 -13.027344 C 3.964844 -13.253906 4.234375 -13.363281 4.542969 -13.363281 C 4.871094 -13.363281 5.144531 -13.253906 5.371094 -13.027344 C 5.597656 -12.800781 5.710938 -12.527344 5.710938 -12.207031 C 5.710938 -11.898438 5.597656 -11.628906 5.371094 -11.402344 C 5.144531 -11.175781 4.871094 -11.0625 4.542969 -11.0625 Z M 7.914062 -11.0625 C 7.601562 -11.0625 7.335938 -11.175781 7.105469 -11.402344 C 6.878906 -11.628906 6.765625 -11.898438 6.765625 -12.207031 C 6.765625 -12.535156 6.878906 -12.808594 7.105469 -13.03125 C 7.335938 -13.253906 7.601562 -13.363281 7.914062 -13.363281 C 8.242188 -13.363281 8.515625 -13.253906 8.738281 -13.03125 C 8.957031 -12.808594 9.070312 -12.535156 9.070312 -12.207031 C 9.070312 -11.898438 8.957031 -11.628906 8.738281 -11.402344 C 8.515625 -11.175781 8.242188 -11.0625 7.914062 -11.0625 Z M 7.914062 -11.0625 "/></g></g></g><g fill="#0054a6" fill-opacity="1"><g transform="translate(114.394632, 67.556565)"><g><path d="M -0.199219 -1.902344 L 1.105469 -1.902344 C 1.625 -1.902344 2.015625 -2.082031 2.277344 -2.4375 C 2.539062 -2.792969 2.671875 -3.285156 2.671875 -3.917969 L 2.671875 -9.957031 L 4.574219 -9.964844 L 4.574219 -3.917969 C 4.574219 -3.285156 4.707031 -2.792969 4.96875 -2.4375 C 5.230469 -2.082031 5.625 -1.902344 6.148438 -1.902344 L 7.464844 -1.902344 L 7.464844 0 L 6.148438 0 C 5.011719 0 4.171875 -0.453125 3.628906 -1.355469 C 3.070312 -0.453125 2.230469 0 1.105469 0 L -0.199219 0 Z M 1.945312 3.976562 C 1.632812 3.976562 1.367188 3.863281 1.136719 3.636719 C 0.910156 3.410156 0.796875 3.140625 0.796875 2.820312 C 0.796875 2.511719 0.910156 2.242188 1.136719 2.015625 C 1.363281 1.789062 1.632812 1.675781 1.945312 1.675781 C 2.261719 1.675781 2.535156 1.789062 2.761719 2.015625 C 2.988281 2.242188 3.097656 2.511719 3.097656 2.824219 C 3.097656 3.132812 2.984375 3.402344 2.753906 3.632812 C 2.527344 3.863281 2.257812 3.976562 1.945312 3.976562 Z M 5.324219 3.976562 C 5.011719 3.976562 4.742188 3.863281 4.515625 3.636719 C 4.289062 3.410156 4.175781 3.140625 4.175781 2.820312 C 4.175781 2.511719 4.289062 2.242188 4.515625 2.015625 C 4.742188 1.789062 5.011719 1.675781 5.324219 1.675781 C 5.636719 1.675781 5.90625 1.789062 6.132812 2.015625 C 6.363281 2.242188 6.476562 2.511719 6.476562 2.824219 C 6.476562 3.132812 6.363281 3.402344 6.132812 3.632812 C 5.90625 3.863281 5.636719 3.976562 5.324219 3.976562 Z M 5.324219 3.976562 "/></g></g></g><g fill="#0054a6" fill-opacity="1"><g transform="translate(121.367555, 67.556565)"><g><path d="M -0.199219 -1.902344 L 0.378906 -1.902344 C 0.898438 -1.902344 1.289062 -2.082031 1.550781 -2.4375 C 1.8125 -2.792969 1.945312 -3.285156 1.945312 -3.917969 L 1.945312 -9.964844 L 3.847656 -9.964844 L 3.847656 -3.917969 C 3.847656 -3.285156 3.976562 -2.792969 4.242188 -2.4375 C 4.503906 -2.082031 4.898438 -1.902344 5.421875 -1.902344 L 5.988281 -1.902344 L 5.988281 0 L 5.421875 0 C 4.285156 0 3.445312 -0.453125 2.898438 -1.355469 C 2.34375 -0.453125 1.5 0 0.378906 0 L -0.199219 0 Z M 2.898438 -11.0625 C 2.574219 -11.0625 2.296875 -11.179688 2.0625 -11.410156 C 1.832031 -11.644531 1.714844 -11.921875 1.714844 -12.25 C 1.714844 -12.582031 1.832031 -12.863281 2.0625 -13.097656 C 2.296875 -13.328125 2.574219 -13.445312 2.898438 -13.445312 C 3.234375 -13.445312 3.515625 -13.328125 3.746094 -13.097656 C 3.980469 -12.863281 4.097656 -12.582031 4.097656 -12.25 C 4.097656 -11.921875 3.980469 -11.644531 3.746094 -11.410156 C 3.515625 -11.179688 3.234375 -11.0625 2.898438 -11.0625 Z M 2.898438 -11.0625 "/></g></g></g><g fill="#0054a6" fill-opacity="1"><g transform="translate(126.866157, 67.556565)"><g><path d="M -0.199219 -1.902344 L 3.167969 -1.902344 C 2.636719 -2.277344 2.214844 -2.757812 1.898438 -3.347656 C 1.582031 -3.941406 1.425781 -4.585938 1.425781 -5.28125 C 1.425781 -6.128906 1.636719 -6.910156 2.058594 -7.625 C 2.480469 -8.34375 3.0625 -8.910156 3.800781 -9.332031 C 4.542969 -9.753906 5.363281 -9.964844 6.257812 -9.964844 C 7.1875 -9.964844 8.035156 -9.742188 8.796875 -9.289062 C 9.554688 -8.835938 10.152344 -8.222656 10.589844 -7.441406 C 11.023438 -6.660156 11.242188 -5.789062 11.242188 -4.832031 L 11.242188 -1.902344 L 13.1875 -1.902344 L 13.1875 0 L -0.199219 0 Z M 9.328125 -1.902344 L 9.328125 -4.984375 C 9.328125 -5.542969 9.191406 -6.058594 8.917969 -6.53125 C 8.644531 -7.003906 8.273438 -7.375 7.800781 -7.652344 C 7.332031 -7.925781 6.816406 -8.0625 6.261719 -8.0625 C 5.703125 -8.0625 5.1875 -7.925781 4.714844 -7.648438 C 4.242188 -7.375 3.867188 -7 3.59375 -6.527344 C 3.316406 -6.054688 3.179688 -5.539062 3.179688 -4.980469 C 3.179688 -4.425781 3.316406 -3.910156 3.59375 -3.4375 C 3.867188 -2.964844 4.242188 -2.59375 4.714844 -2.316406 C 5.1875 -2.042969 5.699219 -1.902344 6.257812 -1.902344 Z M 4.433594 -11.222656 C 4.125 -11.222656 3.855469 -11.335938 3.628906 -11.5625 C 3.402344 -11.789062 3.289062 -12.058594 3.289062 -12.367188 C 3.289062 -12.695312 3.402344 -12.96875 3.628906 -13.195312 C 3.855469 -13.421875 4.125 -13.535156 4.433594 -13.535156 C 4.753906 -13.535156 5.027344 -13.417969 5.253906 -13.191406 C 5.476562 -12.960938 5.589844 -12.6875 5.589844 -12.367188 C 5.589844 -12.058594 5.476562 -11.789062 5.253906 -11.5625 C 5.027344 -11.335938 4.753906 -11.222656 4.433594 -11.222656 Z M 8.023438 -11.222656 C 7.710938 -11.222656 7.445312 -11.335938 7.21875 -11.5625 C 6.992188 -11.789062 6.875 -12.058594 6.875 -12.367188 C 6.875 -12.695312 6.992188 -12.96875 7.21875 -13.195312 C 7.445312 -13.421875 7.710938 -13.535156 8.023438 -13.535156 C 8.34375 -13.535156 8.613281 -13.417969 8.839844 -13.191406 C 9.066406 -12.960938 9.179688 -12.6875 9.179688 -12.367188 C 9.179688 -12.058594 9.066406 -11.789062 8.839844 -11.5625 C 8.613281 -11.335938 8.34375 -11.222656 8.023438 -11.222656 Z M 8.023438 -11.222656 "/></g></g></g><g fill="#0054a6" fill-opacity="1"><g transform="translate(139.557041, 67.556565)"><g><path d="M -0.199219 -1.902344 L 1.105469 -1.902344 C 1.632812 -1.902344 2.023438 -2.082031 2.289062 -2.4375 C 2.550781 -2.792969 2.679688 -3.285156 2.679688 -3.917969 L 2.679688 -9.964844 L 4.585938 -9.964844 L 4.585938 -3.917969 C 4.585938 -3.285156 4.714844 -2.792969 4.976562 -2.4375 C 5.242188 -2.082031 5.632812 -1.902344 6.160156 -1.902344 L 7.464844 -1.902344 L 7.464844 0 L 6.160156 0 C 5.023438 0 4.183594 -0.453125 3.636719 -1.355469 C 3.078125 -0.453125 2.234375 0 1.105469 0 L -0.199219 0 Z M 1.972656 -11.0625 C 1.664062 -11.0625 1.394531 -11.175781 1.167969 -11.402344 C 0.941406 -11.628906 0.828125 -11.898438 0.828125 -12.207031 C 0.828125 -12.535156 0.941406 -12.808594 1.167969 -13.03125 C 1.394531 -13.253906 1.664062 -13.363281 1.972656 -13.363281 C 2.292969 -13.363281 2.566406 -13.253906 2.789062 -13.027344 C 3.015625 -12.800781 3.128906 -12.527344 3.128906 -12.207031 C 3.128906 -11.898438 3.015625 -11.628906 2.789062 -11.402344 C 2.566406 -11.175781 2.292969 -11.0625 1.972656 -11.0625 Z M 5.332031 -11.0625 C 5.023438 -11.0625 4.753906 -11.175781 4.527344 -11.402344 C 4.300781 -11.628906 4.1875 -11.898438 4.1875 -12.207031 C 4.1875 -12.535156 4.300781 -12.808594 4.527344 -13.03125 C 4.753906 -13.253906 5.023438 -13.363281 5.332031 -13.363281 C 5.660156 -13.363281 5.933594 -13.253906 6.15625 -13.03125 C 6.378906 -12.808594 6.488281 -12.535156 6.488281 -12.207031 C 6.488281 -11.898438 6.378906 -11.628906 6.15625 -11.402344 C 5.933594 -11.175781 5.660156 -11.0625 5.332031 -11.0625 Z M 5.332031 -11.0625 "/></g></g></g><g fill="#0054a6" fill-opacity="1"><g transform="translate(146.529965, 67.556565)"><g><path d="M -0.199219 -1.902344 L 0.339844 -1.902344 C 0.863281 -1.902344 1.253906 -2.082031 1.515625 -2.4375 C 1.773438 -2.792969 1.902344 -3.285156 1.902344 -3.917969 L 1.902344 -15.546875 L 3.816406 -15.546875 L 3.816406 -3.917969 C 3.816406 -3.132812 3.675781 -2.445312 3.398438 -1.859375 C 3.121094 -1.269531 2.71875 -0.8125 2.191406 -0.488281 C 1.667969 -0.164062 1.050781 0 0.339844 0 L -0.199219 0 Z M -0.199219 -1.902344 "/></g></g></g><g fill="#0054a6" fill-opacity="1"><g transform="translate(151.749643, 67.556565)"><g><path d="M 1.625 -15.546875 L 3.527344 -15.546875 L 3.527344 0 L 1.625 0 Z M 1.625 -15.546875 "/></g></g></g><g fill="#0054a6" fill-opacity="1"><g transform="translate(156.590784, 67.556565)"><g/></g></g><g fill="#0054a6" fill-opacity="1"><g transform="translate(161.73078, 67.556565)"><g><path d="M 6.320312 4.523438 C 5.308594 4.523438 4.398438 4.285156 3.589844 3.800781 C 2.777344 3.320312 2.140625 2.664062 1.675781 1.828125 C 1.210938 0.996094 0.976562 0.0703125 0.976562 -0.945312 L 0.976562 -7.972656 L 2.878906 -7.972656 L 2.878906 -0.945312 C 2.878906 -0.277344 3.027344 0.332031 3.320312 0.878906 C 3.609375 1.421875 4.019531 1.847656 4.539062 2.15625 C 5.0625 2.464844 5.65625 2.621094 6.320312 2.621094 C 7.34375 2.621094 8.171875 2.285156 8.804688 1.609375 C 9.441406 0.933594 9.757812 -0.109375 9.757812 -1.523438 L 9.757812 -15.546875 L 11.660156 -15.546875 L 11.660156 -1.523438 C 11.660156 -0.210938 11.425781 0.902344 10.953125 1.808594 C 10.480469 2.714844 9.84375 3.394531 9.035156 3.847656 C 8.226562 4.300781 7.320312 4.523438 6.320312 4.523438 Z M 6.320312 4.523438 "/></g></g></g><g fill="#0054a6" fill-opacity="1"><g transform="translate(174.720511, 67.556565)"><g><path d="M 6.070312 4.535156 C 5.230469 4.535156 4.433594 4.359375 3.671875 4.011719 C 2.910156 3.664062 2.296875 3.179688 1.824219 2.5625 L 3.167969 1.304688 C 3.480469 1.710938 3.898438 2.03125 4.421875 2.273438 C 4.941406 2.511719 5.480469 2.632812 6.039062 2.632812 C 6.617188 2.632812 7.125 2.507812 7.5625 2.261719 C 8.003906 2.015625 8.351562 1.691406 8.605469 1.285156 C 8.863281 0.878906 9.015625 0.453125 9.070312 0 L 6.230469 0 C 5.238281 0 4.34375 -0.21875 3.542969 -0.652344 C 2.742188 -1.089844 2.113281 -1.6875 1.660156 -2.457031 C 1.203125 -3.222656 0.976562 -4.082031 0.976562 -5.03125 C 0.976562 -5.933594 1.199219 -6.769531 1.644531 -7.539062 C 2.085938 -8.308594 2.691406 -8.914062 3.460938 -9.359375 C 4.230469 -9.804688 5.070312 -10.027344 5.980469 -10.027344 C 6.957031 -10.027344 7.824219 -9.796875 8.582031 -9.339844 C 9.339844 -8.878906 9.929688 -8.242188 10.355469 -7.425781 C 10.78125 -6.609375 10.992188 -5.675781 10.992188 -4.632812 L 10.992188 -1.902344 L 12.609375 -1.902344 L 12.609375 0 L 10.972656 0 C 10.894531 0.835938 10.644531 1.597656 10.230469 2.28125 C 9.816406 2.964844 9.25 3.511719 8.535156 3.921875 C 7.816406 4.332031 6.996094 4.535156 6.070312 4.535156 Z M 9.078125 -1.902344 L 9.078125 -4.785156 C 9.078125 -5.4375 8.949219 -6.015625 8.691406 -6.519531 C 8.433594 -7.023438 8.070312 -7.417969 7.601562 -7.699219 C 7.136719 -7.980469 6.59375 -8.121094 5.980469 -8.121094 C 5.414062 -8.121094 4.898438 -7.984375 4.425781 -7.710938 C 3.953125 -7.433594 3.578125 -7.058594 3.300781 -6.582031 C 3.019531 -6.109375 2.878906 -5.59375 2.878906 -5.039062 C 2.878906 -4.417969 3.023438 -3.871094 3.304688 -3.398438 C 3.585938 -2.925781 3.980469 -2.558594 4.488281 -2.296875 C 4.996094 -2.035156 5.578125 -1.902344 6.230469 -1.902344 Z M 9.078125 -1.902344 "/></g></g></g><g fill="#0054a6" fill-opacity="1"><g transform="translate(186.833615, 67.556565)"><g><path d="M -0.199219 -1.902344 L 0.378906 -1.902344 C 0.898438 -1.902344 1.289062 -2.082031 1.550781 -2.4375 C 1.8125 -2.792969 1.945312 -3.285156 1.945312 -3.917969 L 1.945312 -15.546875 L 3.847656 -15.546875 L 3.847656 -3.917969 C 3.847656 -3.285156 3.976562 -2.792969 4.242188 -2.4375 C 4.503906 -2.082031 4.898438 -1.902344 5.421875 -1.902344 L 5.988281 -1.902344 L 5.988281 0 L 5.421875 0 C 4.285156 0 3.445312 -0.453125 2.898438 -1.355469 C 2.34375 -0.453125 1.5 0 0.378906 0 L -0.199219 0 Z M -0.199219 -1.902344 "/></g></g></g><g fill="#0054a6" fill-opacity="1"><g transform="translate(192.332219, 67.556565)"><g><path d="M -0.199219 -1.902344 L 10.34375 -1.902344 L 10.335938 -3.289062 C 10.328125 -4.253906 10.125 -5.09375 9.722656 -5.808594 C 9.320312 -6.527344 8.761719 -7.082031 8.042969 -7.476562 C 7.324219 -7.867188 6.488281 -8.0625 5.53125 -8.0625 L 1.496094 -8.0625 L 1.496094 -9.964844 L 5.632812 -9.964844 C 6.878906 -9.964844 8.003906 -9.6875 9.003906 -9.132812 C 10.003906 -8.578125 10.792969 -7.800781 11.367188 -6.796875 C 11.941406 -5.792969 12.230469 -4.65625 12.238281 -3.378906 L 12.25 -1.902344 L 13.933594 -1.902344 L 13.941406 0 L -0.199219 0 Z M -0.199219 -1.902344 "/></g></g></g><g fill="#0054a6" fill-opacity="1"><g transform="translate(205.780189, 67.556565)"><g><path d="M -0.199219 -1.902344 L 0.378906 -1.902344 C 0.898438 -1.902344 1.289062 -2.082031 1.550781 -2.4375 C 1.8125 -2.792969 1.945312 -3.285156 1.945312 -3.917969 L 1.945312 -15.546875 L 3.847656 -15.546875 L 3.847656 -3.917969 C 3.847656 -3.285156 3.976562 -2.792969 4.242188 -2.4375 C 4.503906 -2.082031 4.898438 -1.902344 5.421875 -1.902344 L 5.988281 -1.902344 L 5.988281 0 L 5.421875 0 C 4.285156 0 3.445312 -0.453125 2.898438 -1.355469 C 2.34375 -0.453125 1.5 0 0.378906 0 L -0.199219 0 Z M -0.199219 -1.902344 "/></g></g></g><g fill="#0054a6" fill-opacity="1"><g transform="translate(211.278788, 67.556565)"><g><path d="M -0.199219 -1.902344 L 0.339844 -1.902344 C 0.863281 -1.902344 1.253906 -2.082031 1.515625 -2.4375 C 1.773438 -2.792969 1.902344 -3.285156 1.902344 -3.917969 L 1.902344 -15.546875 L 3.816406 -15.546875 L 3.816406 -3.917969 C 3.816406 -3.132812 3.675781 -2.445312 3.398438 -1.859375 C 3.121094 -1.269531 2.71875 -0.8125 2.191406 -0.488281 C 1.667969 -0.164062 1.050781 0 0.339844 0 L -0.199219 0 Z M -0.199219 -1.902344 "/></g></g></g><g fill="#0054a6" fill-opacity="1"><g transform="translate(216.498463, 67.556565)"><g/></g></g><g fill="#0054a6" fill-opacity="1"><g transform="translate(221.638454, 67.556565)"><g><path d="M 6.03125 4.523438 C 5.046875 4.523438 4.175781 4.292969 3.417969 3.828125 C 2.660156 3.363281 2.070312 2.6875 1.644531 1.804688 C 1.21875 0.921875 1.007812 -0.121094 1.007812 -1.316406 L 1.007812 -7.972656 L 2.921875 -7.972656 L 2.921875 -1.316406 C 2.921875 -0.0546875 3.199219 0.917969 3.753906 1.601562 C 4.308594 2.28125 5.066406 2.621094 6.03125 2.621094 C 7 2.621094 7.761719 2.28125 8.316406 1.601562 C 8.871094 0.917969 9.148438 -0.0546875 9.148438 -1.316406 L 9.148438 -9.964844 L 11.054688 -9.964844 L 11.054688 -4.1875 C 11.054688 -3.460938 11.226562 -2.898438 11.574219 -2.5 C 11.925781 -2.101562 12.363281 -1.902344 12.898438 -1.902344 C 13.429688 -1.902344 13.867188 -2.101562 14.21875 -2.5 C 14.566406 -2.898438 14.742188 -3.460938 14.742188 -4.1875 L 14.742188 -9.964844 L 16.652344 -9.964844 L 16.652344 -4.1875 C 16.652344 -3.460938 16.828125 -2.898438 17.175781 -2.5 C 17.527344 -2.101562 17.964844 -1.902344 18.496094 -1.902344 C 19.03125 -1.902344 19.46875 -2.101562 19.820312 -2.5 C 20.167969 -2.898438 20.339844 -3.460938 20.339844 -4.1875 L 20.339844 -10.566406 L 22.246094 -10.566406 L 22.246094 -4.1875 C 22.246094 -3.347656 22.082031 -2.613281 21.75 -1.976562 C 21.421875 -1.34375 20.972656 -0.855469 20.402344 -0.511719 C 19.828125 -0.171875 19.195312 0 18.496094 0 C 17.90625 0 17.375 -0.136719 16.898438 -0.410156 C 16.421875 -0.679688 16.042969 -1.066406 15.757812 -1.566406 C 15.484375 -1.066406 15.121094 -0.679688 14.664062 -0.410156 C 14.210938 -0.136719 13.699219 0 13.125 0 C 12.707031 0 12.320312 -0.0859375 11.960938 -0.253906 C 11.601562 -0.421875 11.296875 -0.671875 11.042969 -0.996094 C 11.003906 0.144531 10.765625 1.132812 10.332031 1.964844 C 9.894531 2.792969 9.308594 3.429688 8.566406 3.867188 C 7.824219 4.304688 6.980469 4.523438 6.03125 4.523438 Z M 6.03125 4.523438 "/></g></g></g><g fill="#0054a6" fill-opacity="1"><g transform="translate(244.868714, 67.556565)"><g><path d="M 0.0507812 4.535156 C -0.15625 4.535156 -0.390625 4.511719 -0.65625 4.46875 C -0.921875 4.425781 -1.152344 4.371094 -1.34375 4.304688 L -0.816406 2.523438 C -0.570312 2.613281 -0.300781 2.660156 0 2.660156 C 0.730469 2.660156 1.253906 2.445312 1.574219 2.019531 C 1.894531 1.589844 2.054688 0.976562 2.054688 0.179688 L 2.054688 -9.964844 L 3.957031 -9.976562 L 3.957031 -1.902344 L 6.148438 -1.902344 L 6.148438 0 L 3.957031 0 L 3.957031 0.558594 C 3.957031 1.34375 3.820312 2.03125 3.554688 2.621094 C 3.285156 3.210938 2.855469 3.679688 2.273438 4.019531 C 1.6875 4.363281 0.945312 4.535156 0.0507812 4.535156 Z M 2.980469 -11.0625 C 2.65625 -11.0625 2.375 -11.179688 2.144531 -11.410156 C 1.910156 -11.644531 1.792969 -11.925781 1.792969 -12.257812 C 1.792969 -12.589844 1.910156 -12.871094 2.144531 -13.101562 C 2.375 -13.332031 2.65625 -13.445312 2.980469 -13.445312 C 3.3125 -13.445312 3.59375 -13.328125 3.828125 -13.097656 C 4.058594 -12.863281 4.175781 -12.585938 4.175781 -12.257812 C 4.175781 -11.933594 4.058594 -11.652344 3.828125 -11.417969 C 3.59375 -11.179688 3.3125 -11.0625 2.980469 -11.0625 Z M 2.980469 -11.0625 "/></g></g></g><g fill="#0054a6" fill-opacity="1"><g transform="translate(250.526707, 67.556565)"><g><path d="M -0.199219 -1.902344 L 10.136719 -1.902344 L 10.125 -3.289062 C 10.121094 -4.253906 9.914062 -5.09375 9.511719 -5.808594 C 9.109375 -6.527344 8.550781 -7.082031 7.832031 -7.476562 C 7.117188 -7.867188 6.277344 -8.0625 5.320312 -8.0625 L 1.425781 -8.0625 L 1.425781 -9.964844 L 7.722656 -15.546875 L 10.296875 -15.546875 L 3.917969 -9.964844 L 5.421875 -9.964844 C 6.671875 -9.964844 7.796875 -9.6875 8.796875 -9.132812 C 9.796875 -8.578125 10.582031 -7.800781 11.15625 -6.796875 C 11.730469 -5.792969 12.023438 -4.65625 12.03125 -3.378906 L 12.039062 -1.902344 L 13.914062 -1.902344 L 13.914062 0 L -0.199219 0 Z M -0.199219 -1.902344 "/></g></g></g><g fill="#0054a6" fill-opacity="1"><g transform="translate(263.934828, 67.556565)"><g><path d="M -0.199219 -1.902344 L 0.339844 -1.902344 C 0.863281 -1.902344 1.253906 -2.082031 1.515625 -2.4375 C 1.773438 -2.792969 1.902344 -3.285156 1.902344 -3.917969 L 1.902344 -9.964844 L 3.816406 -9.964844 L 3.816406 -3.917969 C 3.816406 -3.132812 3.675781 -2.445312 3.398438 -1.859375 C 3.121094 -1.269531 2.71875 -0.8125 2.191406 -0.488281 C 1.667969 -0.164062 1.050781 0 0.339844 0 L -0.199219 0 Z M 2.78125 -11.0625 C 2.457031 -11.0625 2.175781 -11.179688 1.949219 -11.410156 C 1.71875 -11.644531 1.605469 -11.925781 1.605469 -12.257812 C 1.605469 -12.589844 1.71875 -12.871094 1.949219 -13.101562 C 2.175781 -13.332031 2.457031 -13.445312 2.78125 -13.445312 C 3.113281 -13.445312 3.398438 -13.328125 3.632812 -13.097656 C 3.867188 -12.863281 3.988281 -12.585938 3.988281 -12.257812 C 3.988281 -11.933594 3.867188 -11.652344 3.632812 -11.417969 C 3.398438 -11.179688 3.113281 -11.0625 2.78125 -11.0625 Z M 2.78125 -11.0625 "/></g></g></g><g fill="#0054a6" fill-opacity="1"><g transform="translate(268.477119, 67.556565)"><g/></g></g><g fill="#0054a6" fill-opacity="1"><g transform="translate(273.617109, 67.556565)"><g><path d="M 6.9375 0 C 5.660156 0 4.578125 -0.230469 3.6875 -0.6875 C 2.796875 -1.144531 2.121094 -1.8125 1.664062 -2.6875 C 1.207031 -3.558594 0.976562 -4.617188 0.976562 -5.859375 L 0.976562 -7.972656 L 2.878906 -7.972656 L 2.878906 -5.859375 C 2.878906 -4.53125 3.210938 -3.539062 3.878906 -2.886719 C 4.542969 -2.230469 5.5625 -1.902344 6.9375 -1.902344 L 10.277344 -1.902344 C 10.886719 -1.902344 11.351562 -2.097656 11.671875 -2.488281 C 11.988281 -2.875 12.148438 -3.449219 12.148438 -4.207031 L 12.148438 -15.546875 L 14.054688 -15.546875 L 14.054688 -3.917969 C 14.054688 -3.285156 14.183594 -2.792969 14.445312 -2.4375 C 14.707031 -2.082031 15.101562 -1.902344 15.628906 -1.902344 L 16.195312 -1.902344 L 16.195312 0 L 15.628906 0 C 14.984375 0 14.460938 -0.128906 14.0625 -0.382812 C 13.664062 -0.640625 13.34375 -1.003906 13.105469 -1.476562 C 12.867188 -1.015625 12.511719 -0.65625 12.039062 -0.394531 C 11.566406 -0.132812 10.980469 0 10.277344 0 Z M 5.761719 -6.71875 L 6.609375 -6.71875 C 6.347656 -6.988281 6.21875 -7.316406 6.21875 -7.695312 C 6.21875 -8.140625 6.378906 -8.511719 6.699219 -8.816406 C 7.015625 -9.117188 7.40625 -9.269531 7.863281 -9.269531 C 8.121094 -9.269531 8.367188 -9.214844 8.597656 -9.105469 C 8.824219 -8.996094 9.023438 -8.847656 9.1875 -8.660156 L 8.621094 -8.113281 C 8.429688 -8.324219 8.183594 -8.433594 7.882812 -8.433594 C 7.644531 -8.433594 7.441406 -8.355469 7.277344 -8.199219 C 7.109375 -8.042969 7.027344 -7.84375 7.027344 -7.605469 C 7.027344 -7.367188 7.109375 -7.15625 7.28125 -6.980469 C 7.449219 -6.804688 7.652344 -6.71875 7.882812 -6.71875 L 9.386719 -6.71875 L 9.386719 -5.878906 L 5.761719 -5.878906 Z M 5.761719 -6.71875 "/></g></g></g><g fill="#0054a6" fill-opacity="1"><g transform="translate(289.435928, 67.556565)"><g><path d="M -0.199219 -1.902344 L 0.976562 -1.902344 C 1.507812 -1.902344 1.910156 -2.082031 2.1875 -2.441406 C 2.464844 -2.800781 2.601562 -3.292969 2.601562 -3.917969 L 2.601562 -9.964844 L 4.515625 -9.964844 L 4.515625 -3.917969 C 4.515625 -3.140625 4.367188 -2.457031 4.078125 -1.863281 C 3.785156 -1.273438 3.371094 -0.8125 2.839844 -0.488281 C 2.308594 -0.164062 1.6875 0 0.976562 0 L -0.199219 0 Z M 1.855469 -11.0625 C 1.542969 -11.0625 1.273438 -11.175781 1.046875 -11.402344 C 0.820312 -11.628906 0.707031 -11.898438 0.707031 -12.207031 C 0.707031 -12.527344 0.820312 -12.800781 1.046875 -13.027344 C 1.273438 -13.253906 1.542969 -13.363281 1.855469 -13.363281 C 2.179688 -13.363281 2.457031 -13.253906 2.679688 -13.027344 C 2.90625 -12.800781 3.019531 -12.527344 3.019531 -12.207031 C 3.019531 -11.898438 2.90625 -11.628906 2.679688 -11.402344 C 2.457031 -11.175781 2.179688 -11.0625 1.855469 -11.0625 Z M 5.222656 -11.0625 C 4.910156 -11.0625 4.644531 -11.175781 4.417969 -11.402344 C 4.191406 -11.628906 4.078125 -11.898438 4.078125 -12.207031 C 4.078125 -12.535156 4.191406 -12.808594 4.417969 -13.03125 C 4.644531 -13.253906 4.910156 -13.363281 5.222656 -13.363281 C 5.550781 -13.363281 5.824219 -13.253906 6.046875 -13.03125 C 6.269531 -12.808594 6.378906 -12.535156 6.378906 -12.207031 C 6.378906 -11.898438 6.269531 -11.628906 6.046875 -11.402344 C 5.824219 -11.175781 5.550781 -11.0625 5.222656 -11.0625 Z M 5.222656 -11.0625 "/></g></g></g></svg>