<svg xmlns="http://www.w3.org/2000/svg" xmlns:xlink="http://www.w3.org/1999/xlink" width="500" zoomAndPan="magnify" viewBox="0 0 375 71.249999" height="95" preserveAspectRatio="xMidYMid meet" version="1.0"><defs><g/></defs><path fill="#004aad" d="M 79.320312 64.773438 C 81.761719 60.53125 80.3125 55.105469 76.085938 52.65625 C 71.863281 50.207031 66.457031 51.660156 64.019531 55.90625 C 63.535156 56.746094 63.203125 57.632812 63.019531 58.535156 L 51.449219 58.535156 C 51.0625 56.683594 50.09375 54.964844 48.617188 53.675781 L 54.394531 43.628906 C 58.3125 44.972656 62.753906 43.402344 64.902344 39.667969 C 67.339844 35.425781 65.894531 30 61.667969 27.550781 C 59.277344 26.167969 56.511719 26.03125 54.117188 26.941406 L 48.40625 17.011719 C 49.21875 16.347656 49.925781 15.527344 50.480469 14.5625 C 52.921875 10.320312 51.476562 4.894531 47.25 2.445312 C 43.023438 -0.00390625 37.621094 1.449219 35.179688 5.691406 C 32.742188 9.933594 34.1875 15.359375 38.414062 17.808594 C 40.613281 19.082031 43.128906 19.300781 45.382812 18.617188 L 51.214844 28.753906 C 50.59375 29.335938 50.046875 30.019531 49.601562 30.796875 C 49.085938 31.691406 48.746094 32.640625 48.5625 33.601562 L 37.0625 33.601562 C 36.601562 31.152344 35.121094 28.914062 32.800781 27.566406 C 28.574219 25.117188 23.171875 26.574219 20.730469 30.8125 C 18.585938 34.546875 19.449219 39.199219 22.566406 41.929688 L 16.789062 51.976562 C 12.875 50.628906 8.433594 52.203125 6.285156 55.9375 C 3.84375 60.179688 5.292969 65.605469 9.519531 68.050781 C 13.746094 70.5 19.148438 69.046875 21.585938 64.804688 C 23.734375 61.070312 22.871094 56.421875 19.75 53.691406 L 25.527344 43.644531 C 27.433594 44.300781 29.460938 44.261719 31.289062 43.625 L 37.042969 53.625 C 36.304688 54.261719 35.664062 55.027344 35.152344 55.917969 C 32.710938 60.164062 34.160156 65.585938 38.386719 68.035156 C 42.609375 70.484375 48.015625 69.03125 50.453125 64.789062 C 50.972656 63.886719 51.316406 62.933594 51.492188 61.964844 L 62.984375 61.964844 C 63.445312 64.421875 64.925781 66.667969 67.253906 68.019531 C 71.476562 70.46875 76.882812 69.015625 79.320312 64.773438 Z M 48.601562 37.03125 C 48.984375 38.886719 49.957031 40.617188 51.4375 41.910156 L 45.65625 51.960938 C 43.796875 51.320312 41.816406 51.339844 40.015625 51.9375 L 34.238281 41.890625 C 34.933594 41.273438 35.542969 40.535156 36.035156 39.683594 C 36.523438 38.835938 36.855469 37.941406 37.039062 37.03125 Z M 48.601562 37.03125 " fill-opacity="1" fill-rule="nonzero"/><g fill="#0054a6" fill-opacity="1"><g transform="translate(92.21564, 37.353182)"><g><path d="M 16.855469 0 L 16.855469 -25.28125 L 25.871094 -25.28125 L 25.871094 -31.992188 L 0.335938 -31.992188 L 0.335938 -25.28125 L 9.351562 -25.28125 L 9.351562 0 Z M 16.855469 0 "/></g></g></g><g fill="#0054a6" fill-opacity="1"><g transform="translate(120.515584, 37.353182)"><g><path d="M 24.359375 0 L 24.359375 -6.707031 L 10.019531 -6.707031 L 10.019531 -12.660156 L 22.976562 -12.660156 L 22.976562 -19.328125 L 10.019531 -19.328125 L 10.019531 -25.28125 L 24.359375 -25.28125 L 24.359375 -31.992188 L 2.515625 -31.992188 L 2.515625 0 Z M 24.359375 0 "/></g></g></g><g fill="#0054a6" fill-opacity="1"><g transform="translate(148.77361, 37.353182)"><g><path d="M 17.316406 0.710938 C 25.742188 0.710938 30.648438 -3.941406 31.488281 -10.859375 L 23.269531 -10.859375 C 22.765625 -7.503906 20.335938 -5.996094 17.148438 -5.996094 C 12.074219 -5.996094 9.265625 -9.9375 9.265625 -16.015625 C 9.265625 -22.054688 12.074219 -25.953125 17.148438 -25.953125 C 20.335938 -25.953125 22.808594 -24.445312 23.269531 -21.171875 L 31.488281 -21.171875 C 30.648438 -28.050781 25.742188 -32.660156 17.316406 -32.660156 C 6.371094 -32.660156 1.339844 -24.945312 1.339844 -16.015625 C 1.339844 -7.085938 6.371094 0.710938 17.316406 0.710938 Z M 17.316406 0.710938 "/></g></g></g><g fill="#0054a6" fill-opacity="1"><g transform="translate(183.530067, 37.353182)"><g><path d="M 10.019531 0 L 10.019531 -12.621094 L 22.179688 -12.621094 L 22.179688 0 L 29.683594 0 L 29.683594 -31.992188 L 22.179688 -31.992188 L 22.179688 -19.328125 L 10.019531 -19.328125 L 10.019531 -31.992188 L 2.515625 -31.992188 L 2.515625 0 Z M 10.019531 0 "/></g></g></g><g fill="#0054a6" fill-opacity="1"><g transform="translate(218.919469, 37.353182)"><g><path d="M 6.207031 0 L 6.207031 -29.222656 L 21.71875 0 L 26.164062 0 L 26.164062 -31.992188 L 23.3125 -31.992188 L 23.3125 -2.640625 L 7.757812 -31.992188 L 3.3125 -31.992188 L 3.3125 0 Z M 6.207031 0 "/></g></g></g><g fill="#0054a6" fill-opacity="1"><g transform="translate(251.370141, 37.353182)"><g><path d="M 23.6875 0 L 23.6875 -2.597656 L 6.207031 -2.597656 L 6.207031 -14.757812 L 21.550781 -14.757812 L 21.550781 -17.359375 L 6.207031 -17.359375 L 6.207031 -29.390625 L 23.6875 -29.390625 L 23.6875 -31.992188 L 3.3125 -31.992188 L 3.3125 0 Z M 23.6875 0 "/></g></g></g><g fill="#0054a6" fill-opacity="1"><g transform="translate(279.837894, 37.353182)"><g><path d="M 4.234375 0 L 13.917969 -14.003906 L 23.6875 0 L 27.128906 0 L 15.890625 -16.140625 L 26.917969 -31.992188 L 23.4375 -31.992188 L 13.960938 -18.113281 L 4.445312 -31.992188 L 1.007812 -31.992188 L 12.03125 -16.140625 L 0.796875 0 Z M 4.234375 0 "/></g></g></g><g fill="#0054a6" fill-opacity="1"><g transform="translate(310.737326, 37.353182)"><g><path d="M 14.421875 0.417969 C 22.261719 0.417969 25.828125 -4.023438 25.828125 -11.320312 L 25.828125 -31.992188 L 22.933594 -31.992188 L 22.933594 -11.320312 C 22.933594 -5.617188 20.417969 -2.179688 14.421875 -2.179688 C 8.425781 -2.179688 5.910156 -5.617188 5.910156 -11.320312 L 5.910156 -31.992188 L 3.019531 -31.992188 L 3.019531 -11.320312 C 3.019531 -4.023438 6.582031 0.417969 14.421875 0.417969 Z M 14.421875 0.417969 "/></g></g></g><g fill="#0054a6" fill-opacity="1"><g transform="translate(342.559116, 37.353182)"><g><path d="M 14.214844 0.417969 C 21.46875 0.417969 25.324219 -3.355469 25.324219 -8.929688 C 25.324219 -15.722656 19.664062 -16.980469 14.464844 -18.113281 C 10.0625 -19.078125 5.953125 -20 5.953125 -24.191406 C 5.953125 -27.671875 9.054688 -29.808594 13.417969 -29.808594 C 17.527344 -29.808594 20.628906 -28.132812 21.507812 -23.5625 L 24.277344 -23.5625 C 23.269531 -29.808594 19.035156 -32.410156 13.457031 -32.410156 C 7.503906 -32.410156 3.0625 -29.140625 3.0625 -23.984375 C 3.0625 -17.820312 8.300781 -16.6875 13.332031 -15.597656 C 17.988281 -14.589844 22.429688 -13.625 22.429688 -8.804688 C 22.429688 -4.652344 19.496094 -2.179688 14.421875 -2.179688 C 10.144531 -2.179688 5.660156 -3.816406 4.738281 -9.054688 L 1.804688 -9.054688 C 2.851562 -2.304688 8.175781 0.417969 14.214844 0.417969 Z M 14.214844 0.417969 "/></g></g></g><g fill="#69b3e3" fill-opacity="1"><g transform="translate(115.322459, 61.012742)"><g><path d="M 5.28125 -5.828125 L 3.15625 -5.828125 L 3.15625 0 L 2.265625 0 L 2.265625 -5.828125 L 0.140625 -5.828125 L 0.140625 -6.578125 L 5.28125 -6.578125 Z M 5.28125 -5.828125 "/></g></g></g><g fill="#69b3e3" fill-opacity="1"><g transform="translate(126.775513, 61.012742)"><g><path d="M 4.890625 -0.71875 L 4.890625 0 L 0.84375 0 L 0.84375 -6.578125 L 4.890625 -6.578125 L 4.890625 -5.84375 L 1.734375 -5.84375 L 1.734375 -3.671875 L 4.28125 -3.671875 L 4.28125 -2.96875 L 1.734375 -2.96875 L 1.734375 -0.71875 Z M 4.890625 -0.71875 "/></g></g></g><g fill="#69b3e3" fill-opacity="1"><g transform="translate(138.109414, 61.012742)"><g><path d="M 5.453125 -1.359375 C 5.503906 -1.359375 5.546875 -1.335938 5.578125 -1.296875 L 5.9375 -0.921875 C 5.664062 -0.609375 5.335938 -0.363281 4.953125 -0.1875 C 4.566406 -0.0078125 4.101562 0.078125 3.5625 0.078125 C 3.09375 0.078125 2.664062 -0.00390625 2.28125 -0.171875 C 1.894531 -0.335938 1.566406 -0.566406 1.296875 -0.859375 C 1.023438 -1.148438 0.8125 -1.503906 0.65625 -1.921875 C 0.507812 -2.335938 0.4375 -2.789062 0.4375 -3.28125 C 0.4375 -3.78125 0.515625 -4.234375 0.671875 -4.640625 C 0.828125 -5.054688 1.046875 -5.410156 1.328125 -5.703125 C 1.609375 -6.003906 1.945312 -6.234375 2.34375 -6.390625 C 2.738281 -6.554688 3.175781 -6.640625 3.65625 -6.640625 C 4.125 -6.640625 4.535156 -6.566406 4.890625 -6.421875 C 5.242188 -6.273438 5.554688 -6.070312 5.828125 -5.8125 L 5.546875 -5.40625 C 5.523438 -5.375 5.5 -5.347656 5.46875 -5.328125 C 5.4375 -5.304688 5.398438 -5.296875 5.359375 -5.296875 C 5.296875 -5.296875 5.222656 -5.320312 5.140625 -5.375 C 5.066406 -5.4375 4.960938 -5.503906 4.828125 -5.578125 C 4.703125 -5.660156 4.539062 -5.726562 4.34375 -5.78125 C 4.15625 -5.84375 3.921875 -5.875 3.640625 -5.875 C 3.304688 -5.875 3 -5.8125 2.71875 -5.6875 C 2.4375 -5.570312 2.191406 -5.40625 1.984375 -5.1875 C 1.785156 -4.96875 1.628906 -4.695312 1.515625 -4.375 C 1.398438 -4.050781 1.34375 -3.6875 1.34375 -3.28125 C 1.34375 -2.875 1.398438 -2.507812 1.515625 -2.1875 C 1.640625 -1.863281 1.800781 -1.59375 2 -1.375 C 2.207031 -1.15625 2.445312 -0.984375 2.71875 -0.859375 C 3 -0.742188 3.300781 -0.6875 3.625 -0.6875 C 3.8125 -0.6875 3.984375 -0.695312 4.140625 -0.71875 C 4.304688 -0.75 4.453125 -0.785156 4.578125 -0.828125 C 4.710938 -0.878906 4.835938 -0.941406 4.953125 -1.015625 C 5.066406 -1.085938 5.179688 -1.175781 5.296875 -1.28125 C 5.347656 -1.332031 5.398438 -1.359375 5.453125 -1.359375 Z M 5.453125 -1.359375 "/></g></g></g><g fill="#69b3e3" fill-opacity="1"><g transform="translate(150.272845, 61.012742)"><g><path d="M 6.15625 -6.578125 L 6.15625 0 L 5.28125 0 L 5.28125 -2.984375 L 1.734375 -2.984375 L 1.734375 0 L 0.84375 0 L 0.84375 -6.578125 L 1.734375 -6.578125 L 1.734375 -3.640625 L 5.28125 -3.640625 L 5.28125 -6.578125 Z M 6.15625 -6.578125 "/></g></g></g><g fill="#69b3e3" fill-opacity="1"><g transform="translate(163.311646, 61.012742)"><g><path d="M 6.15625 -6.578125 L 6.15625 0 L 5.71875 0 C 5.644531 0 5.582031 -0.0078125 5.53125 -0.03125 C 5.488281 -0.0625 5.445312 -0.101562 5.40625 -0.15625 L 1.59375 -5.109375 C 1.601562 -5.035156 1.609375 -4.960938 1.609375 -4.890625 C 1.617188 -4.816406 1.625 -4.75 1.625 -4.6875 L 1.625 0 L 0.84375 0 L 0.84375 -6.578125 L 1.296875 -6.578125 C 1.335938 -6.578125 1.367188 -6.570312 1.390625 -6.5625 C 1.421875 -6.5625 1.445312 -6.554688 1.46875 -6.546875 C 1.488281 -6.535156 1.507812 -6.519531 1.53125 -6.5 C 1.550781 -6.476562 1.578125 -6.453125 1.609375 -6.421875 L 5.40625 -1.46875 C 5.394531 -1.550781 5.390625 -1.628906 5.390625 -1.703125 C 5.390625 -1.773438 5.390625 -1.847656 5.390625 -1.921875 L 5.390625 -6.578125 Z M 6.15625 -6.578125 "/></g></g></g><g fill="#69b3e3" fill-opacity="1"><g transform="translate(176.350448, 61.012742)"><g><path d="M 6.90625 -3.28125 C 6.90625 -2.789062 6.828125 -2.335938 6.671875 -1.921875 C 6.515625 -1.515625 6.296875 -1.160156 6.015625 -0.859375 C 5.734375 -0.566406 5.390625 -0.335938 4.984375 -0.171875 C 4.585938 -0.015625 4.148438 0.0625 3.671875 0.0625 C 3.179688 0.0625 2.738281 -0.015625 2.34375 -0.171875 C 1.945312 -0.335938 1.609375 -0.566406 1.328125 -0.859375 C 1.046875 -1.160156 0.828125 -1.515625 0.671875 -1.921875 C 0.515625 -2.335938 0.4375 -2.789062 0.4375 -3.28125 C 0.4375 -3.769531 0.515625 -4.21875 0.671875 -4.625 C 0.828125 -5.039062 1.046875 -5.398438 1.328125 -5.703125 C 1.609375 -6.003906 1.945312 -6.234375 2.34375 -6.390625 C 2.738281 -6.554688 3.179688 -6.640625 3.671875 -6.640625 C 4.148438 -6.640625 4.585938 -6.554688 4.984375 -6.390625 C 5.390625 -6.234375 5.734375 -6.003906 6.015625 -5.703125 C 6.296875 -5.398438 6.515625 -5.039062 6.671875 -4.625 C 6.828125 -4.21875 6.90625 -3.769531 6.90625 -3.28125 Z M 6 -3.28125 C 6 -3.6875 5.941406 -4.050781 5.828125 -4.375 C 5.722656 -4.695312 5.566406 -4.96875 5.359375 -5.1875 C 5.160156 -5.40625 4.914062 -5.570312 4.625 -5.6875 C 4.34375 -5.8125 4.023438 -5.875 3.671875 -5.875 C 3.316406 -5.875 2.992188 -5.8125 2.703125 -5.6875 C 2.421875 -5.570312 2.175781 -5.40625 1.96875 -5.1875 C 1.769531 -4.96875 1.613281 -4.695312 1.5 -4.375 C 1.394531 -4.050781 1.34375 -3.6875 1.34375 -3.28125 C 1.34375 -2.875 1.394531 -2.507812 1.5 -2.1875 C 1.613281 -1.875 1.769531 -1.609375 1.96875 -1.390625 C 2.175781 -1.171875 2.421875 -1 2.703125 -0.875 C 2.992188 -0.757812 3.316406 -0.703125 3.671875 -0.703125 C 4.023438 -0.703125 4.34375 -0.757812 4.625 -0.875 C 4.914062 -1 5.160156 -1.171875 5.359375 -1.390625 C 5.566406 -1.609375 5.722656 -1.875 5.828125 -2.1875 C 5.941406 -2.507812 6 -2.875 6 -3.28125 Z M 6 -3.28125 "/></g></g></g><g fill="#69b3e3" fill-opacity="1"><g transform="translate(189.728392, 61.012742)"><g><path d="M 4.5625 -0.75 L 4.5625 0 L 0.84375 0 L 0.84375 -6.578125 L 1.71875 -6.578125 L 1.71875 -0.75 Z M 4.5625 -0.75 "/></g></g></g><g fill="#69b3e3" fill-opacity="1"><g transform="translate(200.475658, 61.012742)"><g><path d="M 6.90625 -3.28125 C 6.90625 -2.789062 6.828125 -2.335938 6.671875 -1.921875 C 6.515625 -1.515625 6.296875 -1.160156 6.015625 -0.859375 C 5.734375 -0.566406 5.390625 -0.335938 4.984375 -0.171875 C 4.585938 -0.015625 4.148438 0.0625 3.671875 0.0625 C 3.179688 0.0625 2.738281 -0.015625 2.34375 -0.171875 C 1.945312 -0.335938 1.609375 -0.566406 1.328125 -0.859375 C 1.046875 -1.160156 0.828125 -1.515625 0.671875 -1.921875 C 0.515625 -2.335938 0.4375 -2.789062 0.4375 -3.28125 C 0.4375 -3.769531 0.515625 -4.21875 0.671875 -4.625 C 0.828125 -5.039062 1.046875 -5.398438 1.328125 -5.703125 C 1.609375 -6.003906 1.945312 -6.234375 2.34375 -6.390625 C 2.738281 -6.554688 3.179688 -6.640625 3.671875 -6.640625 C 4.148438 -6.640625 4.585938 -6.554688 4.984375 -6.390625 C 5.390625 -6.234375 5.734375 -6.003906 6.015625 -5.703125 C 6.296875 -5.398438 6.515625 -5.039062 6.671875 -4.625 C 6.828125 -4.21875 6.90625 -3.769531 6.90625 -3.28125 Z M 6 -3.28125 C 6 -3.6875 5.941406 -4.050781 5.828125 -4.375 C 5.722656 -4.695312 5.566406 -4.96875 5.359375 -5.1875 C 5.160156 -5.40625 4.914062 -5.570312 4.625 -5.6875 C 4.34375 -5.8125 4.023438 -5.875 3.671875 -5.875 C 3.316406 -5.875 2.992188 -5.8125 2.703125 -5.6875 C 2.421875 -5.570312 2.175781 -5.40625 1.96875 -5.1875 C 1.769531 -4.96875 1.613281 -4.695312 1.5 -4.375 C 1.394531 -4.050781 1.34375 -3.6875 1.34375 -3.28125 C 1.34375 -2.875 1.394531 -2.507812 1.5 -2.1875 C 1.613281 -1.875 1.769531 -1.609375 1.96875 -1.390625 C 2.175781 -1.171875 2.421875 -1 2.703125 -0.875 C 2.992188 -0.757812 3.316406 -0.703125 3.671875 -0.703125 C 4.023438 -0.703125 4.34375 -0.757812 4.625 -0.875 C 4.914062 -1 5.160156 -1.171875 5.359375 -1.390625 C 5.566406 -1.609375 5.722656 -1.875 5.828125 -2.1875 C 5.941406 -2.507812 6 -2.875 6 -3.28125 Z M 6 -3.28125 "/></g></g></g><g fill="#69b3e3" fill-opacity="1"><g transform="translate(213.853602, 61.012742)"><g><path d="M 6.171875 -3.15625 L 6.171875 -0.640625 C 5.847656 -0.398438 5.5 -0.21875 5.125 -0.09375 C 4.75 0.0195312 4.335938 0.078125 3.890625 0.078125 C 3.359375 0.078125 2.878906 -0.00390625 2.453125 -0.171875 C 2.035156 -0.335938 1.675781 -0.566406 1.375 -0.859375 C 1.070312 -1.148438 0.835938 -1.503906 0.671875 -1.921875 C 0.515625 -2.335938 0.4375 -2.789062 0.4375 -3.28125 C 0.4375 -3.78125 0.515625 -4.238281 0.671875 -4.65625 C 0.828125 -5.070312 1.050781 -5.425781 1.34375 -5.71875 C 1.632812 -6.007812 1.984375 -6.234375 2.390625 -6.390625 C 2.804688 -6.554688 3.273438 -6.640625 3.796875 -6.640625 C 4.054688 -6.640625 4.296875 -6.617188 4.515625 -6.578125 C 4.742188 -6.546875 4.953125 -6.492188 5.140625 -6.421875 C 5.328125 -6.347656 5.5 -6.257812 5.65625 -6.15625 C 5.820312 -6.050781 5.976562 -5.9375 6.125 -5.8125 L 5.859375 -5.40625 C 5.828125 -5.34375 5.78125 -5.300781 5.71875 -5.28125 C 5.65625 -5.269531 5.582031 -5.289062 5.5 -5.34375 C 5.425781 -5.382812 5.34375 -5.429688 5.25 -5.484375 C 5.15625 -5.546875 5.039062 -5.601562 4.90625 -5.65625 C 4.769531 -5.71875 4.609375 -5.769531 4.421875 -5.8125 C 4.234375 -5.851562 4.015625 -5.875 3.765625 -5.875 C 3.390625 -5.875 3.050781 -5.8125 2.75 -5.6875 C 2.457031 -5.570312 2.203125 -5.398438 1.984375 -5.171875 C 1.773438 -4.953125 1.613281 -4.679688 1.5 -4.359375 C 1.394531 -4.035156 1.34375 -3.675781 1.34375 -3.28125 C 1.34375 -2.875 1.398438 -2.503906 1.515625 -2.171875 C 1.628906 -1.847656 1.796875 -1.570312 2.015625 -1.34375 C 2.234375 -1.113281 2.5 -0.9375 2.8125 -0.8125 C 3.125 -0.695312 3.472656 -0.640625 3.859375 -0.640625 C 4.171875 -0.640625 4.441406 -0.675781 4.671875 -0.75 C 4.910156 -0.820312 5.144531 -0.914062 5.375 -1.03125 L 5.375 -2.484375 L 4.359375 -2.484375 C 4.296875 -2.484375 4.242188 -2.5 4.203125 -2.53125 C 4.171875 -2.5625 4.15625 -2.601562 4.15625 -2.65625 L 4.15625 -3.15625 Z M 6.171875 -3.15625 "/></g></g></g><g fill="#69b3e3" fill-opacity="1"><g transform="translate(226.589928, 61.012742)"><g><path d="M 3.3125 -2.625 L 3.3125 0 L 2.421875 0 L 2.421875 -2.625 L 0.015625 -6.578125 L 0.78125 -6.578125 C 0.863281 -6.578125 0.925781 -6.554688 0.96875 -6.515625 C 1.019531 -6.472656 1.0625 -6.421875 1.09375 -6.359375 L 2.59375 -3.8125 C 2.65625 -3.707031 2.707031 -3.609375 2.75 -3.515625 C 2.800781 -3.421875 2.84375 -3.328125 2.875 -3.234375 C 2.90625 -3.328125 2.941406 -3.421875 2.984375 -3.515625 C 3.023438 -3.609375 3.070312 -3.707031 3.125 -3.8125 L 4.625 -6.359375 C 4.65625 -6.410156 4.691406 -6.457031 4.734375 -6.5 C 4.785156 -6.550781 4.851562 -6.578125 4.9375 -6.578125 L 5.71875 -6.578125 Z M 3.3125 -2.625 "/></g></g></g><g fill="#69b3e3" fill-opacity="1"><g transform="translate(238.350056, 61.012742)"><g/></g></g><g fill="#69b3e3" fill-opacity="1"><g transform="translate(246.737041, 61.012742)"><g><path d="M 4.203125 -5.546875 C 4.171875 -5.492188 4.140625 -5.457031 4.109375 -5.4375 C 4.078125 -5.414062 4.039062 -5.40625 4 -5.40625 C 3.945312 -5.40625 3.882812 -5.429688 3.8125 -5.484375 C 3.738281 -5.535156 3.648438 -5.59375 3.546875 -5.65625 C 3.441406 -5.71875 3.3125 -5.773438 3.15625 -5.828125 C 3.007812 -5.878906 2.832031 -5.90625 2.625 -5.90625 C 2.425781 -5.90625 2.25 -5.878906 2.09375 -5.828125 C 1.945312 -5.773438 1.820312 -5.703125 1.71875 -5.609375 C 1.613281 -5.515625 1.535156 -5.40625 1.484375 -5.28125 C 1.429688 -5.15625 1.40625 -5.023438 1.40625 -4.890625 C 1.40625 -4.703125 1.453125 -4.546875 1.546875 -4.421875 C 1.640625 -4.304688 1.757812 -4.203125 1.90625 -4.109375 C 2.050781 -4.023438 2.21875 -3.953125 2.40625 -3.890625 C 2.59375 -3.828125 2.785156 -3.757812 2.984375 -3.6875 C 3.179688 -3.625 3.375 -3.550781 3.5625 -3.46875 C 3.75 -3.382812 3.914062 -3.28125 4.0625 -3.15625 C 4.21875 -3.03125 4.335938 -2.875 4.421875 -2.6875 C 4.515625 -2.5 4.5625 -2.269531 4.5625 -2 C 4.5625 -1.707031 4.507812 -1.4375 4.40625 -1.1875 C 4.3125 -0.9375 4.171875 -0.71875 3.984375 -0.53125 C 3.796875 -0.34375 3.566406 -0.191406 3.296875 -0.078125 C 3.023438 0.0234375 2.710938 0.078125 2.359375 0.078125 C 1.929688 0.078125 1.539062 0 1.1875 -0.15625 C 0.84375 -0.3125 0.546875 -0.519531 0.296875 -0.78125 L 0.5625 -1.203125 C 0.582031 -1.234375 0.609375 -1.257812 0.640625 -1.28125 C 0.679688 -1.3125 0.722656 -1.328125 0.765625 -1.328125 C 0.804688 -1.328125 0.851562 -1.3125 0.90625 -1.28125 C 0.957031 -1.25 1.015625 -1.207031 1.078125 -1.15625 C 1.140625 -1.101562 1.210938 -1.046875 1.296875 -0.984375 C 1.378906 -0.929688 1.472656 -0.878906 1.578125 -0.828125 C 1.679688 -0.785156 1.800781 -0.75 1.9375 -0.71875 C 2.070312 -0.6875 2.222656 -0.671875 2.390625 -0.671875 C 2.597656 -0.671875 2.785156 -0.695312 2.953125 -0.75 C 3.117188 -0.8125 3.257812 -0.894531 3.375 -1 C 3.488281 -1.101562 3.578125 -1.226562 3.640625 -1.375 C 3.703125 -1.519531 3.734375 -1.679688 3.734375 -1.859375 C 3.734375 -2.066406 3.6875 -2.234375 3.59375 -2.359375 C 3.5 -2.484375 3.378906 -2.585938 3.234375 -2.671875 C 3.085938 -2.753906 2.921875 -2.828125 2.734375 -2.890625 C 2.546875 -2.953125 2.351562 -3.015625 2.15625 -3.078125 C 1.957031 -3.140625 1.765625 -3.210938 1.578125 -3.296875 C 1.390625 -3.378906 1.222656 -3.484375 1.078125 -3.609375 C 0.929688 -3.742188 0.8125 -3.910156 0.71875 -4.109375 C 0.625 -4.304688 0.578125 -4.550781 0.578125 -4.84375 C 0.578125 -5.070312 0.625 -5.296875 0.71875 -5.515625 C 0.8125 -5.734375 0.941406 -5.925781 1.109375 -6.09375 C 1.285156 -6.257812 1.5 -6.390625 1.75 -6.484375 C 2 -6.585938 2.289062 -6.640625 2.625 -6.640625 C 2.988281 -6.640625 3.320312 -6.582031 3.625 -6.46875 C 3.925781 -6.351562 4.191406 -6.1875 4.421875 -5.96875 Z M 4.203125 -5.546875 "/></g></g></g><g fill="#69b3e3" fill-opacity="1"><g transform="translate(257.750123, 61.012742)"><g><path d="M 6.90625 -3.28125 C 6.90625 -2.789062 6.828125 -2.335938 6.671875 -1.921875 C 6.515625 -1.515625 6.296875 -1.160156 6.015625 -0.859375 C 5.734375 -0.566406 5.390625 -0.335938 4.984375 -0.171875 C 4.585938 -0.015625 4.148438 0.0625 3.671875 0.0625 C 3.179688 0.0625 2.738281 -0.015625 2.34375 -0.171875 C 1.945312 -0.335938 1.609375 -0.566406 1.328125 -0.859375 C 1.046875 -1.160156 0.828125 -1.515625 0.671875 -1.921875 C 0.515625 -2.335938 0.4375 -2.789062 0.4375 -3.28125 C 0.4375 -3.769531 0.515625 -4.21875 0.671875 -4.625 C 0.828125 -5.039062 1.046875 -5.398438 1.328125 -5.703125 C 1.609375 -6.003906 1.945312 -6.234375 2.34375 -6.390625 C 2.738281 -6.554688 3.179688 -6.640625 3.671875 -6.640625 C 4.148438 -6.640625 4.585938 -6.554688 4.984375 -6.390625 C 5.390625 -6.234375 5.734375 -6.003906 6.015625 -5.703125 C 6.296875 -5.398438 6.515625 -5.039062 6.671875 -4.625 C 6.828125 -4.21875 6.90625 -3.769531 6.90625 -3.28125 Z M 6 -3.28125 C 6 -3.6875 5.941406 -4.050781 5.828125 -4.375 C 5.722656 -4.695312 5.566406 -4.96875 5.359375 -5.1875 C 5.160156 -5.40625 4.914062 -5.570312 4.625 -5.6875 C 4.34375 -5.8125 4.023438 -5.875 3.671875 -5.875 C 3.316406 -5.875 2.992188 -5.8125 2.703125 -5.6875 C 2.421875 -5.570312 2.175781 -5.40625 1.96875 -5.1875 C 1.769531 -4.96875 1.613281 -4.695312 1.5 -4.375 C 1.394531 -4.050781 1.34375 -3.6875 1.34375 -3.28125 C 1.34375 -2.875 1.394531 -2.507812 1.5 -2.1875 C 1.613281 -1.875 1.769531 -1.609375 1.96875 -1.390625 C 2.175781 -1.171875 2.421875 -1 2.703125 -0.875 C 2.992188 -0.757812 3.316406 -0.703125 3.671875 -0.703125 C 4.023438 -0.703125 4.34375 -0.757812 4.625 -0.875 C 4.914062 -1 5.160156 -1.171875 5.359375 -1.390625 C 5.566406 -1.609375 5.722656 -1.875 5.828125 -2.1875 C 5.941406 -2.507812 6 -2.875 6 -3.28125 Z M 6 -3.28125 "/></g></g></g><g fill="#69b3e3" fill-opacity="1"><g transform="translate(271.128073, 61.012742)"><g><path d="M 4.5625 -0.75 L 4.5625 0 L 0.84375 0 L 0.84375 -6.578125 L 1.71875 -6.578125 L 1.71875 -0.75 Z M 4.5625 -0.75 "/></g></g></g><g fill="#69b3e3" fill-opacity="1"><g transform="translate(281.875345, 61.012742)"><g><path d="M 3.375 -0.703125 C 3.644531 -0.703125 3.882812 -0.75 4.09375 -0.84375 C 4.3125 -0.9375 4.492188 -1.066406 4.640625 -1.234375 C 4.796875 -1.398438 4.910156 -1.597656 4.984375 -1.828125 C 5.066406 -2.054688 5.109375 -2.304688 5.109375 -2.578125 L 5.109375 -6.578125 L 5.984375 -6.578125 L 5.984375 -2.578125 C 5.984375 -2.203125 5.921875 -1.847656 5.796875 -1.515625 C 5.679688 -1.191406 5.507812 -0.910156 5.28125 -0.671875 C 5.0625 -0.441406 4.789062 -0.257812 4.46875 -0.125 C 4.144531 0.0078125 3.78125 0.078125 3.375 0.078125 C 2.96875 0.078125 2.601562 0.0078125 2.28125 -0.125 C 1.957031 -0.257812 1.679688 -0.441406 1.453125 -0.671875 C 1.234375 -0.910156 1.0625 -1.191406 0.9375 -1.515625 C 0.8125 -1.847656 0.75 -2.203125 0.75 -2.578125 L 0.75 -6.578125 L 1.640625 -6.578125 L 1.640625 -2.578125 C 1.640625 -2.304688 1.675781 -2.054688 1.75 -1.828125 C 1.832031 -1.597656 1.945312 -1.398438 2.09375 -1.234375 C 2.25 -1.066406 2.429688 -0.9375 2.640625 -0.84375 C 2.859375 -0.75 3.101562 -0.703125 3.375 -0.703125 Z M 3.375 -0.703125 "/></g></g></g><g fill="#69b3e3" fill-opacity="1"><g transform="translate(294.6575, 61.012742)"><g><path d="M 5.28125 -5.828125 L 3.15625 -5.828125 L 3.15625 0 L 2.265625 0 L 2.265625 -5.828125 L 0.140625 -5.828125 L 0.140625 -6.578125 L 5.28125 -6.578125 Z M 5.28125 -5.828125 "/></g></g></g><g fill="#69b3e3" fill-opacity="1"><g transform="translate(306.110557, 61.012742)"><g><path d="M 1.734375 0 L 0.84375 0 L 0.84375 -6.578125 L 1.734375 -6.578125 Z M 1.734375 0 "/></g></g></g><g fill="#69b3e3" fill-opacity="1"><g transform="translate(314.717524, 61.012742)"><g><path d="M 6.90625 -3.28125 C 6.90625 -2.789062 6.828125 -2.335938 6.671875 -1.921875 C 6.515625 -1.515625 6.296875 -1.160156 6.015625 -0.859375 C 5.734375 -0.566406 5.390625 -0.335938 4.984375 -0.171875 C 4.585938 -0.015625 4.148438 0.0625 3.671875 0.0625 C 3.179688 0.0625 2.738281 -0.015625 2.34375 -0.171875 C 1.945312 -0.335938 1.609375 -0.566406 1.328125 -0.859375 C 1.046875 -1.160156 0.828125 -1.515625 0.671875 -1.921875 C 0.515625 -2.335938 0.4375 -2.789062 0.4375 -3.28125 C 0.4375 -3.769531 0.515625 -4.21875 0.671875 -4.625 C 0.828125 -5.039062 1.046875 -5.398438 1.328125 -5.703125 C 1.609375 -6.003906 1.945312 -6.234375 2.34375 -6.390625 C 2.738281 -6.554688 3.179688 -6.640625 3.671875 -6.640625 C 4.148438 -6.640625 4.585938 -6.554688 4.984375 -6.390625 C 5.390625 -6.234375 5.734375 -6.003906 6.015625 -5.703125 C 6.296875 -5.398438 6.515625 -5.039062 6.671875 -4.625 C 6.828125 -4.21875 6.90625 -3.769531 6.90625 -3.28125 Z M 6 -3.28125 C 6 -3.6875 5.941406 -4.050781 5.828125 -4.375 C 5.722656 -4.695312 5.566406 -4.96875 5.359375 -5.1875 C 5.160156 -5.40625 4.914062 -5.570312 4.625 -5.6875 C 4.34375 -5.8125 4.023438 -5.875 3.671875 -5.875 C 3.316406 -5.875 2.992188 -5.8125 2.703125 -5.6875 C 2.421875 -5.570312 2.175781 -5.40625 1.96875 -5.1875 C 1.769531 -4.96875 1.613281 -4.695312 1.5 -4.375 C 1.394531 -4.050781 1.34375 -3.6875 1.34375 -3.28125 C 1.34375 -2.875 1.394531 -2.507812 1.5 -2.1875 C 1.613281 -1.875 1.769531 -1.609375 1.96875 -1.390625 C 2.175781 -1.171875 2.421875 -1 2.703125 -0.875 C 2.992188 -0.757812 3.316406 -0.703125 3.671875 -0.703125 C 4.023438 -0.703125 4.34375 -0.757812 4.625 -0.875 C 4.914062 -1 5.160156 -1.171875 5.359375 -1.390625 C 5.566406 -1.609375 5.722656 -1.875 5.828125 -2.1875 C 5.941406 -2.507812 6 -2.875 6 -3.28125 Z M 6 -3.28125 "/></g></g></g><g fill="#69b3e3" fill-opacity="1"><g transform="translate(328.095474, 61.012742)"><g><path d="M 6.15625 -6.578125 L 6.15625 0 L 5.71875 0 C 5.644531 0 5.582031 -0.0078125 5.53125 -0.03125 C 5.488281 -0.0625 5.445312 -0.101562 5.40625 -0.15625 L 1.59375 -5.109375 C 1.601562 -5.035156 1.609375 -4.960938 1.609375 -4.890625 C 1.617188 -4.816406 1.625 -4.75 1.625 -4.6875 L 1.625 0 L 0.84375 0 L 0.84375 -6.578125 L 1.296875 -6.578125 C 1.335938 -6.578125 1.367188 -6.570312 1.390625 -6.5625 C 1.421875 -6.5625 1.445312 -6.554688 1.46875 -6.546875 C 1.488281 -6.535156 1.507812 -6.519531 1.53125 -6.5 C 1.550781 -6.476562 1.578125 -6.453125 1.609375 -6.421875 L 5.40625 -1.46875 C 5.394531 -1.550781 5.390625 -1.628906 5.390625 -1.703125 C 5.390625 -1.773438 5.390625 -1.847656 5.390625 -1.921875 L 5.390625 -6.578125 Z M 6.15625 -6.578125 "/></g></g></g><g fill="#69b3e3" fill-opacity="1"><g transform="translate(341.134278, 61.012742)"><g><path d="M 4.203125 -5.546875 C 4.171875 -5.492188 4.140625 -5.457031 4.109375 -5.4375 C 4.078125 -5.414062 4.039062 -5.40625 4 -5.40625 C 3.945312 -5.40625 3.882812 -5.429688 3.8125 -5.484375 C 3.738281 -5.535156 3.648438 -5.59375 3.546875 -5.65625 C 3.441406 -5.71875 3.3125 -5.773438 3.15625 -5.828125 C 3.007812 -5.878906 2.832031 -5.90625 2.625 -5.90625 C 2.425781 -5.90625 2.25 -5.878906 2.09375 -5.828125 C 1.945312 -5.773438 1.820312 -5.703125 1.71875 -5.609375 C 1.613281 -5.515625 1.535156 -5.40625 1.484375 -5.28125 C 1.429688 -5.15625 1.40625 -5.023438 1.40625 -4.890625 C 1.40625 -4.703125 1.453125 -4.546875 1.546875 -4.421875 C 1.640625 -4.304688 1.757812 -4.203125 1.90625 -4.109375 C 2.050781 -4.023438 2.21875 -3.953125 2.40625 -3.890625 C 2.59375 -3.828125 2.785156 -3.757812 2.984375 -3.6875 C 3.179688 -3.625 3.375 -3.550781 3.5625 -3.46875 C 3.75 -3.382812 3.914062 -3.28125 4.0625 -3.15625 C 4.21875 -3.03125 4.335938 -2.875 4.421875 -2.6875 C 4.515625 -2.5 4.5625 -2.269531 4.5625 -2 C 4.5625 -1.707031 4.507812 -1.4375 4.40625 -1.1875 C 4.3125 -0.9375 4.171875 -0.71875 3.984375 -0.53125 C 3.796875 -0.34375 3.566406 -0.191406 3.296875 -0.078125 C 3.023438 0.0234375 2.710938 0.078125 2.359375 0.078125 C 1.929688 0.078125 1.539062 0 1.1875 -0.15625 C 0.84375 -0.3125 0.546875 -0.519531 0.296875 -0.78125 L 0.5625 -1.203125 C 0.582031 -1.234375 0.609375 -1.257812 0.640625 -1.28125 C 0.679688 -1.3125 0.722656 -1.328125 0.765625 -1.328125 C 0.804688 -1.328125 0.851562 -1.3125 0.90625 -1.28125 C 0.957031 -1.25 1.015625 -1.207031 1.078125 -1.15625 C 1.140625 -1.101562 1.210938 -1.046875 1.296875 -0.984375 C 1.378906 -0.929688 1.472656 -0.878906 1.578125 -0.828125 C 1.679688 -0.785156 1.800781 -0.75 1.9375 -0.71875 C 2.070312 -0.6875 2.222656 -0.671875 2.390625 -0.671875 C 2.597656 -0.671875 2.785156 -0.695312 2.953125 -0.75 C 3.117188 -0.8125 3.257812 -0.894531 3.375 -1 C 3.488281 -1.101562 3.578125 -1.226562 3.640625 -1.375 C 3.703125 -1.519531 3.734375 -1.679688 3.734375 -1.859375 C 3.734375 -2.066406 3.6875 -2.234375 3.59375 -2.359375 C 3.5 -2.484375 3.378906 -2.585938 3.234375 -2.671875 C 3.085938 -2.753906 2.921875 -2.828125 2.734375 -2.890625 C 2.546875 -2.953125 2.351562 -3.015625 2.15625 -3.078125 C 1.957031 -3.140625 1.765625 -3.210938 1.578125 -3.296875 C 1.390625 -3.378906 1.222656 -3.484375 1.078125 -3.609375 C 0.929688 -3.742188 0.8125 -3.910156 0.71875 -4.109375 C 0.625 -4.304688 0.578125 -4.550781 0.578125 -4.84375 C 0.578125 -5.070312 0.625 -5.296875 0.71875 -5.515625 C 0.8125 -5.734375 0.941406 -5.925781 1.109375 -6.09375 C 1.285156 -6.257812 1.5 -6.390625 1.75 -6.484375 C 2 -6.585938 2.289062 -6.640625 2.625 -6.640625 C 2.988281 -6.640625 3.320312 -6.582031 3.625 -6.46875 C 3.925781 -6.351562 4.191406 -6.1875 4.421875 -5.96875 Z M 4.203125 -5.546875 "/></g></g></g></svg>