<svg xmlns="http://www.w3.org/2000/svg" xmlns:xlink="http://www.w3.org/1999/xlink" width="500" zoomAndPan="magnify" viewBox="0 0 375 71.249999" height="95" preserveAspectRatio="xMidYMid meet" version="1.0"><defs><g/></defs><path fill="#004aad" d="M 370.40625 64.996094 C 372.847656 60.753906 371.398438 55.328125 367.171875 52.878906 C 362.949219 50.429688 357.542969 51.886719 355.105469 56.128906 C 354.621094 56.96875 354.289062 57.855469 354.105469 58.757812 L 342.535156 58.757812 C 342.148438 56.90625 341.179688 55.1875 339.703125 53.898438 L 345.480469 43.851562 C 349.398438 45.195312 353.839844 43.625 355.988281 39.890625 C 358.425781 35.648438 356.980469 30.222656 352.753906 27.773438 C 350.363281 26.390625 347.597656 26.253906 345.203125 27.164062 L 339.492188 17.234375 C 340.304688 16.570312 341.011719 15.75 341.570312 14.785156 C 344.007812 10.542969 342.5625 5.117188 338.335938 2.667969 C 334.109375 0.21875 328.707031 1.671875 326.265625 5.914062 C 323.828125 10.15625 325.273438 15.582031 329.5 18.03125 C 331.699219 19.304688 334.214844 19.523438 336.46875 18.839844 L 342.300781 28.976562 C 341.679688 29.558594 341.132812 30.242188 340.6875 31.019531 C 340.171875 31.914062 339.832031 32.863281 339.648438 33.824219 L 328.148438 33.824219 C 327.6875 31.375 326.207031 29.136719 323.886719 27.789062 C 319.660156 25.339844 314.257812 26.796875 311.816406 31.039062 C 309.671875 34.769531 310.535156 39.421875 313.65625 42.152344 L 307.875 52.199219 C 303.960938 50.851562 299.519531 52.425781 297.371094 56.160156 C 294.929688 60.402344 296.378906 65.828125 300.605469 68.273438 C 304.832031 70.726562 310.234375 69.269531 312.671875 65.027344 C 314.820312 61.292969 313.957031 56.644531 310.835938 53.914062 L 316.613281 43.867188 C 318.519531 44.523438 320.546875 44.484375 322.375 43.847656 L 328.128906 53.847656 C 327.390625 54.484375 326.75 55.25 326.238281 56.144531 C 323.796875 60.386719 325.246094 65.808594 329.472656 68.257812 C 333.695312 70.707031 339.101562 69.253906 341.539062 65.011719 C 342.058594 64.109375 342.402344 63.15625 342.578125 62.1875 L 354.070312 62.1875 C 354.53125 64.644531 356.011719 66.890625 358.339844 68.242188 C 362.5625 70.691406 367.96875 69.238281 370.40625 64.996094 Z M 339.6875 37.253906 C 340.070312 39.109375 341.042969 40.839844 342.523438 42.132812 L 336.742188 52.183594 C 334.882812 51.542969 332.902344 51.5625 331.101562 52.160156 L 325.324219 42.113281 C 326.019531 41.496094 326.628906 40.757812 327.121094 39.90625 C 327.609375 39.058594 327.941406 38.164062 328.125 37.253906 Z M 339.6875 37.253906 " fill-opacity="1" fill-rule="nonzero"/><g fill="#0054a6" fill-opacity="1"><g transform="translate(179.082687, 51.470701)"><g><path d="M 20.609375 0 C 16.820312 0 13.601562 -0.679688 10.957031 -2.042969 C 8.3125 -3.40625 6.308594 -5.382812 4.945312 -7.980469 C 3.582031 -10.578125 2.902344 -13.722656 2.902344 -17.414062 L 2.902344 -23.691406 L 8.558594 -23.691406 L 8.558594 -17.414062 C 8.558594 -13.464844 9.546875 -10.519531 11.519531 -8.574219 C 13.492188 -6.628906 16.523438 -5.65625 20.609375 -5.65625 L 30.53125 -5.65625 C 32.347656 -5.65625 33.730469 -6.234375 34.675781 -7.386719 C 35.625 -8.542969 36.097656 -10.246094 36.097656 -12.496094 L 36.097656 -46.195312 L 41.753906 -46.195312 L 41.753906 -11.636719 C 41.753906 -9.761719 42.144531 -8.296875 42.925781 -7.242188 C 43.703125 -6.183594 44.875 -5.65625 46.433594 -5.65625 L 48.121094 -5.65625 L 48.121094 0 L 46.433594 0 C 44.519531 0 42.96875 -0.378906 41.785156 -1.140625 C 40.601562 -1.898438 39.652344 -2.980469 38.941406 -4.382812 C 38.230469 -3.019531 37.175781 -1.949219 35.773438 -1.167969 C 34.371094 -0.390625 32.625 0 30.53125 0 Z M 17.117188 -19.960938 L 19.632812 -19.960938 C 18.863281 -20.769531 18.480469 -21.734375 18.480469 -22.863281 C 18.480469 -24.183594 18.953125 -25.292969 19.898438 -26.191406 C 20.847656 -27.089844 22.003906 -27.539062 23.363281 -27.539062 C 24.136719 -27.539062 24.859375 -27.378906 25.542969 -27.050781 C 26.222656 -26.726562 26.808594 -26.285156 27.304688 -25.734375 L 25.617188 -24.105469 C 25.042969 -24.738281 24.3125 -25.054688 23.425781 -25.054688 C 22.714844 -25.054688 22.109375 -24.820312 21.617188 -24.355469 C 21.125 -23.894531 20.878906 -23.304688 20.878906 -22.59375 C 20.878906 -21.882812 21.128906 -21.265625 21.632812 -20.742188 C 22.136719 -20.222656 22.734375 -19.960938 23.425781 -19.960938 L 27.894531 -19.960938 L 27.894531 -17.472656 L 17.117188 -17.472656 Z M 17.117188 -19.960938 "/></g></g></g><g fill="#0054a6" fill-opacity="1"><g transform="translate(226.108633, 51.470701)"><g><path d="M -0.59375 -5.65625 L 23.097656 -5.65625 L 23.097656 0 L -0.59375 0 Z M -0.59375 -5.65625 "/></g></g></g><g fill="#0054a6" fill-opacity="1"><g transform="translate(247.726357, 51.470701)"><g><path d="M -0.59375 -5.65625 L 23.097656 -5.65625 L 23.097656 0 L -0.59375 0 Z M -0.59375 -5.65625 "/></g></g></g><g fill="#0054a6" fill-opacity="1"><g transform="translate(269.344086, 51.470701)"><g><path d="M -0.59375 -5.65625 L 2.902344 -5.65625 C 4.480469 -5.65625 5.679688 -6.1875 6.5 -7.253906 C 7.320312 -8.320312 7.730469 -9.78125 7.730469 -11.636719 L 7.730469 -29.613281 L 13.414062 -29.613281 L 13.414062 -11.636719 C 13.414062 -9.328125 12.980469 -7.292969 12.113281 -5.539062 C 11.242188 -3.78125 10.019531 -2.417969 8.441406 -1.449219 C 6.859375 -0.484375 5.015625 0 2.902344 0 L -0.59375 0 Z M 5.507812 -32.871094 C 4.585938 -32.871094 3.789062 -33.207031 3.113281 -33.882812 C 2.4375 -34.554688 2.101562 -35.355469 2.101562 -36.277344 C 2.101562 -37.222656 2.4375 -38.035156 3.113281 -38.703125 C 3.789062 -39.375 4.585938 -39.710938 5.507812 -39.710938 C 6.476562 -39.710938 7.292969 -39.375 7.964844 -38.703125 C 8.636719 -38.035156 8.972656 -37.222656 8.972656 -36.277344 C 8.972656 -35.355469 8.636719 -34.554688 7.964844 -33.882812 C 7.292969 -33.207031 6.476562 -32.871094 5.507812 -32.871094 Z M 15.515625 -32.871094 C 14.59375 -32.871094 13.796875 -33.207031 13.121094 -33.882812 C 12.449219 -34.554688 12.113281 -35.355469 12.113281 -36.277344 C 12.113281 -37.246094 12.449219 -38.0625 13.121094 -38.722656 C 13.796875 -39.382812 14.59375 -39.710938 15.515625 -39.710938 C 16.488281 -39.710938 17.304688 -39.382812 17.964844 -38.722656 C 18.621094 -38.0625 18.953125 -37.246094 18.953125 -36.277344 C 18.953125 -35.355469 18.621094 -34.554688 17.964844 -33.882812 C 17.304688 -33.207031 16.488281 -32.871094 15.515625 -32.871094 Z M 15.515625 -32.871094 "/></g></g></g><g fill="#0054a6" fill-opacity="1"><g transform="translate(5.136996, 51.470701)"><g><path d="M 17.914062 13.441406 C 14.992188 13.441406 12.40625 12.75 10.15625 11.371094 C 7.90625 9.988281 6.148438 7.984375 4.886719 5.359375 C 3.621094 2.734375 2.992188 -0.355469 2.992188 -3.910156 L 2.992188 -23.6875 L 8.675781 -23.6875 L 8.675781 -3.910156 C 8.675781 -0.15625 9.5 2.730469 11.148438 4.753906 C 12.796875 6.777344 15.050781 7.789062 17.914062 7.789062 C 20.796875 7.789062 23.0625 6.777344 24.710938 4.753906 C 26.359375 2.730469 27.183594 -0.15625 27.183594 -3.910156 L 27.183594 -29.609375 L 32.835938 -29.609375 L 32.835938 -12.4375 C 32.835938 -10.285156 33.355469 -8.617188 34.390625 -7.433594 C 35.429688 -6.246094 36.734375 -5.65625 38.316406 -5.65625 C 39.894531 -5.65625 41.203125 -6.246094 42.238281 -7.433594 C 43.273438 -8.617188 43.792969 -10.285156 43.792969 -12.4375 L 43.792969 -29.609375 L 49.476562 -29.609375 L 49.476562 -12.4375 C 49.476562 -10.285156 49.996094 -8.617188 51.03125 -7.433594 C 52.070312 -6.246094 53.375 -5.65625 54.957031 -5.65625 C 56.535156 -5.65625 57.84375 -6.246094 58.878906 -7.433594 C 59.914062 -8.617188 60.433594 -10.285156 60.433594 -12.4375 L 60.433594 -31.386719 L 66.089844 -31.386719 L 66.089844 -12.4375 C 66.089844 -9.949219 65.601562 -7.761719 64.625 -5.878906 C 63.644531 -3.992188 62.308594 -2.542969 60.609375 -1.523438 C 58.914062 -0.507812 57.027344 0 54.957031 0 C 53.199219 0 51.613281 -0.40625 50.203125 -1.214844 C 48.792969 -2.023438 47.660156 -3.167969 46.8125 -4.648438 C 46.003906 -3.167969 44.921875 -2.023438 43.570312 -1.214844 C 42.21875 -0.40625 40.695312 0 38.996094 0 C 37.753906 0 36.597656 -0.25 35.53125 -0.753906 C 34.464844 -1.257812 33.558594 -1.992188 32.808594 -2.960938 C 32.6875 0.433594 31.984375 3.367188 30.691406 5.832031 C 29.398438 8.300781 27.652344 10.1875 25.449219 11.488281 C 23.25 12.792969 20.738281 13.441406 17.914062 13.441406 Z M 17.914062 13.441406 "/></g></g></g><g fill="#0054a6" fill-opacity="1"><g transform="translate(74.182152, 51.470701)"><g><path d="M 0.148438 13.472656 C -0.464844 13.472656 -1.164062 13.410156 -1.953125 13.28125 C -2.742188 13.152344 -3.425781 12.988281 -3.996094 12.792969 L -2.429688 7.492188 C -1.699219 7.769531 -0.886719 7.90625 0 7.90625 C 2.171875 7.90625 3.730469 7.269531 4.679688 5.996094 C 5.625 4.722656 6.101562 2.902344 6.101562 0.53125 L 6.101562 -29.609375 L 11.753906 -29.640625 L 11.753906 -5.65625 L 18.269531 -5.65625 L 18.269531 0 L 11.753906 0 L 11.753906 1.65625 C 11.753906 3.988281 11.355469 6.03125 10.554688 7.789062 C 9.757812 9.542969 8.488281 10.929688 6.75 11.949219 C 5.015625 12.964844 2.8125 13.472656 0.148438 13.472656 Z M 8.851562 -32.867188 C 7.886719 -32.867188 7.058594 -33.210938 6.367188 -33.902344 C 5.675781 -34.59375 5.328125 -35.433594 5.328125 -36.421875 C 5.328125 -37.40625 5.675781 -38.242188 6.367188 -38.921875 C 7.058594 -39.601562 7.886719 -39.945312 8.851562 -39.945312 C 9.839844 -39.945312 10.679688 -39.597656 11.371094 -38.90625 C 12.0625 -38.214844 12.40625 -37.386719 12.40625 -36.421875 C 12.40625 -35.453125 12.0625 -34.617188 11.371094 -33.917969 C 10.679688 -33.21875 9.839844 -32.867188 8.851562 -32.867188 Z M 8.851562 -32.867188 "/></g></g></g><g fill="#0054a6" fill-opacity="1"><g transform="translate(90.999199, 51.470701)"><g><path d="M -0.59375 -5.65625 L 30.113281 -5.65625 L 30.082031 -9.769531 C 30.0625 -12.632812 29.457031 -15.128906 28.261719 -17.261719 C 27.066406 -19.394531 25.40625 -21.042969 23.273438 -22.207031 C 21.140625 -23.371094 18.652344 -23.953125 15.8125 -23.953125 L 4.234375 -23.953125 L 4.234375 -29.609375 L 22.949219 -46.191406 L 30.585938 -46.191406 L 11.636719 -29.609375 L 16.109375 -29.609375 C 19.820312 -29.609375 23.160156 -28.785156 26.128906 -27.136719 C 29.101562 -25.488281 31.441406 -23.175781 33.148438 -20.195312 C 34.855469 -17.214844 35.71875 -13.828125 35.738281 -10.039062 L 35.769531 -5.65625 L 41.335938 -5.65625 L 41.335938 0 L -0.59375 0 Z M -0.59375 -5.65625 "/></g></g></g><g fill="#0054a6" fill-opacity="1"><g transform="translate(130.851097, 51.470701)"><g><path d="M -0.59375 -5.65625 L 23.09375 -5.65625 L 23.09375 0 L -0.59375 0 Z M -0.59375 -5.65625 "/></g></g></g><g fill="#0054a6" fill-opacity="1"><g transform="translate(152.464609, 51.470701)"><g><path d="M -0.59375 -5.65625 L 1.007812 -5.65625 C 2.566406 -5.65625 3.730469 -6.183594 4.5 -7.238281 C 5.269531 -8.296875 5.65625 -9.761719 5.65625 -11.636719 L 5.65625 -29.609375 L 11.339844 -29.609375 L 11.339844 -11.636719 C 11.339844 -9.308594 10.925781 -7.269531 10.097656 -5.523438 C 9.269531 -3.773438 8.074219 -2.417969 6.515625 -1.449219 C 4.953125 -0.484375 3.117188 0 1.007812 0 L -0.59375 0 Z M 8.261719 -32.867188 C 7.292969 -32.867188 6.46875 -33.210938 5.789062 -33.902344 C 5.109375 -34.59375 4.765625 -35.433594 4.765625 -36.421875 C 4.765625 -37.40625 5.109375 -38.242188 5.789062 -38.921875 C 6.46875 -39.601562 7.292969 -39.945312 8.261719 -39.945312 C 9.25 -39.945312 10.09375 -39.597656 10.792969 -38.90625 C 11.492188 -38.214844 11.84375 -37.386719 11.84375 -36.421875 C 11.84375 -35.453125 11.492188 -34.617188 10.792969 -33.917969 C 10.09375 -33.21875 9.25 -32.867188 8.261719 -32.867188 Z M 8.261719 -32.867188 "/></g></g></g></svg>