<svg version="1.1" id="Layer_1" xmlns="http://www.w3.org/2000/svg" xmlns:xlink="http://www.w3.org/1999/xlink" x="0px" y="0px"
	 width="100%" viewBox="0 0 428 445" enable-background="new 0 0 428 445" xml:space="preserve">
<path fill="#FEFFFF" opacity="1.000000" stroke="none" 
	d="
M252.000000,446.000000 
	C168.023895,446.000000 84.547791,446.000000 1.035842,446.000000 
	C1.035842,297.733002 1.035842,149.466019 1.035842,1.099513 
	C143.559433,1.099513 286.118958,1.099513 428.839233,1.099513 
	C428.839233,149.333191 428.839233,297.666595 428.839233,446.000000 
	C370.132660,446.000000 311.316315,446.000000 252.000000,446.000000 
M377.178345,347.349731 
	C345.383423,319.960083 313.592743,292.565430 281.775391,265.201874 
	C280.685059,264.264191 279.335510,262.983917 278.092224,262.967560 
	C265.489899,262.801971 252.884521,262.866486 240.448715,262.866486 
	C239.941315,268.344147 239.724869,273.318542 238.986740,278.214264 
	C234.728104,306.460022 210.040497,324.665100 182.298431,320.138000 
	C158.718048,316.290009 140.580704,293.209930 142.183716,269.091431 
	C143.841690,244.146240 164.078217,223.505127 188.351318,223.103271 
	C218.669662,222.601318 249.001175,222.892685 279.326996,222.842209 
	C281.113037,222.839233 282.899048,222.841827 284.923065,222.841827 
	C284.923065,195.891891 284.923065,169.460312 284.923065,142.457825 
	C283.017090,142.457825 281.226318,142.457840 279.435577,142.457840 
	C250.607681,142.457825 221.779526,142.387787 192.951996,142.490753 
	C180.683487,142.534576 169.651703,139.274994 160.078964,131.446548 
	C158.743027,130.354034 157.257111,129.444946 155.840622,128.450943 
	C156.218903,127.949951 156.597183,127.448959 156.975479,126.947968 
	C200.033264,126.947968 243.091064,126.947968 286.269958,126.947968 
	C286.269958,100.084824 286.269958,73.656525 286.269958,47.089447 
	C211.423889,47.089447 136.850250,47.089447 61.997066,47.089447 
	C61.997066,64.960922 61.706093,82.583931 62.075733,100.193069 
	C62.476376,119.278908 66.929176,137.565414 76.457169,154.148972 
	C82.287804,164.297241 89.572304,173.610184 96.286407,183.418869 
	C49.962318,229.616516 51.604454,310.112518 94.124390,357.899780 
	C140.808456,410.367035 223.563354,415.777802 273.563812,371.815063 
	C282.367371,380.340088 291.253448,388.832092 299.988068,397.477173 
	C302.384308,399.848785 304.839325,400.941650 308.308838,400.919678 
	C331.803467,400.770599 355.299500,400.841858 378.795074,400.841858 
	C380.416534,400.841858 382.038025,400.841858 384.167542,400.841858 
	C384.167542,387.398193 383.822144,374.433929 384.318542,361.501953 
	C384.553894,355.370514 382.992523,350.906158 377.178345,347.349731 
z"/>
<path fill="#0255A7" opacity="1.000000" stroke="none" 
	d="
M377.448730,347.585205 
	C382.992523,350.906158 384.553894,355.370514 384.318542,361.501953 
	C383.822144,374.433929 384.167542,387.398193 384.167542,400.841858 
	C382.038025,400.841858 380.416534,400.841858 378.795074,400.841858 
	C355.299500,400.841858 331.803467,400.770599 308.308838,400.919678 
	C304.839325,400.941650 302.384308,399.848785 299.988068,397.477173 
	C291.253448,388.832092 282.367371,380.340088 273.563812,371.815063 
	C223.563354,415.777802 140.808456,410.367035 94.124390,357.899780 
	C51.604454,310.112518 49.962318,229.616516 96.286407,183.418869 
	C89.572304,173.610184 82.287804,164.297241 76.457169,154.148972 
	C66.929176,137.565414 62.476376,119.278908 62.075733,100.193069 
	C61.706093,82.583931 61.997066,64.960922 61.997066,47.089447 
	C136.850250,47.089447 211.423889,47.089447 286.269958,47.089447 
	C286.269958,73.656525 286.269958,100.084824 286.269958,126.947968 
	C243.091064,126.947968 200.033264,126.947968 156.975479,126.947968 
	C156.597183,127.448959 156.218903,127.949951 155.840622,128.450943 
	C157.257111,129.444946 158.743027,130.354034 160.078964,131.446548 
	C169.651703,139.274994 180.683487,142.534576 192.951996,142.490753 
	C221.779526,142.387787 250.607681,142.457825 279.435577,142.457840 
	C281.226318,142.457840 283.017090,142.457825 284.923065,142.457825 
	C284.923065,169.460312 284.923065,195.891891 284.923065,222.841827 
	C282.899048,222.841827 281.113037,222.839233 279.326996,222.842209 
	C249.001175,222.892685 218.669662,222.601318 188.351318,223.103271 
	C164.078217,223.505127 143.841690,244.146240 142.183716,269.091431 
	C140.580704,293.209930 158.718048,316.290009 182.298431,320.138000 
	C210.040497,324.665100 234.728104,306.460022 238.986740,278.214264 
	C239.724869,273.318542 239.941315,268.344147 240.448715,262.866486 
	C252.884521,262.866486 265.489899,262.801971 278.092224,262.967560 
	C279.335510,262.983917 280.685059,264.264191 281.775391,265.201874 
	C313.592743,292.565430 345.383423,319.960083 377.448730,347.585205 
M137.750305,356.800049 
	C177.863419,383.342621 231.823715,371.633057 250.234009,351.527466 
	C245.539993,346.340637 240.882217,341.193878 236.095932,335.905121 
	C218.608276,348.328857 199.381439,352.313080 178.576859,349.168304 
	C134.836258,342.556580 105.432571,298.866455 114.428322,255.621613 
	C121.079674,223.646896 152.541824,192.402695 191.803238,193.728409 
	C211.445877,194.391678 231.129456,193.862335 250.794388,193.817490 
	C252.957794,193.812561 255.858215,194.644058 255.876389,190.859283 
	C255.905777,184.738388 255.884293,178.617233 255.884293,171.843369 
	C253.556122,171.843369 251.782074,171.843369 250.008026,171.843369 
	C230.842941,171.843353 211.676514,171.987442 192.513092,171.808990 
	C164.913818,171.551987 141.267593,181.288895 121.866745,200.557785 
	C96.622444,225.630386 86.696976,256.049622 92.918427,291.270355 
	C97.905663,319.503967 114.331741,340.167297 137.750305,356.800049 
M140.209885,152.990173 
	C122.958862,138.711670 115.645508,119.124138 110.463585,97.835701 
	C159.527084,97.835701 208.139023,97.835701 256.763306,97.835701 
	C256.763306,90.478447 256.763306,83.448433 256.763306,76.541901 
	C201.304214,76.541901 146.247101,76.541901 91.357521,76.541901 
	C88.966347,110.017433 95.151299,140.261581 120.608681,164.061356 
	C127.311104,160.534027 133.907547,157.062469 140.209885,152.990173 
M354.863373,368.806274 
	C353.151611,366.677429 351.714569,364.232391 349.685303,362.468903 
	C330.462250,345.764038 311.145111,329.167328 291.840576,312.556366 
	C283.542328,305.415985 275.210022,298.315247 266.577118,290.925995 
	C265.262573,294.568970 264.241211,297.689301 263.016083,300.727448 
	C261.121185,305.426575 256.862671,310.541718 257.725403,314.606140 
	C258.623352,318.836243 264.365967,322.073395 268.065491,325.667175 
	C282.397217,339.589264 296.703857,353.538300 311.172119,367.317383 
	C313.212524,369.260590 316.046112,371.472321 318.599213,371.584320 
	C329.405823,372.058441 340.246246,371.858124 351.071045,371.690552 
	C352.337921,371.670959 353.584351,370.327881 354.863373,368.806274 
z"/>
<path fill="#68B2E2" opacity="1.000000" stroke="none" 
	d="
M137.453796,356.592102 
	C114.331741,340.167297 97.905663,319.503967 92.918427,291.270355 
	C86.696976,256.049622 96.622444,225.630386 121.866745,200.557785 
	C141.267593,181.288895 164.913818,171.551987 192.513092,171.808990 
	C211.676514,171.987442 230.842941,171.843353 250.008026,171.843369 
	C251.782074,171.843369 253.556122,171.843369 255.884293,171.843369 
	C255.884293,178.617233 255.905777,184.738388 255.876389,190.859283 
	C255.858215,194.644058 252.957794,193.812561 250.794388,193.817490 
	C231.129456,193.862335 211.445877,194.391678 191.803238,193.728409 
	C152.541824,192.402695 121.079674,223.646896 114.428322,255.621613 
	C105.432571,298.866455 134.836258,342.556580 178.576859,349.168304 
	C199.381439,352.313080 218.608276,348.328857 236.095932,335.905121 
	C240.882217,341.193878 245.539993,346.340637 250.234009,351.527466 
	C231.823715,371.633057 177.863419,383.342621 137.453796,356.592102 
z"/>
<path fill="#FCFDFE" opacity="1.000000" stroke="none" 
	d="
M140.356934,153.290527 
	C133.907547,157.062469 127.311104,160.534027 120.608681,164.061356 
	C95.151299,140.261581 88.966347,110.017433 91.357521,76.541901 
	C146.247101,76.541901 201.304214,76.541901 256.763306,76.541901 
	C256.763306,83.448433 256.763306,90.478447 256.763306,97.835701 
	C208.139023,97.835701 159.527084,97.835701 110.463585,97.835701 
	C115.645508,119.124138 122.958862,138.711670 140.356934,153.290527 
z"/>
<path fill="#86B7E1" opacity="1.000000" stroke="none" 
	d="
M354.851807,369.202332 
	C353.584351,370.327881 352.337921,371.670959 351.071045,371.690552 
	C340.246246,371.858124 329.405823,372.058441 318.599213,371.584320 
	C316.046112,371.472321 313.212524,369.260590 311.172119,367.317383 
	C296.703857,353.538300 282.397217,339.589264 268.065491,325.667175 
	C264.365967,322.073395 258.623352,318.836243 257.725403,314.606140 
	C256.862671,310.541718 261.121185,305.426575 263.016083,300.727448 
	C264.241211,297.689301 265.262573,294.568970 266.577118,290.925995 
	C275.210022,298.315247 283.542328,305.415985 291.840576,312.556366 
	C311.145111,329.167328 330.462250,345.764038 349.685303,362.468903 
	C351.714569,364.232391 353.151611,366.677429 354.851807,369.202332 
z"/>
</svg>