<svg xmlns="http://www.w3.org/2000/svg" xmlns:xlink="http://www.w3.org/1999/xlink" width="500" zoomAndPan="magnify" viewBox="0 0 375 374.999991" height="500" preserveAspectRatio="xMidYMid meet" version="1.0"><path fill="#fd2525" d="M 363.105469 310.738281 C 374.851562 290.386719 367.882812 264.363281 347.550781 252.613281 C 327.214844 240.863281 301.210938 247.839844 289.472656 268.191406 C 287.140625 272.226562 285.558594 276.480469 284.65625 280.808594 L 228.992188 280.808594 C 227.128906 271.9375 222.457031 263.691406 215.359375 257.5 L 243.167969 209.292969 C 262.011719 215.753906 283.386719 208.210938 293.722656 190.300781 C 305.457031 169.945312 298.496094 143.921875 278.15625 132.171875 C 266.65625 125.527344 253.34375 124.875 241.820312 129.242188 L 214.339844 81.605469 C 218.253906 78.425781 221.664062 74.488281 224.335938 69.859375 C 236.082031 49.507812 229.109375 23.488281 208.777344 11.738281 C 188.441406 -0.0117188 162.441406 6.960938 150.695312 27.308594 C 138.960938 47.660156 145.929688 73.683594 166.261719 85.433594 C 176.839844 91.546875 188.957031 92.589844 199.804688 89.316406 L 227.855469 137.945312 C 224.867188 140.738281 222.238281 144.019531 220.085938 147.75 C 217.613281 152.039062 215.972656 156.585938 215.105469 161.195312 L 159.765625 161.195312 C 157.539062 149.449219 150.410156 138.703125 139.25 132.253906 C 118.914062 120.503906 92.917969 127.480469 81.175781 147.828125 C 70.847656 165.742188 75 188.042969 90.011719 201.148438 L 62.210938 249.351562 C 43.363281 242.886719 21.988281 250.433594 11.652344 268.347656 C -0.0820312 288.695312 6.878906 314.722656 27.214844 326.46875 C 47.550781 338.222656 73.546875 331.246094 85.289062 310.898438 C 95.621094 292.984375 91.464844 270.679688 76.449219 257.578125 L 104.253906 209.371094 C 113.417969 212.515625 123.183594 212.34375 131.980469 209.277344 L 159.660156 257.265625 C 156.117188 260.304688 153.027344 263.992188 150.5625 268.265625 C 138.820312 288.621094 145.785156 314.644531 166.125 326.390625 C 186.457031 338.140625 212.457031 331.164062 224.195312 310.816406 C 226.691406 306.492188 228.339844 301.910156 229.195312 297.261719 L 284.5 297.261719 C 286.707031 309.050781 293.839844 319.835938 305.035156 326.308594 C 325.367188 338.058594 351.367188 331.085938 363.105469 310.738281 Z M 215.277344 177.652344 C 217.125 186.558594 221.800781 194.847656 228.925781 201.066406 L 201.121094 249.269531 C 192.164062 246.195312 182.625 246.292969 173.976562 249.167969 L 146.175781 200.972656 C 149.519531 198.003906 152.453125 194.464844 154.8125 190.375 C 157.164062 186.308594 158.757812 182.007812 159.648438 177.652344 Z M 215.277344 177.652344 " fill-opacity="1" fill-rule="nonzero"/></svg>