<svg xmlns="http://www.w3.org/2000/svg" xmlns:xlink="http://www.w3.org/1999/xlink" width="500" zoomAndPan="magnify" viewBox="0 0 375 112.499997" height="150" preserveAspectRatio="xMidYMid meet" version="1.0"><defs><g/><clipPath id="eea9d3a1e7"><path d="M 0.828125 0 L 374.167969 0 L 374.167969 112.003906 L 0.828125 112.003906 Z M 0.828125 0 " clip-rule="nonzero"/></clipPath></defs><g clip-path="url(#eea9d3a1e7)"><path fill="#ffffff" d="M 0.828125 0 L 374.171875 0 L 374.171875 119.46875 L 0.828125 119.46875 Z M 0.828125 0 " fill-opacity="1" fill-rule="nonzero"/><path fill="#ffffff" d="M 0.828125 0 L 374.171875 0 L 374.171875 112.003906 L 0.828125 112.003906 Z M 0.828125 0 " fill-opacity="1" fill-rule="nonzero"/><path fill="#ffffff" d="M 0.828125 0 L 374.171875 0 L 374.171875 112.003906 L 0.828125 112.003906 Z M 0.828125 0 " fill-opacity="1" fill-rule="nonzero"/></g><path fill="#fd2525" d="M 105.828125 87.152344 C 108.332031 82.839844 106.84375 77.324219 102.511719 74.835938 C 98.179688 72.34375 92.640625 73.824219 90.136719 78.136719 C 89.640625 78.992188 89.304688 79.894531 89.113281 80.808594 L 77.25 80.808594 C 76.851562 78.929688 75.859375 77.183594 74.34375 75.871094 L 80.269531 65.65625 C 84.285156 67.023438 88.839844 65.425781 91.042969 61.628906 C 93.542969 57.316406 92.0625 51.800781 87.726562 49.3125 C 85.277344 47.902344 82.4375 47.765625 79.984375 48.691406 L 74.128906 38.59375 C 74.960938 37.921875 75.6875 37.085938 76.257812 36.105469 C 78.761719 31.792969 77.277344 26.277344 72.941406 23.789062 C 68.609375 21.296875 63.070312 22.777344 60.566406 27.089844 C 58.066406 31.402344 59.550781 36.917969 63.882812 39.40625 C 66.136719 40.703125 68.71875 40.921875 71.03125 40.230469 L 77.007812 50.535156 C 76.371094 51.125 75.8125 51.820312 75.351562 52.613281 C 74.824219 53.523438 74.476562 54.484375 74.292969 55.460938 L 62.5 55.460938 C 62.023438 52.972656 60.507812 50.695312 58.128906 49.328125 C 53.792969 46.839844 48.253906 48.316406 45.753906 52.628906 C 43.550781 56.425781 44.4375 61.152344 47.636719 63.929688 L 41.710938 74.144531 C 37.695312 72.773438 33.140625 74.371094 30.9375 78.167969 C 28.4375 82.480469 29.921875 87.996094 34.253906 90.484375 C 38.589844 92.976562 44.128906 91.5 46.628906 87.1875 C 48.832031 83.390625 47.945312 78.664062 44.746094 75.886719 L 50.671875 65.671875 C 52.625 66.335938 54.703125 66.300781 56.578125 65.652344 L 62.476562 75.820312 C 61.722656 76.464844 61.0625 77.246094 60.539062 78.152344 C 58.035156 82.464844 59.519531 87.980469 63.855469 90.46875 C 68.1875 92.960938 73.726562 91.480469 76.226562 87.167969 C 76.761719 86.253906 77.113281 85.28125 77.292969 84.296875 L 89.078125 84.296875 C 89.546875 86.792969 91.066406 89.082031 93.453125 90.453125 C 97.785156 92.941406 103.328125 91.464844 105.828125 87.152344 Z M 74.328125 58.949219 C 74.722656 60.835938 75.71875 62.59375 77.234375 63.910156 L 71.3125 74.125 C 69.402344 73.476562 67.371094 73.496094 65.527344 74.105469 L 59.601562 63.890625 C 60.316406 63.261719 60.941406 62.511719 61.445312 61.644531 C 61.945312 60.785156 62.285156 59.871094 62.472656 58.949219 Z M 74.328125 58.949219 " fill-opacity="1" fill-rule="nonzero"/><g fill="#1c1d33" fill-opacity="1"><g transform="translate(125.064775, 47.422809)"><g><path d="M 11.964844 0 L 11.964844 -17.945312 L 18.363281 -17.945312 L 18.363281 -22.707031 L 0.238281 -22.707031 L 0.238281 -17.945312 L 6.636719 -17.945312 L 6.636719 0 Z M 11.964844 0 "/></g></g></g><g fill="#1c1d33" fill-opacity="1"><g transform="translate(145.152351, 47.422809)"><g><path d="M 17.289062 0 L 17.289062 -4.761719 L 7.113281 -4.761719 L 7.113281 -8.988281 L 16.308594 -8.988281 L 16.308594 -13.71875 L 7.113281 -13.71875 L 7.113281 -17.945312 L 17.289062 -17.945312 L 17.289062 -22.707031 L 1.785156 -22.707031 L 1.785156 0 Z M 17.289062 0 "/></g></g></g><g fill="#1c1d33" fill-opacity="1"><g transform="translate(165.210171, 47.422809)"><g><path d="M 12.292969 0.507812 C 18.273438 0.507812 21.753906 -2.796875 22.351562 -7.707031 L 16.515625 -7.707031 C 16.160156 -5.328125 14.433594 -4.253906 12.171875 -4.253906 C 8.570312 -4.253906 6.578125 -7.054688 6.578125 -11.367188 C 6.578125 -15.652344 8.570312 -18.421875 12.171875 -18.421875 C 14.433594 -18.421875 16.191406 -17.351562 16.515625 -15.027344 L 22.351562 -15.027344 C 21.753906 -19.910156 18.273438 -23.183594 12.292969 -23.183594 C 4.523438 -23.183594 0.953125 -17.707031 0.953125 -11.367188 C 0.953125 -5.03125 4.523438 0.507812 12.292969 0.507812 Z M 12.292969 0.507812 "/></g></g></g><g fill="#1c1d33" fill-opacity="1"><g transform="translate(189.880642, 47.422809)"><g><path d="M 7.113281 0 L 7.113281 -8.957031 L 15.742188 -8.957031 L 15.742188 0 L 21.070312 0 L 21.070312 -22.707031 L 15.742188 -22.707031 L 15.742188 -13.71875 L 7.113281 -13.71875 L 7.113281 -22.707031 L 1.785156 -22.707031 L 1.785156 0 Z M 7.113281 0 "/></g></g></g><g fill="#1c1d33" fill-opacity="1"><g transform="translate(218.373341, 47.422809)"><g><path d="M 4.40625 0 L 4.40625 -20.742188 L 15.414062 0 L 18.570312 0 L 18.570312 -22.707031 L 16.546875 -22.707031 L 16.546875 -1.875 L 5.503906 -22.707031 L 2.351562 -22.707031 L 2.351562 0 Z M 4.40625 0 "/></g></g></g><g fill="#1c1d33" fill-opacity="1"><g transform="translate(241.407143, 47.422809)"><g><path d="M 16.816406 0 L 16.816406 -1.84375 L 4.40625 -1.84375 L 4.40625 -10.476562 L 15.296875 -10.476562 L 15.296875 -12.320312 L 4.40625 -12.320312 L 4.40625 -20.863281 L 16.816406 -20.863281 L 16.816406 -22.707031 L 2.351562 -22.707031 L 2.351562 0 Z M 16.816406 0 "/></g></g></g><g fill="#1c1d33" fill-opacity="1"><g transform="translate(261.61383, 47.422809)"><g><path d="M 3.003906 0 L 9.878906 -9.941406 L 16.816406 0 L 19.253906 0 L 11.277344 -11.457031 L 19.105469 -22.707031 L 16.636719 -22.707031 L 9.910156 -12.855469 L 3.15625 -22.707031 L 0.714844 -22.707031 L 8.542969 -11.457031 L 0.566406 0 Z M 3.003906 0 "/></g></g></g><g fill="#1c1d33" fill-opacity="1"><g transform="translate(283.546547, 47.422809)"><g><path d="M 10.238281 0.296875 C 15.804688 0.296875 18.332031 -2.855469 18.332031 -8.035156 L 18.332031 -22.707031 L 16.277344 -22.707031 L 16.277344 -8.035156 C 16.277344 -3.988281 14.492188 -1.546875 10.238281 -1.546875 C 5.980469 -1.546875 4.195312 -3.988281 4.195312 -8.035156 L 4.195312 -22.707031 L 2.144531 -22.707031 L 2.144531 -8.035156 C 2.144531 -2.855469 4.671875 0.296875 10.238281 0.296875 Z M 10.238281 0.296875 "/></g></g></g><g fill="#1c1d33" fill-opacity="1"><g transform="translate(306.133962, 47.422809)"><g><path d="M 10.089844 0.296875 C 15.238281 0.296875 17.976562 -2.378906 17.976562 -6.339844 C 17.976562 -11.160156 13.957031 -12.054688 10.265625 -12.855469 C 7.140625 -13.542969 4.226562 -14.195312 4.226562 -17.171875 C 4.226562 -19.640625 6.429688 -21.160156 9.523438 -21.160156 C 12.441406 -21.160156 14.640625 -19.96875 15.265625 -16.726562 L 17.230469 -16.726562 C 16.515625 -21.160156 13.511719 -23.003906 9.554688 -23.003906 C 5.328125 -23.003906 2.171875 -20.683594 2.171875 -17.023438 C 2.171875 -12.648438 5.890625 -11.84375 9.464844 -11.070312 C 12.765625 -10.355469 15.921875 -9.671875 15.921875 -6.25 C 15.921875 -3.304688 13.839844 -1.546875 10.238281 -1.546875 C 7.203125 -1.546875 4.019531 -2.707031 3.363281 -6.429688 L 1.28125 -6.429688 C 2.023438 -1.636719 5.804688 0.296875 10.089844 0.296875 Z M 10.089844 0.296875 "/></g></g></g><g fill="#fd2525" fill-opacity="1"><g transform="translate(133.683308, 63.61664)"><g><path d="M 4.28125 -4.71875 L 2.5625 -4.71875 L 2.5625 0 L 1.84375 0 L 1.84375 -4.71875 L 0.109375 -4.71875 L 0.109375 -5.328125 L 4.28125 -5.328125 Z M 4.28125 -4.71875 "/></g></g></g><g fill="#fd2525" fill-opacity="1"><g transform="translate(142.980622, 63.61664)"><g><path d="M 3.96875 -0.59375 L 3.96875 0 L 0.6875 0 L 0.6875 -5.328125 L 3.96875 -5.328125 L 3.96875 -4.734375 L 1.40625 -4.734375 L 1.40625 -2.96875 L 3.484375 -2.96875 L 3.484375 -2.40625 L 1.40625 -2.40625 L 1.40625 -0.59375 Z M 3.96875 -0.59375 "/></g></g></g><g fill="#fd2525" fill-opacity="1"><g transform="translate(152.181211, 63.61664)"><g><path d="M 4.421875 -1.09375 C 4.460938 -1.09375 4.5 -1.078125 4.53125 -1.046875 L 4.8125 -0.75 C 4.59375 -0.488281 4.328125 -0.285156 4.015625 -0.140625 C 3.703125 -0.00390625 3.328125 0.0625 2.890625 0.0625 C 2.503906 0.0625 2.15625 -0.00390625 1.84375 -0.140625 C 1.53125 -0.273438 1.265625 -0.460938 1.046875 -0.703125 C 0.828125 -0.941406 0.65625 -1.226562 0.53125 -1.5625 C 0.414062 -1.894531 0.359375 -2.257812 0.359375 -2.65625 C 0.359375 -3.0625 0.421875 -3.429688 0.546875 -3.765625 C 0.671875 -4.097656 0.847656 -4.382812 1.078125 -4.625 C 1.304688 -4.863281 1.578125 -5.050781 1.890625 -5.1875 C 2.210938 -5.320312 2.566406 -5.390625 2.953125 -5.390625 C 3.335938 -5.390625 3.675781 -5.328125 3.96875 -5.203125 C 4.257812 -5.085938 4.515625 -4.925781 4.734375 -4.71875 L 4.5 -4.375 C 4.476562 -4.351562 4.457031 -4.332031 4.4375 -4.3125 C 4.414062 -4.300781 4.382812 -4.296875 4.34375 -4.296875 C 4.289062 -4.296875 4.234375 -4.316406 4.171875 -4.359375 C 4.109375 -4.410156 4.023438 -4.46875 3.921875 -4.53125 C 3.816406 -4.59375 3.6875 -4.644531 3.53125 -4.6875 C 3.375 -4.738281 3.179688 -4.765625 2.953125 -4.765625 C 2.679688 -4.765625 2.429688 -4.71875 2.203125 -4.625 C 1.972656 -4.53125 1.773438 -4.390625 1.609375 -4.203125 C 1.441406 -4.023438 1.3125 -3.804688 1.21875 -3.546875 C 1.132812 -3.285156 1.09375 -2.988281 1.09375 -2.65625 C 1.09375 -2.332031 1.140625 -2.039062 1.234375 -1.78125 C 1.328125 -1.519531 1.457031 -1.296875 1.625 -1.109375 C 1.789062 -0.929688 1.984375 -0.796875 2.203125 -0.703125 C 2.429688 -0.609375 2.675781 -0.5625 2.9375 -0.5625 C 3.09375 -0.5625 3.234375 -0.570312 3.359375 -0.59375 C 3.492188 -0.613281 3.613281 -0.640625 3.71875 -0.671875 C 3.820312 -0.710938 3.921875 -0.765625 4.015625 -0.828125 C 4.109375 -0.890625 4.203125 -0.960938 4.296875 -1.046875 C 4.335938 -1.078125 4.378906 -1.09375 4.421875 -1.09375 Z M 4.421875 -1.09375 "/></g></g></g><g fill="#fd2525" fill-opacity="1"><g transform="translate(162.055192, 63.61664)"><g><path d="M 5 -5.328125 L 5 0 L 4.28125 0 L 4.28125 -2.421875 L 1.40625 -2.421875 L 1.40625 0 L 0.6875 0 L 0.6875 -5.328125 L 1.40625 -5.328125 L 1.40625 -2.953125 L 4.28125 -2.953125 L 4.28125 -5.328125 Z M 5 -5.328125 "/></g></g></g><g fill="#fd2525" fill-opacity="1"><g transform="translate(172.639778, 63.61664)"><g><path d="M 5 -5.328125 L 5 0 L 4.640625 0 C 4.578125 0 4.523438 -0.0078125 4.484375 -0.03125 C 4.453125 -0.0507812 4.414062 -0.0820312 4.375 -0.125 L 1.296875 -4.140625 C 1.304688 -4.078125 1.3125 -4.015625 1.3125 -3.953125 C 1.3125 -3.898438 1.3125 -3.847656 1.3125 -3.796875 L 1.3125 0 L 0.6875 0 L 0.6875 -5.328125 L 1.046875 -5.328125 C 1.078125 -5.328125 1.101562 -5.320312 1.125 -5.3125 C 1.15625 -5.3125 1.175781 -5.304688 1.1875 -5.296875 C 1.207031 -5.296875 1.222656 -5.285156 1.234375 -5.265625 C 1.253906 -5.253906 1.273438 -5.234375 1.296875 -5.203125 L 4.390625 -1.1875 C 4.378906 -1.257812 4.367188 -1.320312 4.359375 -1.375 C 4.359375 -1.4375 4.359375 -1.492188 4.359375 -1.546875 L 4.359375 -5.328125 Z M 5 -5.328125 "/></g></g></g><g fill="#fd2525" fill-opacity="1"><g transform="translate(183.224364, 63.61664)"><g><path d="M 5.609375 -2.65625 C 5.609375 -2.257812 5.539062 -1.894531 5.40625 -1.5625 C 5.28125 -1.226562 5.101562 -0.941406 4.875 -0.703125 C 4.644531 -0.460938 4.367188 -0.273438 4.046875 -0.140625 C 3.722656 -0.00390625 3.363281 0.0625 2.96875 0.0625 C 2.582031 0.0625 2.226562 -0.00390625 1.90625 -0.140625 C 1.582031 -0.273438 1.304688 -0.460938 1.078125 -0.703125 C 0.847656 -0.941406 0.664062 -1.226562 0.53125 -1.5625 C 0.40625 -1.894531 0.34375 -2.257812 0.34375 -2.65625 C 0.34375 -3.0625 0.40625 -3.429688 0.53125 -3.765625 C 0.664062 -4.097656 0.847656 -4.382812 1.078125 -4.625 C 1.304688 -4.863281 1.582031 -5.050781 1.90625 -5.1875 C 2.226562 -5.320312 2.582031 -5.390625 2.96875 -5.390625 C 3.363281 -5.390625 3.722656 -5.320312 4.046875 -5.1875 C 4.367188 -5.050781 4.644531 -4.863281 4.875 -4.625 C 5.101562 -4.382812 5.28125 -4.097656 5.40625 -3.765625 C 5.539062 -3.429688 5.609375 -3.0625 5.609375 -2.65625 Z M 4.859375 -2.65625 C 4.859375 -2.988281 4.8125 -3.285156 4.71875 -3.546875 C 4.632812 -3.804688 4.507812 -4.023438 4.34375 -4.203125 C 4.1875 -4.378906 3.988281 -4.515625 3.75 -4.609375 C 3.519531 -4.710938 3.257812 -4.765625 2.96875 -4.765625 C 2.6875 -4.765625 2.425781 -4.710938 2.1875 -4.609375 C 1.957031 -4.515625 1.757812 -4.378906 1.59375 -4.203125 C 1.4375 -4.023438 1.3125 -3.804688 1.21875 -3.546875 C 1.125 -3.285156 1.078125 -2.988281 1.078125 -2.65625 C 1.078125 -2.332031 1.125 -2.039062 1.21875 -1.78125 C 1.3125 -1.519531 1.4375 -1.300781 1.59375 -1.125 C 1.757812 -0.945312 1.957031 -0.804688 2.1875 -0.703125 C 2.425781 -0.609375 2.6875 -0.5625 2.96875 -0.5625 C 3.257812 -0.5625 3.519531 -0.609375 3.75 -0.703125 C 3.988281 -0.804688 4.1875 -0.945312 4.34375 -1.125 C 4.507812 -1.300781 4.632812 -1.519531 4.71875 -1.78125 C 4.8125 -2.039062 4.859375 -2.332031 4.859375 -2.65625 Z M 4.859375 -2.65625 "/></g></g></g><g fill="#fd2525" fill-opacity="1"><g transform="translate(194.084257, 63.61664)"><g><path d="M 3.703125 -0.609375 L 3.703125 0 L 0.6875 0 L 0.6875 -5.328125 L 1.390625 -5.328125 L 1.390625 -0.609375 Z M 3.703125 -0.609375 "/></g></g></g><g fill="#fd2525" fill-opacity="1"><g transform="translate(202.80863, 63.61664)"><g><path d="M 5.609375 -2.65625 C 5.609375 -2.257812 5.539062 -1.894531 5.40625 -1.5625 C 5.28125 -1.226562 5.101562 -0.941406 4.875 -0.703125 C 4.644531 -0.460938 4.367188 -0.273438 4.046875 -0.140625 C 3.722656 -0.00390625 3.363281 0.0625 2.96875 0.0625 C 2.582031 0.0625 2.226562 -0.00390625 1.90625 -0.140625 C 1.582031 -0.273438 1.304688 -0.460938 1.078125 -0.703125 C 0.847656 -0.941406 0.664062 -1.226562 0.53125 -1.5625 C 0.40625 -1.894531 0.34375 -2.257812 0.34375 -2.65625 C 0.34375 -3.0625 0.40625 -3.429688 0.53125 -3.765625 C 0.664062 -4.097656 0.847656 -4.382812 1.078125 -4.625 C 1.304688 -4.863281 1.582031 -5.050781 1.90625 -5.1875 C 2.226562 -5.320312 2.582031 -5.390625 2.96875 -5.390625 C 3.363281 -5.390625 3.722656 -5.320312 4.046875 -5.1875 C 4.367188 -5.050781 4.644531 -4.863281 4.875 -4.625 C 5.101562 -4.382812 5.28125 -4.097656 5.40625 -3.765625 C 5.539062 -3.429688 5.609375 -3.0625 5.609375 -2.65625 Z M 4.859375 -2.65625 C 4.859375 -2.988281 4.8125 -3.285156 4.71875 -3.546875 C 4.632812 -3.804688 4.507812 -4.023438 4.34375 -4.203125 C 4.1875 -4.378906 3.988281 -4.515625 3.75 -4.609375 C 3.519531 -4.710938 3.257812 -4.765625 2.96875 -4.765625 C 2.6875 -4.765625 2.425781 -4.710938 2.1875 -4.609375 C 1.957031 -4.515625 1.757812 -4.378906 1.59375 -4.203125 C 1.4375 -4.023438 1.3125 -3.804688 1.21875 -3.546875 C 1.125 -3.285156 1.078125 -2.988281 1.078125 -2.65625 C 1.078125 -2.332031 1.125 -2.039062 1.21875 -1.78125 C 1.3125 -1.519531 1.4375 -1.300781 1.59375 -1.125 C 1.757812 -0.945312 1.957031 -0.804688 2.1875 -0.703125 C 2.425781 -0.609375 2.6875 -0.5625 2.96875 -0.5625 C 3.257812 -0.5625 3.519531 -0.609375 3.75 -0.703125 C 3.988281 -0.804688 4.1875 -0.945312 4.34375 -1.125 C 4.507812 -1.300781 4.632812 -1.519531 4.71875 -1.78125 C 4.8125 -2.039062 4.859375 -2.332031 4.859375 -2.65625 Z M 4.859375 -2.65625 "/></g></g></g><g fill="#fd2525" fill-opacity="1"><g transform="translate(213.668523, 63.61664)"><g><path d="M 5.015625 -2.5625 L 5.015625 -0.515625 C 4.742188 -0.328125 4.457031 -0.179688 4.15625 -0.078125 C 3.851562 0.015625 3.519531 0.0625 3.15625 0.0625 C 2.726562 0.0625 2.335938 -0.00390625 1.984375 -0.140625 C 1.640625 -0.273438 1.347656 -0.460938 1.109375 -0.703125 C 0.867188 -0.941406 0.679688 -1.226562 0.546875 -1.5625 C 0.410156 -1.894531 0.34375 -2.257812 0.34375 -2.65625 C 0.34375 -3.0625 0.40625 -3.429688 0.53125 -3.765625 C 0.664062 -4.109375 0.847656 -4.398438 1.078125 -4.640625 C 1.316406 -4.878906 1.601562 -5.0625 1.9375 -5.1875 C 2.28125 -5.320312 2.660156 -5.390625 3.078125 -5.390625 C 3.285156 -5.390625 3.476562 -5.375 3.65625 -5.34375 C 3.84375 -5.3125 4.007812 -5.265625 4.15625 -5.203125 C 4.3125 -5.148438 4.457031 -5.082031 4.59375 -5 C 4.726562 -4.914062 4.851562 -4.820312 4.96875 -4.71875 L 4.75 -4.390625 C 4.71875 -4.335938 4.675781 -4.300781 4.625 -4.28125 C 4.582031 -4.269531 4.53125 -4.285156 4.46875 -4.328125 C 4.40625 -4.359375 4.332031 -4.398438 4.25 -4.453125 C 4.175781 -4.503906 4.082031 -4.550781 3.96875 -4.59375 C 3.863281 -4.644531 3.734375 -4.6875 3.578125 -4.71875 C 3.429688 -4.75 3.253906 -4.765625 3.046875 -4.765625 C 2.753906 -4.765625 2.484375 -4.710938 2.234375 -4.609375 C 1.992188 -4.515625 1.785156 -4.375 1.609375 -4.1875 C 1.441406 -4.007812 1.3125 -3.789062 1.21875 -3.53125 C 1.125 -3.269531 1.078125 -2.976562 1.078125 -2.65625 C 1.078125 -2.320312 1.125 -2.023438 1.21875 -1.765625 C 1.320312 -1.503906 1.460938 -1.28125 1.640625 -1.09375 C 1.816406 -0.90625 2.03125 -0.765625 2.28125 -0.671875 C 2.53125 -0.578125 2.816406 -0.53125 3.140625 -0.53125 C 3.378906 -0.53125 3.59375 -0.554688 3.78125 -0.609375 C 3.976562 -0.660156 4.171875 -0.738281 4.359375 -0.84375 L 4.359375 -2.015625 L 3.53125 -2.015625 C 3.476562 -2.015625 3.4375 -2.023438 3.40625 -2.046875 C 3.382812 -2.078125 3.375 -2.113281 3.375 -2.15625 L 3.375 -2.5625 Z M 5.015625 -2.5625 "/></g></g></g><g fill="#fd2525" fill-opacity="1"><g transform="translate(224.007567, 63.61664)"><g><path d="M 2.6875 -2.125 L 2.6875 0 L 1.953125 0 L 1.953125 -2.125 L 0 -5.328125 L 0.640625 -5.328125 C 0.703125 -5.328125 0.75 -5.3125 0.78125 -5.28125 C 0.820312 -5.25 0.859375 -5.207031 0.890625 -5.15625 L 2.109375 -3.09375 C 2.148438 -3 2.1875 -2.914062 2.21875 -2.84375 C 2.257812 -2.769531 2.296875 -2.695312 2.328125 -2.625 C 2.359375 -2.695312 2.390625 -2.769531 2.421875 -2.84375 C 2.453125 -2.914062 2.488281 -3 2.53125 -3.09375 L 3.75 -5.15625 C 3.769531 -5.195312 3.800781 -5.234375 3.84375 -5.265625 C 3.882812 -5.304688 3.9375 -5.328125 4 -5.328125 L 4.640625 -5.328125 Z M 2.6875 -2.125 "/></g></g></g><g fill="#fd2525" fill-opacity="1"><g transform="translate(233.554156, 63.61664)"><g/></g></g><g fill="#fd2525" fill-opacity="1"><g transform="translate(240.362509, 63.61664)"><g><path d="M 3.40625 -4.5 C 3.382812 -4.457031 3.359375 -4.425781 3.328125 -4.40625 C 3.304688 -4.394531 3.273438 -4.390625 3.234375 -4.390625 C 3.191406 -4.390625 3.140625 -4.410156 3.078125 -4.453125 C 3.023438 -4.492188 2.957031 -4.535156 2.875 -4.578125 C 2.789062 -4.628906 2.6875 -4.675781 2.5625 -4.71875 C 2.445312 -4.769531 2.300781 -4.796875 2.125 -4.796875 C 1.96875 -4.796875 1.828125 -4.769531 1.703125 -4.71875 C 1.578125 -4.675781 1.472656 -4.617188 1.390625 -4.546875 C 1.304688 -4.472656 1.242188 -4.382812 1.203125 -4.28125 C 1.160156 -4.1875 1.140625 -4.078125 1.140625 -3.953125 C 1.140625 -3.804688 1.175781 -3.679688 1.25 -3.578125 C 1.320312 -3.484375 1.414062 -3.398438 1.53125 -3.328125 C 1.65625 -3.265625 1.796875 -3.207031 1.953125 -3.15625 C 2.109375 -3.101562 2.265625 -3.050781 2.421875 -3 C 2.578125 -2.945312 2.734375 -2.882812 2.890625 -2.8125 C 3.046875 -2.75 3.179688 -2.664062 3.296875 -2.5625 C 3.421875 -2.457031 3.519531 -2.328125 3.59375 -2.171875 C 3.664062 -2.023438 3.703125 -1.84375 3.703125 -1.625 C 3.703125 -1.382812 3.660156 -1.160156 3.578125 -0.953125 C 3.503906 -0.753906 3.390625 -0.578125 3.234375 -0.421875 C 3.078125 -0.273438 2.890625 -0.15625 2.671875 -0.0625 C 2.453125 0.0195312 2.203125 0.0625 1.921875 0.0625 C 1.566406 0.0625 1.25 0 0.96875 -0.125 C 0.6875 -0.25 0.445312 -0.421875 0.25 -0.640625 L 0.453125 -0.984375 C 0.472656 -1.003906 0.492188 -1.023438 0.515625 -1.046875 C 0.546875 -1.066406 0.582031 -1.078125 0.625 -1.078125 C 0.65625 -1.078125 0.691406 -1.0625 0.734375 -1.03125 C 0.773438 -1.007812 0.820312 -0.976562 0.875 -0.9375 C 0.925781 -0.894531 0.984375 -0.847656 1.046875 -0.796875 C 1.117188 -0.753906 1.195312 -0.710938 1.28125 -0.671875 C 1.363281 -0.640625 1.457031 -0.609375 1.5625 -0.578125 C 1.675781 -0.554688 1.800781 -0.546875 1.9375 -0.546875 C 2.101562 -0.546875 2.253906 -0.566406 2.390625 -0.609375 C 2.523438 -0.660156 2.640625 -0.726562 2.734375 -0.8125 C 2.828125 -0.894531 2.894531 -0.992188 2.9375 -1.109375 C 2.988281 -1.234375 3.015625 -1.367188 3.015625 -1.515625 C 3.015625 -1.671875 2.976562 -1.800781 2.90625 -1.90625 C 2.832031 -2.007812 2.738281 -2.09375 2.625 -2.15625 C 2.507812 -2.226562 2.375 -2.289062 2.21875 -2.34375 C 2.0625 -2.394531 1.90625 -2.441406 1.75 -2.484375 C 1.59375 -2.535156 1.4375 -2.59375 1.28125 -2.65625 C 1.125 -2.726562 0.984375 -2.816406 0.859375 -2.921875 C 0.742188 -3.035156 0.648438 -3.171875 0.578125 -3.328125 C 0.503906 -3.484375 0.46875 -3.679688 0.46875 -3.921875 C 0.46875 -4.109375 0.503906 -4.289062 0.578125 -4.46875 C 0.648438 -4.644531 0.753906 -4.800781 0.890625 -4.9375 C 1.035156 -5.070312 1.207031 -5.179688 1.40625 -5.265625 C 1.613281 -5.347656 1.851562 -5.390625 2.125 -5.390625 C 2.414062 -5.390625 2.679688 -5.34375 2.921875 -5.25 C 3.171875 -5.15625 3.390625 -5.019531 3.578125 -4.84375 Z M 3.40625 -4.5 "/></g></g></g><g fill="#fd2525" fill-opacity="1"><g transform="translate(249.302665, 63.61664)"><g><path d="M 5.609375 -2.65625 C 5.609375 -2.257812 5.539062 -1.894531 5.40625 -1.5625 C 5.28125 -1.226562 5.101562 -0.941406 4.875 -0.703125 C 4.644531 -0.460938 4.367188 -0.273438 4.046875 -0.140625 C 3.722656 -0.00390625 3.363281 0.0625 2.96875 0.0625 C 2.582031 0.0625 2.226562 -0.00390625 1.90625 -0.140625 C 1.582031 -0.273438 1.304688 -0.460938 1.078125 -0.703125 C 0.847656 -0.941406 0.664062 -1.226562 0.53125 -1.5625 C 0.40625 -1.894531 0.34375 -2.257812 0.34375 -2.65625 C 0.34375 -3.0625 0.40625 -3.429688 0.53125 -3.765625 C 0.664062 -4.097656 0.847656 -4.382812 1.078125 -4.625 C 1.304688 -4.863281 1.582031 -5.050781 1.90625 -5.1875 C 2.226562 -5.320312 2.582031 -5.390625 2.96875 -5.390625 C 3.363281 -5.390625 3.722656 -5.320312 4.046875 -5.1875 C 4.367188 -5.050781 4.644531 -4.863281 4.875 -4.625 C 5.101562 -4.382812 5.28125 -4.097656 5.40625 -3.765625 C 5.539062 -3.429688 5.609375 -3.0625 5.609375 -2.65625 Z M 4.859375 -2.65625 C 4.859375 -2.988281 4.8125 -3.285156 4.71875 -3.546875 C 4.632812 -3.804688 4.507812 -4.023438 4.34375 -4.203125 C 4.1875 -4.378906 3.988281 -4.515625 3.75 -4.609375 C 3.519531 -4.710938 3.257812 -4.765625 2.96875 -4.765625 C 2.6875 -4.765625 2.425781 -4.710938 2.1875 -4.609375 C 1.957031 -4.515625 1.757812 -4.378906 1.59375 -4.203125 C 1.4375 -4.023438 1.3125 -3.804688 1.21875 -3.546875 C 1.125 -3.285156 1.078125 -2.988281 1.078125 -2.65625 C 1.078125 -2.332031 1.125 -2.039062 1.21875 -1.78125 C 1.3125 -1.519531 1.4375 -1.300781 1.59375 -1.125 C 1.757812 -0.945312 1.957031 -0.804688 2.1875 -0.703125 C 2.425781 -0.609375 2.6875 -0.5625 2.96875 -0.5625 C 3.257812 -0.5625 3.519531 -0.609375 3.75 -0.703125 C 3.988281 -0.804688 4.1875 -0.945312 4.34375 -1.125 C 4.507812 -1.300781 4.632812 -1.519531 4.71875 -1.78125 C 4.8125 -2.039062 4.859375 -2.332031 4.859375 -2.65625 Z M 4.859375 -2.65625 "/></g></g></g><g fill="#fd2525" fill-opacity="1"><g transform="translate(260.162563, 63.61664)"><g><path d="M 3.703125 -0.609375 L 3.703125 0 L 0.6875 0 L 0.6875 -5.328125 L 1.390625 -5.328125 L 1.390625 -0.609375 Z M 3.703125 -0.609375 "/></g></g></g><g fill="#fd2525" fill-opacity="1"><g transform="translate(268.88694, 63.61664)"><g><path d="M 2.734375 -0.578125 C 2.953125 -0.578125 3.148438 -0.613281 3.328125 -0.6875 C 3.503906 -0.757812 3.648438 -0.863281 3.765625 -1 C 3.890625 -1.132812 3.984375 -1.289062 4.046875 -1.46875 C 4.109375 -1.65625 4.140625 -1.863281 4.140625 -2.09375 L 4.140625 -5.328125 L 4.859375 -5.328125 L 4.859375 -2.09375 C 4.859375 -1.78125 4.804688 -1.492188 4.703125 -1.234375 C 4.609375 -0.972656 4.46875 -0.742188 4.28125 -0.546875 C 4.101562 -0.359375 3.882812 -0.207031 3.625 -0.09375 C 3.363281 0.0078125 3.066406 0.0625 2.734375 0.0625 C 2.410156 0.0625 2.113281 0.0078125 1.84375 -0.09375 C 1.582031 -0.207031 1.359375 -0.359375 1.171875 -0.546875 C 0.992188 -0.742188 0.851562 -0.972656 0.75 -1.234375 C 0.65625 -1.492188 0.609375 -1.78125 0.609375 -2.09375 L 0.609375 -5.328125 L 1.328125 -5.328125 L 1.328125 -2.09375 C 1.328125 -1.875 1.359375 -1.671875 1.421875 -1.484375 C 1.484375 -1.296875 1.570312 -1.132812 1.6875 -1 C 1.8125 -0.863281 1.960938 -0.757812 2.140625 -0.6875 C 2.316406 -0.613281 2.515625 -0.578125 2.734375 -0.578125 Z M 2.734375 -0.578125 "/></g></g></g><g fill="#fd2525" fill-opacity="1"><g transform="translate(279.263187, 63.61664)"><g><path d="M 4.28125 -4.71875 L 2.5625 -4.71875 L 2.5625 0 L 1.84375 0 L 1.84375 -4.71875 L 0.109375 -4.71875 L 0.109375 -5.328125 L 4.28125 -5.328125 Z M 4.28125 -4.71875 "/></g></g></g><g fill="#fd2525" fill-opacity="1"><g transform="translate(288.560504, 63.61664)"><g><path d="M 1.40625 0 L 0.6875 0 L 0.6875 -5.328125 L 1.40625 -5.328125 Z M 1.40625 0 "/></g></g></g><g fill="#fd2525" fill-opacity="1"><g transform="translate(295.547433, 63.61664)"><g><path d="M 5.609375 -2.65625 C 5.609375 -2.257812 5.539062 -1.894531 5.40625 -1.5625 C 5.28125 -1.226562 5.101562 -0.941406 4.875 -0.703125 C 4.644531 -0.460938 4.367188 -0.273438 4.046875 -0.140625 C 3.722656 -0.00390625 3.363281 0.0625 2.96875 0.0625 C 2.582031 0.0625 2.226562 -0.00390625 1.90625 -0.140625 C 1.582031 -0.273438 1.304688 -0.460938 1.078125 -0.703125 C 0.847656 -0.941406 0.664062 -1.226562 0.53125 -1.5625 C 0.40625 -1.894531 0.34375 -2.257812 0.34375 -2.65625 C 0.34375 -3.0625 0.40625 -3.429688 0.53125 -3.765625 C 0.664062 -4.097656 0.847656 -4.382812 1.078125 -4.625 C 1.304688 -4.863281 1.582031 -5.050781 1.90625 -5.1875 C 2.226562 -5.320312 2.582031 -5.390625 2.96875 -5.390625 C 3.363281 -5.390625 3.722656 -5.320312 4.046875 -5.1875 C 4.367188 -5.050781 4.644531 -4.863281 4.875 -4.625 C 5.101562 -4.382812 5.28125 -4.097656 5.40625 -3.765625 C 5.539062 -3.429688 5.609375 -3.0625 5.609375 -2.65625 Z M 4.859375 -2.65625 C 4.859375 -2.988281 4.8125 -3.285156 4.71875 -3.546875 C 4.632812 -3.804688 4.507812 -4.023438 4.34375 -4.203125 C 4.1875 -4.378906 3.988281 -4.515625 3.75 -4.609375 C 3.519531 -4.710938 3.257812 -4.765625 2.96875 -4.765625 C 2.6875 -4.765625 2.425781 -4.710938 2.1875 -4.609375 C 1.957031 -4.515625 1.757812 -4.378906 1.59375 -4.203125 C 1.4375 -4.023438 1.3125 -3.804688 1.21875 -3.546875 C 1.125 -3.285156 1.078125 -2.988281 1.078125 -2.65625 C 1.078125 -2.332031 1.125 -2.039062 1.21875 -1.78125 C 1.3125 -1.519531 1.4375 -1.300781 1.59375 -1.125 C 1.757812 -0.945312 1.957031 -0.804688 2.1875 -0.703125 C 2.425781 -0.609375 2.6875 -0.5625 2.96875 -0.5625 C 3.257812 -0.5625 3.519531 -0.609375 3.75 -0.703125 C 3.988281 -0.804688 4.1875 -0.945312 4.34375 -1.125 C 4.507812 -1.300781 4.632812 -1.519531 4.71875 -1.78125 C 4.8125 -2.039062 4.859375 -2.332031 4.859375 -2.65625 Z M 4.859375 -2.65625 "/></g></g></g><g fill="#fd2525" fill-opacity="1"><g transform="translate(306.407331, 63.61664)"><g><path d="M 5 -5.328125 L 5 0 L 4.640625 0 C 4.578125 0 4.523438 -0.0078125 4.484375 -0.03125 C 4.453125 -0.0507812 4.414062 -0.0820312 4.375 -0.125 L 1.296875 -4.140625 C 1.304688 -4.078125 1.3125 -4.015625 1.3125 -3.953125 C 1.3125 -3.898438 1.3125 -3.847656 1.3125 -3.796875 L 1.3125 0 L 0.6875 0 L 0.6875 -5.328125 L 1.046875 -5.328125 C 1.078125 -5.328125 1.101562 -5.320312 1.125 -5.3125 C 1.15625 -5.3125 1.175781 -5.304688 1.1875 -5.296875 C 1.207031 -5.296875 1.222656 -5.285156 1.234375 -5.265625 C 1.253906 -5.253906 1.273438 -5.234375 1.296875 -5.203125 L 4.390625 -1.1875 C 4.378906 -1.257812 4.367188 -1.320312 4.359375 -1.375 C 4.359375 -1.4375 4.359375 -1.492188 4.359375 -1.546875 L 4.359375 -5.328125 Z M 5 -5.328125 "/></g></g></g><g fill="#fd2525" fill-opacity="1"><g transform="translate(316.991919, 63.61664)"><g><path d="M 3.40625 -4.5 C 3.382812 -4.457031 3.359375 -4.425781 3.328125 -4.40625 C 3.304688 -4.394531 3.273438 -4.390625 3.234375 -4.390625 C 3.191406 -4.390625 3.140625 -4.410156 3.078125 -4.453125 C 3.023438 -4.492188 2.957031 -4.535156 2.875 -4.578125 C 2.789062 -4.628906 2.6875 -4.675781 2.5625 -4.71875 C 2.445312 -4.769531 2.300781 -4.796875 2.125 -4.796875 C 1.96875 -4.796875 1.828125 -4.769531 1.703125 -4.71875 C 1.578125 -4.675781 1.472656 -4.617188 1.390625 -4.546875 C 1.304688 -4.472656 1.242188 -4.382812 1.203125 -4.28125 C 1.160156 -4.1875 1.140625 -4.078125 1.140625 -3.953125 C 1.140625 -3.804688 1.175781 -3.679688 1.25 -3.578125 C 1.320312 -3.484375 1.414062 -3.398438 1.53125 -3.328125 C 1.65625 -3.265625 1.796875 -3.207031 1.953125 -3.15625 C 2.109375 -3.101562 2.265625 -3.050781 2.421875 -3 C 2.578125 -2.945312 2.734375 -2.882812 2.890625 -2.8125 C 3.046875 -2.75 3.179688 -2.664062 3.296875 -2.5625 C 3.421875 -2.457031 3.519531 -2.328125 3.59375 -2.171875 C 3.664062 -2.023438 3.703125 -1.84375 3.703125 -1.625 C 3.703125 -1.382812 3.660156 -1.160156 3.578125 -0.953125 C 3.503906 -0.753906 3.390625 -0.578125 3.234375 -0.421875 C 3.078125 -0.273438 2.890625 -0.15625 2.671875 -0.0625 C 2.453125 0.0195312 2.203125 0.0625 1.921875 0.0625 C 1.566406 0.0625 1.25 0 0.96875 -0.125 C 0.6875 -0.25 0.445312 -0.421875 0.25 -0.640625 L 0.453125 -0.984375 C 0.472656 -1.003906 0.492188 -1.023438 0.515625 -1.046875 C 0.546875 -1.066406 0.582031 -1.078125 0.625 -1.078125 C 0.65625 -1.078125 0.691406 -1.0625 0.734375 -1.03125 C 0.773438 -1.007812 0.820312 -0.976562 0.875 -0.9375 C 0.925781 -0.894531 0.984375 -0.847656 1.046875 -0.796875 C 1.117188 -0.753906 1.195312 -0.710938 1.28125 -0.671875 C 1.363281 -0.640625 1.457031 -0.609375 1.5625 -0.578125 C 1.675781 -0.554688 1.800781 -0.546875 1.9375 -0.546875 C 2.101562 -0.546875 2.253906 -0.566406 2.390625 -0.609375 C 2.523438 -0.660156 2.640625 -0.726562 2.734375 -0.8125 C 2.828125 -0.894531 2.894531 -0.992188 2.9375 -1.109375 C 2.988281 -1.234375 3.015625 -1.367188 3.015625 -1.515625 C 3.015625 -1.671875 2.976562 -1.800781 2.90625 -1.90625 C 2.832031 -2.007812 2.738281 -2.09375 2.625 -2.15625 C 2.507812 -2.226562 2.375 -2.289062 2.21875 -2.34375 C 2.0625 -2.394531 1.90625 -2.441406 1.75 -2.484375 C 1.59375 -2.535156 1.4375 -2.59375 1.28125 -2.65625 C 1.125 -2.726562 0.984375 -2.816406 0.859375 -2.921875 C 0.742188 -3.035156 0.648438 -3.171875 0.578125 -3.328125 C 0.503906 -3.484375 0.46875 -3.679688 0.46875 -3.921875 C 0.46875 -4.109375 0.503906 -4.289062 0.578125 -4.46875 C 0.648438 -4.644531 0.753906 -4.800781 0.890625 -4.9375 C 1.035156 -5.070312 1.207031 -5.179688 1.40625 -5.265625 C 1.613281 -5.347656 1.851562 -5.390625 2.125 -5.390625 C 2.414062 -5.390625 2.679688 -5.34375 2.921875 -5.25 C 3.171875 -5.15625 3.390625 -5.019531 3.578125 -4.84375 Z M 3.40625 -4.5 "/></g></g></g><g fill="#000000" fill-opacity="1"><g transform="translate(131.403505, 86.386015)"><g><path d="M 5.949219 0 C 5.046875 0 4.214844 -0.21875 3.453125 -0.660156 C 2.691406 -1.101562 2.085938 -1.703125 1.640625 -2.46875 C 1.199219 -3.230469 0.976562 -4.0625 0.976562 -4.964844 C 0.976562 -5.867188 1.199219 -6.699219 1.640625 -7.464844 C 2.085938 -8.226562 2.691406 -8.832031 3.453125 -9.277344 C 4.214844 -9.726562 5.046875 -9.949219 5.949219 -9.949219 L 10.675781 -9.949219 L 10.675781 -3.910156 C 10.675781 -3.28125 10.808594 -2.789062 11.066406 -2.433594 C 11.324219 -2.078125 11.714844 -1.902344 12.238281 -1.902344 L 12.816406 -1.902344 L 12.816406 0 L 12.238281 0 C 11.554688 0 10.988281 -0.160156 10.53125 -0.484375 C 10.078125 -0.804688 9.746094 -1.265625 9.53125 -1.871094 C 9.140625 -1.273438 8.632812 -0.8125 8.011719 -0.488281 C 7.386719 -0.164062 6.699219 0 5.949219 0 Z M 5.949219 -1.902344 C 6.472656 -1.902344 6.949219 -2.023438 7.378906 -2.273438 C 7.804688 -2.523438 8.144531 -2.878906 8.394531 -3.347656 C 8.640625 -3.816406 8.765625 -4.359375 8.765625 -4.976562 L 8.765625 -8.050781 L 5.949219 -8.050781 C 5.394531 -8.050781 4.878906 -7.910156 4.414062 -7.632812 C 3.945312 -7.355469 3.574219 -6.980469 3.292969 -6.511719 C 3.015625 -6.046875 2.875 -5.53125 2.875 -4.976562 C 2.875 -4.417969 3.015625 -3.90625 3.292969 -3.4375 C 3.574219 -2.96875 3.945312 -2.597656 4.414062 -2.320312 C 4.878906 -2.039062 5.394531 -1.902344 5.949219 -1.902344 Z M 4.539062 -11.046875 C 4.226562 -11.046875 3.960938 -11.160156 3.734375 -11.386719 C 3.507812 -11.613281 3.394531 -11.878906 3.394531 -12.191406 C 3.394531 -12.507812 3.507812 -12.78125 3.734375 -13.003906 C 3.960938 -13.230469 4.226562 -13.34375 4.539062 -13.34375 C 4.863281 -13.34375 5.136719 -13.230469 5.363281 -13.003906 C 5.589844 -12.78125 5.703125 -12.507812 5.703125 -12.191406 C 5.703125 -11.878906 5.589844 -11.613281 5.363281 -11.386719 C 5.136719 -11.160156 4.863281 -11.046875 4.539062 -11.046875 Z M 7.902344 -11.046875 C 7.589844 -11.046875 7.324219 -11.160156 7.097656 -11.386719 C 6.871094 -11.613281 6.757812 -11.878906 6.757812 -12.191406 C 6.757812 -12.515625 6.871094 -12.789062 7.097656 -13.011719 C 7.324219 -13.234375 7.589844 -13.34375 7.902344 -13.34375 C 8.226562 -13.34375 8.5 -13.234375 8.722656 -13.011719 C 8.945312 -12.789062 9.054688 -12.515625 9.054688 -12.191406 C 9.054688 -11.878906 8.945312 -11.613281 8.722656 -11.386719 C 8.5 -11.160156 8.226562 -11.046875 7.902344 -11.046875 Z M 7.902344 -11.046875 "/></g></g></g><g fill="#000000" fill-opacity="1"><g transform="translate(143.716459, 86.386015)"><g><path d="M -0.199219 -1.902344 L 1.105469 -1.902344 C 1.621094 -1.902344 2.011719 -2.078125 2.273438 -2.433594 C 2.535156 -2.789062 2.667969 -3.28125 2.667969 -3.910156 L 2.667969 -9.941406 L 4.566406 -9.949219 L 4.566406 -3.910156 C 4.566406 -3.28125 4.699219 -2.789062 4.960938 -2.433594 C 5.222656 -2.078125 5.617188 -1.902344 6.140625 -1.902344 L 7.453125 -1.902344 L 7.453125 0 L 6.140625 0 C 5.003906 0 4.167969 -0.449219 3.621094 -1.351562 C 3.066406 -0.449219 2.226562 0 1.105469 0 L -0.199219 0 Z M 1.941406 3.96875 C 1.632812 3.96875 1.363281 3.859375 1.136719 3.632812 C 0.910156 3.40625 0.796875 3.132812 0.796875 2.816406 C 0.796875 2.507812 0.910156 2.238281 1.136719 2.011719 C 1.363281 1.785156 1.628906 1.671875 1.941406 1.671875 C 2.257812 1.671875 2.53125 1.785156 2.757812 2.011719 C 2.980469 2.238281 3.09375 2.507812 3.09375 2.816406 C 3.09375 3.128906 2.980469 3.398438 2.75 3.628906 C 2.523438 3.855469 2.253906 3.96875 1.941406 3.96875 Z M 5.316406 3.96875 C 5.003906 3.96875 4.738281 3.859375 4.507812 3.632812 C 4.28125 3.40625 4.167969 3.132812 4.167969 2.816406 C 4.167969 2.507812 4.28125 2.238281 4.507812 2.011719 C 4.738281 1.785156 5.003906 1.671875 5.316406 1.671875 C 5.625 1.671875 5.894531 1.785156 6.125 2.011719 C 6.355469 2.238281 6.46875 2.507812 6.46875 2.816406 C 6.46875 3.128906 6.355469 3.398438 6.125 3.628906 C 5.894531 3.855469 5.625 3.96875 5.316406 3.96875 Z M 5.316406 3.96875 "/></g></g></g><g fill="#000000" fill-opacity="1"><g transform="translate(150.678463, 86.386015)"><g><path d="M -0.199219 -1.902344 L 0.378906 -1.902344 C 0.894531 -1.902344 1.285156 -2.078125 1.546875 -2.433594 C 1.808594 -2.789062 1.941406 -3.28125 1.941406 -3.910156 L 1.941406 -9.949219 L 3.839844 -9.949219 L 3.839844 -3.910156 C 3.839844 -3.28125 3.972656 -2.789062 4.234375 -2.433594 C 4.496094 -2.078125 4.890625 -1.902344 5.414062 -1.902344 L 5.980469 -1.902344 L 5.980469 0 L 5.414062 0 C 4.277344 0 3.441406 -0.449219 2.894531 -1.351562 C 2.339844 -0.449219 1.5 0 0.378906 0 L -0.199219 0 Z M 2.894531 -11.046875 C 2.570312 -11.046875 2.292969 -11.160156 2.058594 -11.394531 C 1.828125 -11.625 1.710938 -11.90625 1.710938 -12.230469 C 1.710938 -12.5625 1.828125 -12.84375 2.058594 -13.074219 C 2.292969 -13.308594 2.570312 -13.421875 2.894531 -13.421875 C 3.226562 -13.421875 3.507812 -13.308594 3.742188 -13.074219 C 3.972656 -12.84375 4.089844 -12.5625 4.089844 -12.230469 C 4.089844 -11.90625 3.972656 -11.625 3.742188 -11.394531 C 3.507812 -11.160156 3.226562 -11.046875 2.894531 -11.046875 Z M 2.894531 -11.046875 "/></g></g></g><g fill="#000000" fill-opacity="1"><g transform="translate(156.168453, 86.386015)"><g><path d="M -0.199219 -1.902344 L 3.164062 -1.902344 C 2.632812 -2.273438 2.210938 -2.753906 1.894531 -3.34375 C 1.582031 -3.933594 1.421875 -4.578125 1.421875 -5.273438 C 1.421875 -6.121094 1.632812 -6.898438 2.054688 -7.613281 C 2.476562 -8.328125 3.054688 -8.898438 3.796875 -9.320312 C 4.535156 -9.742188 5.355469 -9.949219 6.25 -9.949219 C 7.179688 -9.949219 8.023438 -9.726562 8.78125 -9.273438 C 9.542969 -8.824219 10.136719 -8.207031 10.574219 -7.429688 C 11.007812 -6.648438 11.226562 -5.78125 11.226562 -4.828125 L 11.226562 -1.902344 L 13.164062 -1.902344 L 13.164062 0 L -0.199219 0 Z M 9.3125 -1.902344 L 9.3125 -4.976562 C 9.3125 -5.53125 9.175781 -6.046875 8.90625 -6.519531 C 8.632812 -6.992188 8.261719 -7.367188 7.789062 -7.640625 C 7.320312 -7.914062 6.808594 -8.050781 6.25 -8.050781 C 5.695312 -8.050781 5.179688 -7.914062 4.707031 -7.636719 C 4.234375 -7.363281 3.863281 -6.988281 3.585938 -6.515625 C 3.3125 -6.046875 3.175781 -5.53125 3.175781 -4.972656 C 3.175781 -4.417969 3.3125 -3.902344 3.585938 -3.433594 C 3.863281 -2.960938 4.234375 -2.589844 4.707031 -2.3125 C 5.179688 -2.039062 5.691406 -1.902344 6.246094 -1.902344 Z M 4.429688 -11.203125 C 4.117188 -11.203125 3.851562 -11.316406 3.625 -11.542969 C 3.398438 -11.769531 3.285156 -12.039062 3.285156 -12.347656 C 3.285156 -12.675781 3.398438 -12.949219 3.625 -13.175781 C 3.851562 -13.402344 4.117188 -13.511719 4.429688 -13.511719 C 4.746094 -13.511719 5.019531 -13.398438 5.242188 -13.171875 C 5.46875 -12.941406 5.582031 -12.667969 5.582031 -12.347656 C 5.582031 -12.039062 5.46875 -11.769531 5.242188 -11.542969 C 5.019531 -11.316406 4.746094 -11.203125 4.429688 -11.203125 Z M 8.011719 -11.203125 C 7.699219 -11.203125 7.433594 -11.316406 7.207031 -11.542969 C 6.980469 -11.769531 6.867188 -12.039062 6.867188 -12.347656 C 6.867188 -12.675781 6.980469 -12.949219 7.207031 -13.175781 C 7.433594 -13.402344 7.699219 -13.511719 8.011719 -13.511719 C 8.328125 -13.511719 8.601562 -13.398438 8.828125 -13.171875 C 9.050781 -12.941406 9.164062 -12.667969 9.164062 -12.347656 C 9.164062 -12.039062 9.050781 -11.769531 8.828125 -11.542969 C 8.601562 -11.316406 8.328125 -11.203125 8.011719 -11.203125 Z M 8.011719 -11.203125 "/></g></g></g><g fill="#000000" fill-opacity="1"><g transform="translate(168.839464, 86.386015)"><g><path d="M -0.199219 -1.902344 L 1.105469 -1.902344 C 1.628906 -1.902344 2.023438 -2.078125 2.285156 -2.433594 C 2.546875 -2.789062 2.675781 -3.28125 2.675781 -3.910156 L 2.675781 -9.949219 L 4.578125 -9.949219 L 4.578125 -3.910156 C 4.578125 -3.28125 4.707031 -2.789062 4.96875 -2.433594 C 5.234375 -2.078125 5.625 -1.902344 6.148438 -1.902344 L 7.453125 -1.902344 L 7.453125 0 L 6.148438 0 C 5.015625 0 4.175781 -0.449219 3.632812 -1.351562 C 3.074219 -0.449219 2.230469 0 1.105469 0 L -0.199219 0 Z M 1.96875 -11.046875 C 1.660156 -11.046875 1.390625 -11.160156 1.164062 -11.386719 C 0.9375 -11.613281 0.824219 -11.878906 0.824219 -12.191406 C 0.824219 -12.515625 0.9375 -12.789062 1.164062 -13.011719 C 1.390625 -13.234375 1.660156 -13.34375 1.96875 -13.34375 C 2.289062 -13.34375 2.5625 -13.230469 2.785156 -13.003906 C 3.011719 -12.78125 3.125 -12.507812 3.125 -12.191406 C 3.125 -11.878906 3.011719 -11.613281 2.785156 -11.386719 C 2.5625 -11.160156 2.289062 -11.046875 1.96875 -11.046875 Z M 5.324219 -11.046875 C 5.015625 -11.046875 4.746094 -11.160156 4.519531 -11.386719 C 4.292969 -11.613281 4.179688 -11.878906 4.179688 -12.191406 C 4.179688 -12.515625 4.292969 -12.789062 4.519531 -13.011719 C 4.746094 -13.234375 5.015625 -13.34375 5.324219 -13.34375 C 5.648438 -13.34375 5.925781 -13.234375 6.144531 -13.011719 C 6.367188 -12.789062 6.476562 -12.515625 6.476562 -12.191406 C 6.476562 -11.878906 6.367188 -11.613281 6.144531 -11.386719 C 5.925781 -11.160156 5.648438 -11.046875 5.324219 -11.046875 Z M 5.324219 -11.046875 "/></g></g></g><g fill="#000000" fill-opacity="1"><g transform="translate(175.801469, 86.386015)"><g><path d="M -0.199219 -1.902344 L 0.339844 -1.902344 C 0.863281 -1.902344 1.253906 -2.078125 1.511719 -2.433594 C 1.769531 -2.789062 1.902344 -3.28125 1.902344 -3.910156 L 1.902344 -15.523438 L 3.8125 -15.523438 L 3.8125 -3.910156 C 3.8125 -3.128906 3.671875 -2.441406 3.394531 -1.855469 C 3.113281 -1.269531 2.714844 -0.8125 2.1875 -0.488281 C 1.664062 -0.164062 1.046875 0 0.339844 0 L -0.199219 0 Z M -0.199219 -1.902344 "/></g></g></g><g fill="#000000" fill-opacity="1"><g transform="translate(181.012973, 86.386015)"><g><path d="M 1.621094 -15.523438 L 3.523438 -15.523438 L 3.523438 0 L 1.621094 0 Z M 1.621094 -15.523438 "/></g></g></g><g fill="#000000" fill-opacity="1"><g transform="translate(185.846533, 86.386015)"><g/></g></g><g fill="#000000" fill-opacity="1"><g transform="translate(190.978479, 86.386015)"><g><path d="M 6.308594 4.519531 C 5.300781 4.519531 4.390625 4.277344 3.582031 3.796875 C 2.773438 3.316406 2.136719 2.660156 1.671875 1.824219 C 1.207031 0.992188 0.976562 0.0703125 0.976562 -0.945312 L 0.976562 -7.960938 L 2.875 -7.960938 L 2.875 -0.945312 C 2.875 -0.273438 3.023438 0.332031 3.3125 0.875 C 3.605469 1.417969 4.011719 1.847656 4.53125 2.15625 C 5.054688 2.460938 5.644531 2.617188 6.308594 2.617188 C 7.332031 2.617188 8.15625 2.28125 8.792969 1.605469 C 9.425781 0.933594 9.742188 -0.109375 9.742188 -1.523438 L 9.742188 -15.523438 L 11.640625 -15.523438 L 11.640625 -1.523438 C 11.640625 -0.207031 11.40625 0.902344 10.9375 1.804688 C 10.464844 2.710938 9.828125 3.390625 9.019531 3.839844 C 8.214844 4.292969 7.3125 4.519531 6.308594 4.519531 Z M 6.308594 4.519531 "/></g></g></g><g fill="#000000" fill-opacity="1"><g transform="translate(203.94787, 86.386015)"><g><path d="M 6.058594 4.527344 C 5.222656 4.527344 4.425781 4.355469 3.667969 4.003906 C 2.90625 3.65625 2.292969 3.175781 1.820312 2.558594 L 3.164062 1.304688 C 3.476562 1.707031 3.890625 2.03125 4.414062 2.269531 C 4.933594 2.507812 5.472656 2.628906 6.03125 2.628906 C 6.605469 2.628906 7.113281 2.503906 7.550781 2.257812 C 7.988281 2.011719 8.335938 1.6875 8.59375 1.285156 C 8.847656 0.878906 9.003906 0.449219 9.054688 0 L 6.21875 0 C 5.230469 0 4.335938 -0.21875 3.539062 -0.652344 C 2.738281 -1.085938 2.109375 -1.6875 1.65625 -2.453125 C 1.203125 -3.21875 0.976562 -4.078125 0.976562 -5.023438 C 0.976562 -5.925781 1.195312 -6.757812 1.640625 -7.527344 C 2.082031 -8.296875 2.6875 -8.902344 3.457031 -9.34375 C 4.222656 -9.789062 5.0625 -10.011719 5.972656 -10.011719 C 6.945312 -10.011719 7.8125 -9.78125 8.566406 -9.324219 C 9.324219 -8.867188 9.914062 -8.230469 10.339844 -7.414062 C 10.761719 -6.597656 10.976562 -5.667969 10.976562 -4.628906 L 10.976562 -1.902344 L 12.585938 -1.902344 L 12.585938 0 L 10.957031 0 C 10.875 0.835938 10.628906 1.59375 10.214844 2.277344 C 9.800781 2.960938 9.234375 3.507812 8.519531 3.914062 C 7.804688 4.324219 6.984375 4.527344 6.058594 4.527344 Z M 9.066406 -1.902344 L 9.066406 -4.777344 C 9.066406 -5.429688 8.9375 -6.007812 8.675781 -6.507812 C 8.417969 -7.011719 8.054688 -7.40625 7.589844 -7.6875 C 7.125 -7.96875 6.585938 -8.109375 5.972656 -8.109375 C 5.40625 -8.109375 4.890625 -7.972656 4.417969 -7.695312 C 3.945312 -7.421875 3.574219 -7.046875 3.292969 -6.574219 C 3.015625 -6.097656 2.875 -5.582031 2.875 -5.03125 C 2.875 -4.410156 3.015625 -3.863281 3.296875 -3.394531 C 3.582031 -2.921875 3.976562 -2.554688 4.480469 -2.292969 C 4.988281 -2.03125 5.566406 -1.902344 6.21875 -1.902344 Z M 9.066406 -1.902344 "/></g></g></g><g fill="#000000" fill-opacity="1"><g transform="translate(216.042005, 86.386015)"><g><path d="M -0.199219 -1.902344 L 0.378906 -1.902344 C 0.894531 -1.902344 1.285156 -2.078125 1.546875 -2.433594 C 1.808594 -2.789062 1.941406 -3.28125 1.941406 -3.910156 L 1.941406 -15.523438 L 3.839844 -15.523438 L 3.839844 -3.910156 C 3.839844 -3.28125 3.972656 -2.789062 4.234375 -2.433594 C 4.496094 -2.078125 4.890625 -1.902344 5.414062 -1.902344 L 5.980469 -1.902344 L 5.980469 0 L 5.414062 0 C 4.277344 0 3.441406 -0.449219 2.894531 -1.351562 C 2.339844 -0.449219 1.5 0 0.378906 0 L -0.199219 0 Z M -0.199219 -1.902344 "/></g></g></g><g fill="#000000" fill-opacity="1"><g transform="translate(221.531998, 86.386015)"><g><path d="M -0.199219 -1.902344 L 10.328125 -1.902344 L 10.320312 -3.285156 C 10.3125 -4.246094 10.109375 -5.085938 9.707031 -5.800781 C 9.304688 -6.519531 8.746094 -7.070312 8.03125 -7.464844 C 7.3125 -7.855469 6.476562 -8.050781 5.523438 -8.050781 L 1.492188 -8.050781 L 1.492188 -9.949219 L 5.621094 -9.949219 C 6.871094 -9.949219 7.992188 -9.675781 8.992188 -9.121094 C 9.988281 -8.566406 10.773438 -7.789062 11.347656 -6.785156 C 11.921875 -5.785156 12.214844 -4.648438 12.21875 -3.375 L 12.230469 -1.902344 L 13.910156 -1.902344 L 13.921875 0 L -0.199219 0 Z M -0.199219 -1.902344 "/></g></g></g><g fill="#000000" fill-opacity="1"><g transform="translate(234.958909, 86.386015)"><g><path d="M -0.199219 -1.902344 L 0.378906 -1.902344 C 0.894531 -1.902344 1.285156 -2.078125 1.546875 -2.433594 C 1.808594 -2.789062 1.941406 -3.28125 1.941406 -3.910156 L 1.941406 -15.523438 L 3.839844 -15.523438 L 3.839844 -3.910156 C 3.839844 -3.28125 3.972656 -2.789062 4.234375 -2.433594 C 4.496094 -2.078125 4.890625 -1.902344 5.414062 -1.902344 L 5.980469 -1.902344 L 5.980469 0 L 5.414062 0 C 4.277344 0 3.441406 -0.449219 2.894531 -1.351562 C 2.339844 -0.449219 1.5 0 0.378906 0 L -0.199219 0 Z M -0.199219 -1.902344 "/></g></g></g><g fill="#000000" fill-opacity="1"><g transform="translate(240.448897, 86.386015)"><g><path d="M -0.199219 -1.902344 L 0.339844 -1.902344 C 0.863281 -1.902344 1.253906 -2.078125 1.511719 -2.433594 C 1.769531 -2.789062 1.902344 -3.28125 1.902344 -3.910156 L 1.902344 -15.523438 L 3.8125 -15.523438 L 3.8125 -3.910156 C 3.8125 -3.128906 3.671875 -2.441406 3.394531 -1.855469 C 3.113281 -1.269531 2.714844 -0.8125 2.1875 -0.488281 C 1.664062 -0.164062 1.046875 0 0.339844 0 L -0.199219 0 Z M -0.199219 -1.902344 "/></g></g></g><g fill="#000000" fill-opacity="1"><g transform="translate(245.660399, 86.386015)"><g/></g></g><g fill="#000000" fill-opacity="1"><g transform="translate(250.79234, 86.386015)"><g><path d="M 6.019531 4.519531 C 5.039062 4.519531 4.167969 4.285156 3.414062 3.820312 C 2.65625 3.355469 2.066406 2.683594 1.640625 1.800781 C 1.21875 0.917969 1.003906 -0.121094 1.003906 -1.3125 L 1.003906 -7.960938 L 2.914062 -7.960938 L 2.914062 -1.3125 C 2.914062 -0.0546875 3.191406 0.917969 3.746094 1.597656 C 4.300781 2.277344 5.058594 2.617188 6.019531 2.617188 C 6.988281 2.617188 7.75 2.277344 8.304688 1.597656 C 8.859375 0.917969 9.136719 -0.0546875 9.136719 -1.3125 L 9.136719 -9.949219 L 11.035156 -9.949219 L 11.035156 -4.179688 C 11.035156 -3.457031 11.210938 -2.894531 11.558594 -2.496094 C 11.90625 -2.101562 12.347656 -1.902344 12.875 -1.902344 C 13.40625 -1.902344 13.847656 -2.101562 14.195312 -2.496094 C 14.542969 -2.894531 14.71875 -3.457031 14.71875 -4.179688 L 14.71875 -9.949219 L 16.628906 -9.949219 L 16.628906 -4.179688 C 16.628906 -3.457031 16.800781 -2.894531 17.148438 -2.496094 C 17.5 -2.101562 17.9375 -1.902344 18.46875 -1.902344 C 19 -1.902344 19.4375 -2.101562 19.789062 -2.496094 C 20.136719 -2.894531 20.308594 -3.457031 20.308594 -4.179688 L 20.308594 -10.546875 L 22.210938 -10.546875 L 22.210938 -4.179688 C 22.210938 -3.34375 22.046875 -2.609375 21.71875 -1.976562 C 21.390625 -1.339844 20.941406 -0.855469 20.371094 -0.511719 C 19.800781 -0.171875 19.164062 0 18.46875 0 C 17.878906 0 17.347656 -0.136719 16.871094 -0.40625 C 16.398438 -0.679688 16.019531 -1.066406 15.730469 -1.5625 C 15.460938 -1.066406 15.097656 -0.679688 14.644531 -0.40625 C 14.1875 -0.136719 13.675781 0 13.105469 0 C 12.6875 0 12.300781 -0.0859375 11.941406 -0.253906 C 11.582031 -0.421875 11.277344 -0.671875 11.027344 -0.996094 C 10.984375 0.144531 10.75 1.132812 10.3125 1.960938 C 9.878906 2.789062 9.292969 3.421875 8.554688 3.859375 C 7.8125 4.296875 6.96875 4.519531 6.019531 4.519531 Z M 6.019531 4.519531 "/></g></g></g><g fill="#000000" fill-opacity="1"><g transform="translate(273.986223, 86.386015)"><g><path d="M 0.0507812 4.527344 C -0.15625 4.527344 -0.390625 4.507812 -0.65625 4.464844 C -0.921875 4.417969 -1.152344 4.363281 -1.34375 4.296875 L -0.816406 2.515625 C -0.570312 2.609375 -0.296875 2.65625 0 2.65625 C 0.730469 2.65625 1.253906 2.441406 1.570312 2.015625 C 1.890625 1.585938 2.050781 0.976562 2.050781 0.179688 L 2.050781 -9.949219 L 3.949219 -9.960938 L 3.949219 -1.902344 L 6.140625 -1.902344 L 6.140625 0 L 3.949219 0 L 3.949219 0.558594 C 3.949219 1.339844 3.816406 2.027344 3.546875 2.617188 C 3.277344 3.207031 2.851562 3.671875 2.269531 4.015625 C 1.683594 4.355469 0.945312 4.527344 0.0507812 4.527344 Z M 2.976562 -11.046875 C 2.648438 -11.046875 2.371094 -11.160156 2.140625 -11.394531 C 1.90625 -11.625 1.792969 -11.90625 1.792969 -12.238281 C 1.792969 -12.570312 1.90625 -12.851562 2.140625 -13.082031 C 2.371094 -13.308594 2.648438 -13.421875 2.976562 -13.421875 C 3.308594 -13.421875 3.589844 -13.308594 3.820312 -13.074219 C 4.054688 -12.84375 4.167969 -12.566406 4.167969 -12.238281 C 4.167969 -11.914062 4.054688 -11.632812 3.820312 -11.398438 C 3.589844 -11.164062 3.308594 -11.046875 2.976562 -11.046875 Z M 2.976562 -11.046875 "/></g></g></g><g fill="#000000" fill-opacity="1"><g transform="translate(279.635355, 86.386015)"><g><path d="M -0.199219 -1.902344 L 10.121094 -1.902344 L 10.109375 -3.285156 C 10.101562 -4.246094 9.898438 -5.085938 9.5 -5.800781 C 9.097656 -6.519531 8.539062 -7.070312 7.820312 -7.464844 C 7.105469 -7.855469 6.269531 -8.050781 5.3125 -8.050781 L 1.421875 -8.050781 L 1.421875 -9.949219 L 7.710938 -15.523438 L 10.277344 -15.523438 L 3.910156 -9.949219 L 5.414062 -9.949219 C 6.660156 -9.949219 7.785156 -9.675781 8.78125 -9.121094 C 9.78125 -8.566406 10.566406 -7.789062 11.140625 -6.785156 C 11.714844 -5.785156 12.003906 -4.648438 12.011719 -3.375 L 12.019531 -1.902344 L 13.890625 -1.902344 L 13.890625 0 L -0.199219 0 Z M -0.199219 -1.902344 "/></g></g></g><g fill="#000000" fill-opacity="1"><g transform="translate(293.02248, 86.386015)"><g><path d="M -0.199219 -1.902344 L 0.339844 -1.902344 C 0.863281 -1.902344 1.253906 -2.078125 1.511719 -2.433594 C 1.769531 -2.789062 1.902344 -3.28125 1.902344 -3.910156 L 1.902344 -9.949219 L 3.8125 -9.949219 L 3.8125 -3.910156 C 3.8125 -3.128906 3.671875 -2.441406 3.394531 -1.855469 C 3.113281 -1.269531 2.714844 -0.8125 2.1875 -0.488281 C 1.664062 -0.164062 1.046875 0 0.339844 0 L -0.199219 0 Z M 2.777344 -11.046875 C 2.453125 -11.046875 2.175781 -11.160156 1.945312 -11.394531 C 1.714844 -11.625 1.601562 -11.90625 1.601562 -12.238281 C 1.601562 -12.570312 1.714844 -12.851562 1.945312 -13.082031 C 2.175781 -13.308594 2.453125 -13.421875 2.777344 -13.421875 C 3.109375 -13.421875 3.390625 -13.308594 3.628906 -13.074219 C 3.863281 -12.84375 3.980469 -12.566406 3.980469 -12.238281 C 3.980469 -11.914062 3.863281 -11.632812 3.628906 -11.398438 C 3.390625 -11.164062 3.109375 -11.046875 2.777344 -11.046875 Z M 2.777344 -11.046875 "/></g></g></g><g fill="#000000" fill-opacity="1"><g transform="translate(297.557658, 86.386015)"><g/></g></g><g fill="#000000" fill-opacity="1"><g transform="translate(302.689599, 86.386015)"><g><path d="M 6.925781 0 C 5.652344 0 4.570312 -0.230469 3.683594 -0.6875 C 2.792969 -1.144531 2.121094 -1.808594 1.660156 -2.683594 C 1.203125 -3.554688 0.976562 -4.609375 0.976562 -5.851562 L 0.976562 -7.960938 L 2.875 -7.960938 L 2.875 -5.851562 C 2.875 -4.523438 3.207031 -3.535156 3.871094 -2.878906 C 4.535156 -2.226562 5.550781 -1.902344 6.925781 -1.902344 L 10.257812 -1.902344 C 10.871094 -1.902344 11.335938 -2.09375 11.652344 -2.484375 C 11.972656 -2.871094 12.128906 -3.441406 12.128906 -4.199219 L 12.128906 -15.523438 L 14.03125 -15.523438 L 14.03125 -3.910156 C 14.03125 -3.28125 14.160156 -2.789062 14.421875 -2.433594 C 14.6875 -2.078125 15.078125 -1.902344 15.601562 -1.902344 L 16.171875 -1.902344 L 16.171875 0 L 15.601562 0 C 14.960938 0 14.4375 -0.128906 14.039062 -0.382812 C 13.644531 -0.636719 13.324219 -1 13.085938 -1.472656 C 12.847656 -1.015625 12.492188 -0.65625 12.019531 -0.394531 C 11.550781 -0.132812 10.960938 0 10.257812 0 Z M 5.75 -6.707031 L 6.597656 -6.707031 C 6.339844 -6.980469 6.210938 -7.304688 6.210938 -7.683594 C 6.210938 -8.125 6.367188 -8.5 6.6875 -8.800781 C 7.003906 -9.101562 7.394531 -9.253906 7.851562 -9.253906 C 8.109375 -9.253906 8.355469 -9.199219 8.582031 -9.089844 C 8.8125 -8.980469 9.007812 -8.832031 9.175781 -8.648438 L 8.609375 -8.101562 C 8.414062 -8.3125 8.167969 -8.417969 7.871094 -8.417969 C 7.632812 -8.417969 7.429688 -8.339844 7.265625 -8.183594 C 7.097656 -8.027344 7.015625 -7.832031 7.015625 -7.59375 C 7.015625 -7.355469 7.101562 -7.144531 7.269531 -6.96875 C 7.4375 -6.792969 7.640625 -6.707031 7.871094 -6.707031 L 9.375 -6.707031 L 9.375 -5.871094 L 5.75 -5.871094 Z M 5.75 -6.707031 "/></g></g></g><g fill="#000000" fill-opacity="1"><g transform="translate(318.483646, 86.386015)"><g><path d="M -0.199219 -1.902344 L 0.976562 -1.902344 C 1.507812 -1.902344 1.910156 -2.078125 2.183594 -2.4375 C 2.460938 -2.796875 2.597656 -3.289062 2.597656 -3.910156 L 2.597656 -9.949219 L 4.507812 -9.949219 L 4.507812 -3.910156 C 4.507812 -3.132812 4.363281 -2.453125 4.070312 -1.859375 C 3.777344 -1.269531 3.367188 -0.8125 2.835938 -0.488281 C 2.304688 -0.164062 1.683594 0 0.976562 0 L -0.199219 0 Z M 1.851562 -11.046875 C 1.539062 -11.046875 1.273438 -11.160156 1.046875 -11.386719 C 0.820312 -11.613281 0.707031 -11.878906 0.707031 -12.191406 C 0.707031 -12.507812 0.820312 -12.78125 1.046875 -13.003906 C 1.273438 -13.230469 1.539062 -13.34375 1.851562 -13.34375 C 2.175781 -13.34375 2.453125 -13.230469 2.675781 -13.003906 C 2.902344 -12.78125 3.015625 -12.507812 3.015625 -12.191406 C 3.015625 -11.878906 2.902344 -11.613281 2.675781 -11.386719 C 2.453125 -11.160156 2.175781 -11.046875 1.851562 -11.046875 Z M 5.214844 -11.046875 C 4.90625 -11.046875 4.636719 -11.160156 4.410156 -11.386719 C 4.183594 -11.613281 4.070312 -11.878906 4.070312 -12.191406 C 4.070312 -12.515625 4.183594 -12.789062 4.410156 -13.011719 C 4.636719 -13.234375 4.90625 -13.34375 5.214844 -13.34375 C 5.539062 -13.34375 5.816406 -13.234375 6.035156 -13.011719 C 6.257812 -12.789062 6.367188 -12.515625 6.367188 -12.191406 C 6.367188 -11.878906 6.257812 -11.613281 6.035156 -11.386719 C 5.816406 -11.160156 5.539062 -11.046875 5.214844 -11.046875 Z M 5.214844 -11.046875 "/></g></g></g></svg>