<svg xmlns="http://www.w3.org/2000/svg" xmlns:xlink="http://www.w3.org/1999/xlink" width="50" zoomAndPan="magnify" viewBox="0 0 37.5 37.499999" height="50" preserveAspectRatio="xMidYMid meet" version="1.0"><defs><clipPath id="2c7c0720a3"><path d="M 0 0 L 37 0 L 37 33.75 L 0 33.75 Z M 0 0 " clip-rule="nonzero"/></clipPath></defs><g clip-path="url(#2c7c0720a3)"><path fill="#fd2525" d="M 36.304688 31.003906 C 37.480469 28.972656 36.78125 26.378906 34.75 25.207031 C 32.71875 24.03125 30.117188 24.730469 28.945312 26.761719 C 28.710938 27.164062 28.554688 27.585938 28.464844 28.019531 L 22.898438 28.019531 C 22.710938 27.132812 22.246094 26.3125 21.535156 25.691406 L 24.316406 20.882812 C 26.199219 21.527344 28.335938 20.773438 29.371094 18.988281 C 30.542969 16.957031 29.847656 14.359375 27.8125 13.1875 C 26.664062 12.523438 25.332031 12.460938 24.179688 12.894531 L 21.433594 8.144531 C 21.824219 7.824219 22.164062 7.433594 22.433594 6.96875 C 23.605469 4.941406 22.910156 2.34375 20.878906 1.171875 C 18.84375 0 16.246094 0.695312 15.070312 2.726562 C 13.898438 4.753906 14.59375 7.351562 16.625 8.523438 C 17.683594 9.132812 18.894531 9.238281 19.980469 8.910156 L 22.785156 13.765625 C 22.484375 14.042969 22.222656 14.371094 22.007812 14.742188 C 21.761719 15.171875 21.597656 15.625 21.507812 16.082031 L 15.976562 16.082031 C 15.753906 14.910156 15.042969 13.839844 13.925781 13.195312 C 11.894531 12.023438 9.292969 12.71875 8.121094 14.75 C 7.085938 16.539062 7.503906 18.761719 9.003906 20.070312 L 6.222656 24.878906 C 4.339844 24.234375 2.203125 24.988281 1.171875 26.773438 C -0.00390625 28.804688 0.691406 31.402344 2.726562 32.574219 C 4.757812 33.746094 7.359375 33.050781 8.53125 31.019531 C 9.566406 29.234375 9.148438 27.007812 7.648438 25.699219 L 10.429688 20.890625 C 11.34375 21.203125 12.320312 21.1875 13.199219 20.882812 L 15.96875 25.667969 C 15.613281 25.972656 15.304688 26.339844 15.058594 26.765625 C 13.882812 28.796875 14.578125 31.394531 16.613281 32.566406 C 18.644531 33.738281 21.246094 33.042969 22.417969 31.011719 C 22.667969 30.582031 22.832031 30.125 22.917969 29.660156 L 28.449219 29.660156 C 28.667969 30.835938 29.382812 31.914062 30.5 32.558594 C 32.53125 33.730469 35.132812 33.035156 36.304688 31.003906 Z M 21.527344 17.726562 C 21.710938 18.613281 22.179688 19.441406 22.890625 20.0625 L 20.113281 24.871094 C 19.214844 24.566406 18.261719 24.574219 17.398438 24.863281 L 14.617188 20.050781 C 14.953125 19.757812 15.246094 19.402344 15.480469 18.996094 C 15.71875 18.589844 15.875 18.160156 15.964844 17.726562 Z M 21.527344 17.726562 " fill-opacity="1" fill-rule="nonzero"/></g></svg>